{"glyphs":{"0":{"ha":649,"x_min":-60,"x_max":538,"o":"m 258 985 q 414 900 349 978 q 508 711 479 822 q 536 471 536 600 q 506 231 536 342 q 410 43 475 119 q 256 -39 344 -33 q 116 13 179 -39 q 14 147 53 65 q -42 334 -25 229 q -52 542 -60 439 q -9 744 -44 646 q 88 906 26 842 q 256 985 161 985 l 258 985 m 157 101 q 335 68 240 0 q 464 296 422 132 q 456 678 513 490 q 396 810 435 750 q 303 894 357 871 q 254 904 281 903 l 256 903 q 147 832 194 896 q 78 672 100 768 q 55 471 57 576 q 80 265 53 365 q 157 101 107 164 z "},"1":{"ha":696,"x_min":68,"x_max":614,"o":"m 601 21 q 612 3 611 14 q 606 -17 613 -8 q 588 -27 599 -26 q 568 -21 576 -28 q 408 -25 543 -1 q 331 -38 357 -35 q 269 -40 306 -42 q 210 -24 232 -37 q 197 -7 200 -18 q 201 14 194 4 q 218 26 207 24 q 239 24 229 29 q 367 22 265 7 q 363 60 364 32 q 365 145 363 89 q 375 273 368 201 q 396 450 382 344 q 429 672 410 556 q 438 734 435 715 q 443 783 440 753 q 443 827 446 814 q 435 858 440 840 q 417 887 429 876 q 386 906 404 897 q 288 904 350 922 q 153 779 186 876 q 163 629 122 694 q 279 583 201 567 q 320 576 301 588 q 344 542 339 564 q 336 500 349 519 q 301 476 324 481 q 279 475 296 475 q 199 487 236 474 q 138 524 163 500 q 97 581 114 549 q 74 649 79 613 q 71 722 68 685 q 89 797 74 760 q 128 865 104 833 q 189 920 151 896 q 272 957 226 944 q 431 947 364 981 q 519 824 497 914 q 531 725 529 779 q 528 606 533 671 q 516 481 524 542 q 499 334 508 419 q 485 182 489 249 q 474 40 483 171 q 601 21 564 51 z "},"2":{"ha":732,"x_min":60,"x_max":606,"o":"m 556 72 q 588 44 578 65 q 589 1 597 24 q 552 -33 579 -25 q 503 -24 525 -40 q 402 0 475 -1 q 260 -8 329 1 q 140 -32 190 -18 q 112 -28 125 -36 q 97 -4 99 -19 q 102 19 96 8 q 121 33 108 29 q 203 84 163 46 q 274 164 244 122 q 334 268 303 206 q 382 370 365 331 q 421 468 399 410 q 449 547 439 517 q 474 631 460 576 q 490 722 488 685 q 483 799 492 758 q 447 864 474 839 q 358 910 410 901 q 260 901 307 919 q 178 832 213 882 q 138 713 143 782 q 194 576 135 624 q 279 547 226 553 q 316 528 301 546 q 328 488 331 510 q 304 447 326 461 q 257 440 282 432 q 243 446 256 442 q 222 453 231 450 q 199 465 214 457 q 168 483 183 474 q 85 597 108 526 q 74 736 61 667 q 133 867 86 806 q 250 956 181 929 q 481 931 367 999 l 482 929 q 589 665 606 851 q 502 360 578 543 q 324 69 426 176 q 406 85 372 81 q 480 88 439 90 q 556 72 521 86 z "},"3":{"ha":665,"x_min":-47,"x_max":556,"o":"m 376 554 q 503 465 451 535 q 554 303 554 396 q 458 72 554 172 q 233 -28 363 -28 q -28 172 18 -26 l -29 174 q -1 353 -47 275 q 129 457 46 432 q 174 453 154 464 q 200 419 193 442 q 194 378 206 397 q 163 351 183 358 q 149 349 161 351 q 125 343 136 347 q 60 273 81 324 q 51 165 39 222 q 100 74 63 108 q 236 28 149 31 q 319 44 283 28 q 402 119 376 69 q 443 247 428 168 l 442 246 q 410 420 458 350 q 289 496 361 490 q 263 515 269 497 q 268 544 256 532 q 358 731 349 639 q 349 827 363 771 q 307 900 336 883 q 239 912 278 919 q 172 872 200 904 q 140 808 151 847 q 139 729 129 769 q 183 671 149 689 q 217 636 208 658 q 213 592 225 614 q 179 566 201 572 q 138 571 157 560 q 121 585 131 575 q 62 689 75 631 q 64 799 49 747 q 113 894 79 851 q 189 954 146 936 q 283 967 235 969 q 379 937 332 965 q 449 861 426 908 q 469 771 468 822 q 447 659 469 719 q 376 554 424 599 z "},"4":{"ha":817,"x_min":65,"x_max":664,"o":"m 581 826 q 635 827 607 843 q 664 779 664 811 l 664 -8 q 648 -48 664 -32 q 609 -64 632 -64 q 570 -48 586 -64 q 554 -8 554 -32 l 554 436 q 475 317 521 354 q 361 267 429 279 l 360 267 q 254 290 299 263 q 186 369 210 318 q 153 481 163 421 q 144 608 143 540 q 149 671 146 638 q 153 728 151 704 q 158 777 156 751 q 160 821 160 803 q 161 856 161 839 q 159 885 161 874 q 152 904 157 896 q 140 916 147 913 q 121 918 132 919 q 108 915 114 918 q 93 914 100 913 q 81 919 86 915 q 71 931 75 924 q 74 958 65 946 q 100 969 83 971 q 120 971 101 969 q 158 968 139 972 q 194 951 178 964 q 255 863 238 922 q 271 736 272 804 q 265 600 269 668 q 268 469 261 532 q 301 371 275 406 q 371 336 324 340 q 469 382 425 331 q 534 513 513 433 q 554 675 556 592 q 554 696 554 683 q 557 787 553 763 q 581 826 561 811 z "},"5":{"ha":726,"x_min":-36,"x_max":596,"o":"m 582 375 q 569 203 596 283 q 488 74 542 124 q 367 -3 433 25 q 228 -29 300 -32 q 97 7 156 -26 q -3 115 31 43 q -26 267 -36 186 q 35 411 -17 347 q 72 431 50 429 q 113 419 94 433 q 133 374 133 401 q 110 331 132 347 q 60 260 75 307 q 53 167 46 214 q 99 82 61 121 q 197 32 136 43 q 390 74 315 13 q 476 274 465 136 q 469 394 482 340 q 433 482 457 449 q 378 536 410 515 q 313 563 347 557 q 247 562 279 568 q 189 538 214 556 q 168 519 178 531 q 151 504 158 508 q 131 500 143 500 q 107 507 118 500 q 72 566 85 521 q 57 653 60 611 q 67 781 51 724 q 111 872 82 838 q 178 931 140 907 q 257 962 215 954 q 335 969 299 969 q 401 957 372 968 q 500 882 458 938 q 530 775 533 835 q 488 672 526 715 q 458 646 483 667 q 418 632 440 631 q 381 650 396 633 q 367 691 365 668 q 385 729 368 714 q 414 743 399 740 q 452 781 440 747 q 447 847 464 815 q 382 906 422 889 q 281 910 335 922 q 193 863 226 897 q 165 721 174 838 q 165 715 165 717 q 165 711 165 714 q 165 706 165 708 q 163 600 161 644 q 316 618 240 624 q 458 569 392 613 q 558 456 525 526 q 582 375 574 421 z "},"6":{"ha":678,"x_min":-4,"x_max":572,"o":"m 149 515 q 251 563 194 551 q 361 560 308 574 q 462 513 414 546 q 536 428 510 481 q 567 308 563 375 q 539 160 571 240 q 449 27 506 76 q 332 -33 393 -22 q 213 -29 271 -43 q 114 19 156 -15 q 36 127 65 60 q 1 297 7 194 q 36 525 -4 399 q 78 640 53 582 q 139 756 103 697 q 216 863 175 815 q 308 946 257 911 q 414 993 360 981 q 455 986 436 999 q 479 951 474 974 q 474 914 483 932 q 446 889 464 896 q 433 883 443 889 q 269 735 346 842 q 149 515 192 628 m 474 183 q 490 338 506 272 q 427 440 474 403 q 318 479 381 478 q 169 397 217 482 q 157 290 136 336 q 183 265 165 271 q 218 240 207 260 q 224 199 229 219 q 199 165 218 176 q 157 160 179 154 q 110 183 132 167 q 299 35 149 33 q 404 78 358 36 q 474 183 450 119 z "},"7":{"ha":788,"x_min":65,"x_max":676,"o":"m 515 956 q 602 913 568 940 q 654 858 636 886 q 674 781 672 829 q 672 698 675 733 q 648 599 668 663 q 615 498 628 535 q 572 389 601 461 q 564 368 567 375 q 610 369 601 363 q 631 376 619 378 q 649 367 642 375 q 655 347 656 358 q 646 328 654 336 q 544 315 615 303 q 453 -1 461 100 q 433 -40 450 -25 q 393 -51 415 -54 q 358 -34 372 -50 q 344 3 343 -18 q 429 342 346 131 q 292 332 318 365 q 274 322 285 324 q 253 328 263 321 q 244 346 244 335 q 250 367 243 357 q 305 400 269 392 q 372 406 340 408 q 450 392 404 403 q 497 501 468 436 q 542 604 526 567 q 575 685 558 642 q 598 759 592 729 q 601 808 604 789 q 556 873 594 846 q 463 910 517 900 q 344 913 410 921 q 224 874 279 904 q 167 826 188 854 q 147 772 147 799 q 156 723 146 746 q 188 687 165 700 q 235 675 210 674 q 246 676 240 676 q 274 673 261 679 q 297 656 288 667 q 307 629 306 644 q 292 585 310 604 q 247 568 274 565 q 143 606 186 574 q 83 680 100 638 q 72 771 67 722 q 106 858 76 819 q 184 922 133 896 q 292 960 235 949 q 408 970 350 971 q 515 956 467 969 z "},"8":{"ha":678,"x_min":-10,"x_max":568,"o":"m 375 631 q 514 505 465 572 q 567 344 563 438 q 531 149 568 236 q 419 13 494 63 q 243 -31 344 -36 q 165 -15 197 -26 q 61 58 103 6 q 6 175 19 111 q -8 301 -8 239 q 10 413 -7 364 q 97 552 38 497 q 233 613 156 607 q 228 617 233 613 q 216 628 224 621 q 199 644 208 635 q 181 668 190 654 q 164 697 172 682 q 149 731 156 711 q 140 771 143 751 q 150 860 135 818 q 192 927 165 901 q 253 965 218 953 q 324 973 289 978 q 390 943 358 968 q 439 875 421 918 q 450 749 467 817 q 375 631 433 681 m 203 818 q 219 747 199 788 q 281 690 239 707 q 360 735 332 703 q 391 804 389 768 q 376 872 393 840 q 328 915 358 904 q 244 899 281 929 q 203 818 207 869 m 450 314 q 404 467 454 404 q 347 437 386 432 q 300 481 308 442 q 247 526 292 517 q 156 510 203 536 q 85 440 114 486 q 47 341 57 394 q 42 231 36 288 q 72 131 49 175 q 140 58 94 86 q 244 33 185 31 q 353 78 307 39 q 450 314 443 153 z "},"9":{"ha":631,"x_min":-78,"x_max":507,"o":"m 458 722 q 492 603 481 675 q 505 449 504 532 q 488 282 506 365 q 436 131 469 199 q 341 19 403 63 q 199 -28 279 -25 q 87 -7 135 -29 q 15 51 39 15 q -19 127 -10 86 q -24 208 -29 168 q 0 276 -18 247 q 33 301 11 296 q 75 296 54 307 q 97 269 90 286 q 100 235 104 253 q 96 222 97 228 q 90 132 86 174 q 120 61 93 90 q 193 28 147 32 q 350 142 306 22 q 384 306 372 200 q 383 538 396 413 q 342 467 365 497 q 253 399 301 417 q 138 383 204 381 l 136 383 q -5 451 50 394 q -71 593 -60 507 q -68 710 -78 651 q -32 821 -58 768 q 47 912 -6 874 q 171 961 100 950 q 261 960 221 969 q 326 928 301 951 q 367 874 351 906 q 381 808 382 843 q 371 738 381 774 q 419 752 392 757 q 458 722 446 747 m 340 572 q 353 620 349 596 q 357 659 357 644 q 356 687 357 674 q 354 701 354 700 q 351 694 353 697 q 318 667 340 674 q 276 670 296 660 q 248 703 256 681 q 251 744 240 725 q 272 767 260 761 q 289 784 279 771 q 303 817 299 797 q 280 893 311 861 q 185 908 249 925 q 75 825 113 890 q 29 669 38 760 q 40 563 22 613 q 87 483 57 513 q 151 446 117 454 q 262 463 208 433 q 340 572 315 493 z "},"\u0000":{"ha":0,"x_min":0,"x_max":0,"o":""},"\n":{"ha":0,"x_min":0,"x_max":0,"o":""},"\r":{"ha":0,"x_min":0,"x_max":0,"o":""}," ":{"ha":525,"x_min":0,"x_max":0,"o":""},"!":{"ha":164,"x_min":26,"x_max":138,"o":"m 115 13 q 108 7 115 13 q 83 0 101 0 q 50 13 64 0 q 36 45 36 26 q 50 77 36 64 q 83 90 64 90 q 115 77 101 90 q 128 45 128 64 q 115 13 128 26 m 136 947 q 136 943 136 944 l 110 203 q 101 184 110 192 q 82 176 93 176 q 63 184 71 176 q 56 203 56 192 l 28 943 q 42 982 26 965 q 81 999 58 999 q 119 985 103 1000 q 136 947 136 969 z "},"\"":{"ha":300,"x_min":25,"x_max":274,"o":"m 38 985 q 44 994 38 985 q 72 1010 50 1004 q 115 1003 94 1015 q 140 968 135 992 q 140 943 143 956 l 113 828 q 100 810 110 817 q 79 807 90 804 q 58 828 63 811 l 31 943 q 38 985 25 965 m 272 964 q 272 943 274 953 l 244 800 q 233 782 242 789 q 213 778 224 775 q 190 800 193 782 l 163 943 q 172 984 158 965 q 207 1008 185 1003 q 248 999 229 1013 q 272 964 267 986 z "},"#":{"ha":925,"x_min":67,"x_max":817,"o":"m 777 363 q 782 365 777 363 q 798 363 788 367 q 813 348 808 358 q 813 326 817 338 q 631 263 778 243 l 622 -4 q 614 -23 622 -15 q 594 -31 606 -31 q 576 -22 583 -29 q 568 -4 568 -14 l 560 275 q 444 304 525 283 q 324 333 364 325 l 315 82 q 307 63 315 71 q 288 56 299 56 q 274 60 281 56 q 265 69 268 64 q 261 82 261 75 l 253 344 q 119 313 149 356 q 101 302 113 304 q 81 307 90 300 q 70 325 72 314 q 75 344 68 336 q 251 400 122 411 l 243 626 q 119 593 149 635 q 101 583 113 585 q 81 588 90 581 q 70 606 72 594 q 75 625 68 617 q 242 681 121 690 l 233 944 q 249 983 233 967 q 286 1001 264 1000 q 325 986 308 1001 q 343 947 342 971 q 343 944 343 946 l 333 668 q 450 640 374 660 q 550 614 526 619 l 542 890 q 556 930 540 914 q 594 947 571 946 q 622 940 608 947 q 642 921 635 933 q 650 894 650 908 q 650 890 650 893 l 642 597 q 763 628 743 583 q 777 643 767 639 q 798 643 788 647 q 813 628 808 639 q 813 607 817 618 q 639 542 778 526 l 632 317 q 763 347 743 301 q 777 363 767 358 m 325 389 q 450 359 368 381 q 558 332 532 338 l 551 558 q 482 575 522 564 q 402 596 442 586 q 332 613 363 606 l 325 389 z "},"$":{"ha":761,"x_min":67,"x_max":643,"o":"m 613 408 q 578 209 643 299 q 400 89 513 119 l 400 0 q 395 -17 400 -10 q 383 -30 390 -25 q 367 -35 375 -35 q 342 -25 351 -35 q 332 0 332 -15 l 332 79 q 230 94 276 78 q 153 142 183 111 q 101 211 122 172 q 74 294 79 250 q 72 383 68 339 q 94 466 76 426 q 143 533 113 506 q 181 548 158 549 q 219 532 204 547 q 234 496 233 517 q 222 460 235 475 q 210 444 211 446 q 169 349 178 403 q 174 249 160 296 q 228 169 188 201 q 332 136 269 136 l 332 558 q 252 620 279 589 q 218 700 225 651 q 242 815 210 767 q 332 881 274 863 l 332 944 q 342 968 332 958 q 366 978 351 978 q 390 968 381 978 q 400 944 400 958 l 400 886 q 531 807 490 876 q 557 706 549 774 q 545 665 560 683 q 507 644 531 647 q 458 663 478 640 q 449 715 439 686 q 451 725 450 721 q 456 756 457 742 q 450 783 456 771 q 431 806 444 796 q 400 822 418 817 l 400 613 q 538 534 488 579 q 613 408 588 489 m 332 642 l 332 821 q 284 777 299 807 q 274 718 269 747 q 294 669 278 689 q 332 642 307 654 m 400 146 q 467 192 440 160 q 501 259 493 224 q 513 330 510 294 q 507 383 515 365 l 507 385 q 483 441 497 417 q 449 483 468 465 q 400 519 429 501 l 400 146 z "},"%":{"ha":764,"x_min":61,"x_max":658,"o":"m 556 332 q 633 265 608 310 q 653 176 658 221 q 615 92 649 131 q 528 44 582 54 q 428 64 475 35 q 371 126 389 88 q 358 203 353 164 q 382 275 363 242 q 441 326 401 308 q 531 339 481 344 q 556 332 540 338 m 532 128 q 565 137 550 128 q 590 161 581 146 q 599 194 599 176 q 579 242 599 222 q 532 261 560 261 q 485 242 504 261 q 465 194 465 222 q 485 147 465 167 q 532 128 504 128 m 570 974 q 575 976 570 974 q 591 973 581 978 q 606 958 601 968 q 606 938 610 947 l 193 -11 q 168 -26 186 -26 q 157 -25 163 -26 q 143 -10 147 -21 q 143 11 139 1 l 556 958 q 570 974 560 969 m 242 608 q 217 606 225 606 q 140 628 176 606 q 78 708 93 657 q 77 804 63 758 q 137 880 92 850 q 243 901 182 910 q 268 894 254 900 q 336 845 311 878 q 365 776 361 813 q 357 703 368 739 q 315 642 346 668 q 242 608 283 615 m 197 805 q 188 795 197 805 q 178 757 178 785 q 197 710 178 729 q 244 690 217 690 q 292 710 272 690 q 311 757 311 729 q 292 805 311 785 q 244 825 272 825 q 197 805 217 825 z "},"&":{"ha":1138,"x_min":65,"x_max":1029,"o":"m 1001 317 q 1026 275 1024 301 q 1010 232 1028 249 q 851 145 944 165 q 664 151 757 125 q 572 36 631 82 q 450 -26 514 -10 q 319 -31 386 -42 q 198 13 251 -21 q 108 110 144 47 q 69 251 72 172 q 106 419 67 340 q 218 549 146 497 q 157 850 114 726 q 228 940 178 907 q 335 976 279 974 q 443 949 390 978 q 519 863 496 919 q 513 686 553 786 q 488 640 503 661 q 462 606 474 619 q 428 575 450 592 q 396 551 407 558 q 359 528 385 543 q 325 507 333 513 q 471 342 390 414 q 608 246 551 271 q 579 389 618 324 q 574 431 568 410 q 599 465 579 453 q 640 471 618 476 q 674 446 663 465 q 689 404 682 433 q 700 324 696 375 q 690 222 704 274 q 821 228 757 211 q 919 292 885 244 q 926 301 926 301 q 961 325 939 321 q 1001 317 983 329 m 306 904 q 242 865 265 892 q 215 801 219 838 q 219 724 211 764 q 246 640 228 683 q 275 583 258 614 q 318 606 288 590 q 360 628 349 622 q 392 651 371 635 q 424 681 414 667 q 444 718 433 694 q 463 771 456 742 q 428 881 476 838 q 306 904 379 925 m 232 99 q 346 35 275 46 q 486 61 417 24 q 589 178 556 99 q 344 379 482 226 q 272 468 306 422 q 200 371 226 428 q 178 256 176 317 q 232 99 182 161 z "},"'":{"ha":194,"x_min":24,"x_max":140,"o":"m 138 964 q 138 943 140 953 l 111 800 q 99 782 108 789 q 78 778 89 775 q 56 800 60 782 l 29 943 q 38 984 25 965 q 73 1008 50 1003 q 115 999 96 1013 q 138 964 133 986 z "},"(":{"ha":454,"x_min":0,"x_max":400,"o":"m 333 907 q 232 834 276 885 q 163 717 188 783 q 127 573 138 650 q 122 416 117 496 q 150 264 128 336 q 226 115 176 179 q 347 31 276 50 q 375 25 358 28 q 392 15 386 24 q 397 -6 399 6 q 372 -29 394 -28 q 219 12 292 -35 q 97 139 146 58 q 24 333 47 219 q 15 565 0 446 q 51 708 24 636 q 123 842 79 781 q 233 940 167 904 q 374 972 299 976 q 392 963 385 971 q 399 943 400 954 q 376 918 397 921 q 333 907 353 914 z "},")":{"ha":456,"x_min":54,"x_max":454,"o":"m 82 971 q 233 932 161 978 q 356 806 306 886 q 431 612 407 725 q 439 378 454 499 q 402 232 431 304 q 330 99 374 160 q 221 1 286 38 q 81 -29 156 -35 q 63 -19 69 -28 q 56 0 56 -11 q 78 25 57 21 q 236 126 172 42 q 321 322 300 211 q 329 555 342 433 q 268 765 317 676 q 195 863 235 826 q 97 914 156 899 q 81 917 96 915 q 62 928 68 919 q 57 949 56 938 q 82 971 60 969 z "},"*":{"ha":529,"x_min":78,"x_max":451,"o":"m 401 758 q 428 724 422 746 q 422 682 433 701 q 387 657 410 663 q 344 663 364 651 q 331 675 338 668 q 299 718 325 682 q 292 726 294 724 q 286 735 290 729 q 279 744 282 740 q 272 754 276 749 q 264 765 268 760 l 200 678 q 163 656 186 660 q 122 666 140 653 q 99 702 103 679 q 110 743 96 725 q 163 781 117 753 q 201 803 186 794 l 121 831 q 90 858 100 838 q 86 901 79 879 q 114 933 93 922 q 157 935 135 943 q 162 933 160 935 q 166 931 164 932 q 171 928 168 931 q 176 924 174 926 q 183 917 178 922 q 193 909 189 913 q 206 898 197 906 q 222 883 214 890 l 210 944 q 218 986 206 967 q 253 1010 231 1006 q 303 994 282 1015 q 318 944 325 974 l 306 883 l 353 924 q 392 938 369 939 q 431 919 415 936 q 443 869 450 897 q 407 831 436 840 l 328 803 l 401 758 z "},"+":{"ha":746,"x_min":110,"x_max":636,"o":"m 608 263 q 627 254 619 263 q 635 235 635 246 q 631 222 635 228 q 622 211 628 215 q 608 207 615 207 l 428 208 l 428 0 q 420 -28 428 -15 q 400 -47 413 -40 q 372 -54 388 -54 q 334 -38 350 -54 q 318 0 318 -22 l 318 208 l 139 208 q 119 216 126 208 q 111 235 111 224 q 119 254 111 246 q 139 263 126 263 l 318 263 l 319 469 q 335 508 319 492 q 374 524 351 524 q 412 508 396 524 q 428 469 428 492 l 428 263 l 608 263 z "},",":{"ha":224,"x_min":50,"x_max":169,"o":"m 164 32 q 167 1 169 19 q 100 -125 158 -87 q 79 -128 90 -131 q 63 -117 68 -125 q 65 -82 54 -104 q 70 -44 72 -62 q 63 -14 68 -26 q 59 33 50 10 q 93 67 68 57 q 122 68 108 71 q 148 56 136 65 q 164 32 160 46 z "},"-":{"ha":483,"x_min":110,"x_max":372,"o":"m 344 263 q 364 254 356 263 q 372 235 372 246 q 364 215 372 224 q 344 207 356 207 l 139 207 q 119 215 126 207 q 111 235 111 224 q 119 254 111 246 q 139 263 126 263 l 344 263 z "},".":{"ha":208,"x_min":54,"x_max":154,"o":"m 139 -33 q 132 -41 139 -33 q 105 -49 125 -49 q 70 -35 85 -49 q 56 -1 56 -21 q 69 34 56 19 q 103 49 83 49 q 138 36 124 50 q 153 2 153 22 q 139 -33 153 -18 z "},"/":{"ha":585,"x_min":67,"x_max":519,"o":"m 478 969 q 484 972 478 969 q 499 969 489 974 q 514 955 510 965 q 514 933 518 944 l 122 -10 q 97 -26 115 -26 q 86 -25 92 -26 q 72 -10 76 -21 q 72 11 67 0 l 464 954 q 478 969 468 965 z "},":":{"ha":233,"x_min":54,"x_max":179,"o":"m 118 404 q 74 422 93 404 q 56 464 56 439 q 73 508 56 489 q 115 526 90 526 q 158 509 140 526 q 178 467 176 492 q 170 436 178 450 q 149 414 163 422 q 118 404 135 406 m 160 -42 q 152 -51 160 -42 q 118 -60 143 -60 q 74 -44 93 -61 q 56 -1 56 -26 q 73 42 56 24 q 115 60 90 60 q 158 44 140 61 q 177 1 176 26 q 160 -42 178 -24 z "},";":{"ha":235,"x_min":54,"x_max":181,"o":"m 100 63 q 142 58 122 69 q 169 25 163 47 q 169 -17 172 14 q 108 -129 158 -94 q 83 -135 97 -137 q 61 -122 69 -133 q 56 -106 57 -114 q 58 -92 56 -97 q 63 -80 60 -86 q 67 -72 67 -74 q 63 -6 76 -50 q 68 37 57 17 q 100 63 79 57 m 163 424 q 155 415 163 424 q 120 405 146 406 q 76 422 94 404 q 58 464 58 439 q 74 508 57 489 q 117 526 92 526 q 160 509 142 526 q 180 467 179 492 q 163 424 181 442 z "},"<":{"ha":574,"x_min":110,"x_max":463,"o":"m 218 271 l 446 39 q 462 -1 463 22 q 445 -39 461 -24 q 406 -54 429 -54 q 368 -37 383 -54 l 119 217 q 111 237 111 225 q 119 257 111 249 q 121 258 121 258 l 140 275 l 382 486 q 401 492 390 493 q 420 483 413 492 q 427 464 428 475 q 418 444 426 453 l 218 271 z "},"=":{"ha":597,"x_min":125,"x_max":472,"o":"m 443 161 q 463 153 454 161 q 471 135 471 146 q 463 115 471 124 q 443 107 454 107 l 153 107 q 134 115 142 107 q 126 135 126 124 q 134 153 126 146 q 153 161 142 161 l 443 161 m 153 244 q 143 246 147 244 q 136 250 139 247 q 131 256 133 253 q 126 263 128 258 q 125 272 125 267 q 133 291 125 283 q 153 299 140 299 l 444 299 q 463 291 456 299 q 471 272 471 283 q 467 258 471 264 q 458 248 464 251 q 444 244 451 244 l 153 244 z "},">":{"ha":574,"x_min":110,"x_max":463,"o":"m 451 258 q 462 238 461 250 q 454 218 463 226 q 453 217 454 218 l 204 -37 q 166 -54 189 -54 q 127 -39 143 -54 q 111 -1 111 -24 q 126 39 111 22 l 354 271 l 154 444 q 145 464 146 453 q 152 483 144 475 q 171 492 160 492 q 190 486 182 493 l 432 275 l 451 258 z "},"?":{"ha":801,"x_min":68,"x_max":665,"o":"m 376 14 q 369 7 376 14 q 343 0 363 0 q 310 14 324 0 q 297 47 297 28 q 310 79 297 65 q 343 93 324 93 q 376 79 363 93 q 389 47 389 65 q 376 14 389 28 m 368 972 q 480 953 426 974 q 573 895 533 932 q 636 808 613 858 q 663 702 660 757 q 640 588 665 647 q 564 475 615 528 q 538 451 551 463 q 511 432 525 440 q 486 417 497 424 q 462 406 475 411 q 441 397 449 400 q 421 390 433 394 q 404 383 408 385 q 380 372 385 376 q 374 358 375 367 q 369 210 365 276 q 363 189 369 197 q 344 181 356 181 q 323 188 332 179 q 315 210 314 197 q 314 354 317 229 q 333 416 314 394 q 394 459 353 438 q 457 503 435 481 q 510 567 485 528 q 543 633 535 607 q 552 718 560 671 q 526 806 544 765 q 467 878 507 847 q 376 914 426 908 q 280 902 324 918 q 210 858 236 886 q 169 795 183 829 q 156 726 154 761 q 175 665 158 690 q 179 660 176 664 q 185 617 190 640 q 160 583 179 594 q 109 580 136 568 q 78 621 82 592 q 69 697 68 668 q 154 888 75 807 q 368 972 233 968 z "},"@":{"ha":1108,"x_min":-11,"x_max":999,"o":"m 997 488 q 993 445 997 478 q 974 354 989 413 q 938 250 960 296 q 769 52 879 122 q 517 -29 660 -18 q 99 133 238 -51 q 8 490 -11 279 q 153 835 26 694 q 540 974 306 1003 q 568 969 554 972 q 689 919 636 957 q 772 829 742 882 q 822 713 803 776 q 841 583 840 649 q 835 451 842 517 q 794 314 822 369 q 733 239 767 258 q 663 219 699 219 q 599 242 628 219 q 554 299 569 264 q 388 200 482 201 q 244 279 299 199 q 206 520 182 381 q 314 746 229 660 q 486 824 410 831 q 605 755 563 817 q 617 639 647 693 q 664 639 640 656 q 682 594 688 622 q 675 571 681 589 q 651 444 657 506 q 647 347 644 382 q 660 299 650 311 q 678 288 665 292 q 704 288 690 283 q 771 381 743 304 q 796 568 799 458 q 749 767 793 678 q 572 904 688 890 q 321 851 431 924 q 228 765 269 819 q 158 647 186 711 q 118 513 131 583 q 108 373 106 442 q 135 241 111 304 q 199 130 158 178 q 306 53 239 82 q 460 24 374 25 q 635 53 554 24 q 774 140 715 83 q 863 285 832 197 q 888 482 893 372 q 891 503 888 493 q 901 521 894 513 q 919 533 908 529 q 940 539 929 538 q 979 525 963 540 q 997 488 996 510 m 565 658 q 553 708 571 685 q 507 738 536 731 q 439 725 478 744 q 351 625 385 693 q 311 488 318 557 q 317 357 304 418 q 363 275 331 296 q 399 262 378 264 q 444 268 421 260 q 493 302 468 276 q 538 369 518 328 q 565 658 531 492 z "},"A":{"ha":1138,"x_min":-25,"x_max":1097,"o":"m 1084 -158 q 1089 -162 1084 -158 q 1095 -176 1093 -165 q 1090 -197 1097 -187 q 1072 -207 1083 -206 q 1039 -206 1067 -208 q 969 -186 1000 -203 q 919 -139 939 -169 q 883 -76 899 -108 q 860 4 868 -43 q 849 90 853 51 q 844 183 844 129 q 846 272 844 238 q 850 356 847 306 q 586 361 707 319 q 569 176 578 242 q 461 -42 551 42 q 231 -125 371 -125 q 48 -32 121 -125 q -7 197 -25 61 q 61 360 6 294 q 186 449 117 426 q 325 457 256 472 q 456 371 414 438 q 476 192 497 304 q 475 186 476 189 q 452 146 472 161 q 407 133 432 131 q 367 156 382 136 q 354 201 351 176 q 374 240 357 222 q 399 289 393 261 q 396 344 406 317 q 351 391 383 374 q 280 406 319 408 q 202 385 240 404 q 135 315 164 365 q 101 194 107 265 q 125 34 93 101 q 233 -49 157 -33 l 281 -54 q 379 -32 335 -53 q 439 13 411 -15 q 515 144 496 68 q 544 379 533 221 q 426 476 471 415 q 369 607 382 536 q 365 646 367 624 q 376 690 361 672 q 414 710 392 708 q 464 690 444 714 q 474 638 483 667 q 477 527 456 582 q 549 438 499 472 q 550 469 549 447 q 556 550 554 522 q 563 626 558 578 q 574 703 568 675 q 589 770 579 731 q 612 834 599 810 q 642 885 625 858 q 683 928 660 911 q 735 956 706 944 q 808 970 774 969 q 874 954 842 971 q 931 902 907 938 q 971 805 956 867 q 989 658 986 743 q 972 321 990 542 q 963 -15 954 100 q 1031 -151 969 -135 q 1064 -153 1046 -156 q 1084 -158 1075 -151 m 853 413 q 857 476 854 435 q 865 795 875 689 q 794 904 856 901 q 746 898 768 904 q 706 876 724 892 q 675 843 689 860 q 650 798 661 826 q 631 746 639 769 q 616 685 622 722 q 606 621 610 647 q 598 551 601 594 q 593 482 594 507 q 589 413 592 457 q 666 388 626 394 q 738 385 706 382 q 794 393 769 388 q 835 406 818 399 q 853 413 853 413 z "},"B":{"ha":1083,"x_min":-11,"x_max":1000,"o":"m 719 549 q 932 404 864 535 q 954 124 999 278 q 743 -140 906 -50 q 546 -204 657 -189 q 110 -117 257 -244 q 107 -114 110 -117 q 103 -110 104 -111 q 89 -96 92 -99 q 64 -67 76 -83 q 25 0 40 -36 q -8 156 -7 72 q 22 315 -10 239 q 114 439 54 392 q 159 453 138 456 q 194 432 181 450 q 204 385 211 411 q 172 347 197 358 q 97 279 128 328 q 61 169 67 231 q 70 45 56 107 q 136 -67 85 -17 q 267 -137 188 -118 q 390 -150 317 -151 l 390 -149 q 532 -131 471 -146 q 775 6 690 -94 q 863 243 860 107 q 840 353 864 299 q 774 433 817 407 q 710 461 744 453 q 620 458 675 469 q 511 407 565 447 q 493 74 519 158 q 478 32 488 53 q 404 -62 446 -36 q 300 -97 363 -89 q 278 -92 286 -99 q 268 -74 269 -85 q 276 -50 267 -60 q 300 -43 286 -40 q 306 -43 301 -43 q 393 24 375 -47 q 401 94 400 47 q 399 194 401 140 q 395 312 397 249 q 395 440 393 375 q 404 565 397 506 q 429 680 411 625 q 475 771 447 735 q 497 795 486 785 q 523 814 508 806 q 543 825 538 822 q 565 836 549 828 q 586 837 575 840 q 601 822 597 833 q 601 799 607 811 q 582 785 594 786 q 526 739 544 776 q 508 648 508 701 q 508 531 507 594 q 508 503 508 511 q 538 522 515 506 q 585 560 560 539 q 621 593 611 581 q 683 758 679 667 l 683 757 q 663 841 685 806 q 603 891 640 876 q 520 908 567 906 q 426 894 474 911 q 339 844 374 876 q 292 776 304 811 q 285 706 279 740 q 313 647 290 671 q 318 642 317 643 q 342 599 340 624 q 328 558 343 574 q 281 542 308 539 q 239 568 253 544 q 226 590 228 588 q 201 689 203 638 q 220 788 200 740 q 284 876 240 836 q 389 940 328 917 q 525 965 457 964 q 650 946 593 965 q 745 881 707 926 q 789 768 783 835 q 719 549 800 651 z "},"C":{"ha":963,"x_min":-11,"x_max":1000,"o":"m 976 236 q 993 224 988 233 q 996 203 999 214 q 942 50 972 115 q 869 -73 913 -15 q 763 -165 825 -131 q 619 -208 700 -199 q 358 -137 467 -226 q 245 21 286 -79 q 194 221 204 121 q 194 426 183 321 q 66 531 115 463 q -1 689 17 599 q -10 786 -10 729 q 6 825 -10 808 q 44 842 22 842 q 88 821 71 842 q 99 774 104 800 q 106 606 76 682 q 201 488 136 529 q 240 643 214 568 q 379 874 288 779 q 593 976 471 969 q 596 976 594 976 q 726 941 672 979 q 799 843 779 903 q 804 708 818 783 q 740 564 790 632 q 660 484 707 518 q 567 433 614 450 q 469 404 519 415 q 376 394 418 393 q 297 399 333 396 q 292 267 293 333 q 304 133 290 200 q 341 13 318 67 q 408 -82 364 -42 q 511 -139 451 -122 q 578 -148 542 -147 q 654 -142 614 -149 q 735 -115 694 -136 q 811 -61 776 -94 q 943 215 901 29 q 956 233 946 226 q 976 236 965 239 m 425 778 q 304 450 335 642 q 444 449 375 440 q 560 478 514 457 q 699 585 644 514 q 761 756 753 657 q 754 813 764 783 q 722 869 744 843 q 665 906 700 896 q 582 904 631 915 q 425 778 497 883 z "},"D":{"ha":1194,"x_min":-12,"x_max":1088,"o":"m 306 -42 q 343 -40 324 -44 q 383 -21 363 -36 q 413 19 403 -6 q 426 106 424 49 q 425 228 428 163 q 420 368 422 293 q 424 515 418 443 q 447 651 431 588 q 501 764 463 715 q 597 835 539 813 q 608 839 606 838 q 630 839 619 843 q 644 824 640 835 q 644 803 649 814 q 629 788 640 792 q 621 786 626 786 q 576 765 594 781 q 550 720 558 749 q 538 659 542 692 q 534 577 533 626 q 536 483 535 528 q 539 373 538 438 q 539 256 540 308 q 537 198 538 214 q 534 153 536 182 q 528 105 532 125 q 515 64 524 85 q 488 6 504 32 q 454 -35 472 -19 q 421 -62 436 -51 q 384 -80 406 -74 q 352 -89 363 -86 q 324 -94 342 -92 q 304 -96 306 -96 q 284 -90 293 -97 q 272 -72 275 -83 q 281 -49 271 -58 q 306 -42 290 -39 m 1003 765 q 1060 628 1039 706 q 1083 469 1081 551 q 1069 300 1086 386 q 1017 135 1051 214 q 922 -11 982 57 q 785 -127 863 -79 q 602 -197 708 -175 q 372 -210 496 -219 q 364 -208 368 -208 q 193 -157 268 -197 q 75 -61 118 -117 q 10 62 32 -6 q -9 195 -12 129 q 19 322 -6 261 q 88 424 44 382 q 127 438 104 439 q 165 421 150 438 q 180 374 185 401 q 150 333 175 346 q 94 282 117 317 q 64 203 71 247 q 63 110 57 160 q 93 15 68 61 q 156 -67 118 -31 q 256 -124 193 -103 q 396 -143 318 -146 q 738 -40 601 -137 q 944 258 874 58 q 956 593 1001 424 q 772 876 899 804 q 467 885 644 947 q 370 831 410 865 q 313 757 331 796 q 292 681 296 718 q 298 615 288 643 q 328 576 308 586 q 362 542 353 565 q 360 500 371 519 q 321 470 347 475 q 275 482 294 465 q 263 492 264 492 q 210 594 221 531 q 220 722 200 657 q 297 845 240 786 q 435 933 353 904 q 657 969 553 971 q 851 916 761 968 q 1003 765 942 864 z "},"E":{"ha":771,"x_min":-4,"x_max":808,"o":"m 783 236 q 801 224 794 235 q 804 203 807 214 q 417 -219 694 -183 q 225 -185 313 -233 q 112 -76 156 -146 q 56 72 68 -7 q 58 234 43 151 q 111 383 72 317 q 219 494 150 450 q 374 542 288 539 q 342 576 356 560 q 195 579 263 561 q 86 638 128 597 q 22 728 44 679 q -3 828 -1 778 q -1 854 -3 836 q 15 892 -1 876 q 55 906 32 907 q 93 888 78 906 q 107 849 108 871 q 104 832 107 843 q 106 772 97 806 q 136 707 114 739 q 202 654 158 675 q 301 636 246 633 q 268 749 274 689 q 283 863 263 808 q 350 950 304 918 q 526 961 436 1008 q 617 844 600 922 q 529 658 639 740 q 419 600 483 625 q 447 556 431 576 q 468 526 463 536 q 471 503 474 515 q 458 486 468 493 q 432 482 449 479 l 401 488 q 215 396 282 493 q 186 340 199 371 q 160 222 165 289 q 165 85 154 154 q 217 -43 176 15 q 321 -126 257 -101 q 399 -140 358 -139 q 630 -36 540 -133 q 751 215 719 61 q 763 233 754 226 q 783 236 772 239 m 428 896 q 383 832 394 876 q 378 745 372 788 q 397 656 383 703 q 564 794 547 706 q 526 888 574 853 q 429 896 479 924 l 428 896 z "},"F":{"ha":832,"x_min":-15,"x_max":932,"o":"m 581 267 q 594 251 590 263 q 592 231 597 240 q 576 217 588 221 q 556 218 565 214 q 411 211 518 238 q 408 100 410 139 q 393 6 406 61 q 356 -94 381 -50 q 317 -151 338 -129 q 272 -183 296 -172 q 231 -198 247 -194 q 188 -206 215 -201 q 174 -204 181 -207 q 162 -196 167 -201 q 157 -183 157 -190 q 164 -159 154 -169 q 188 -151 174 -149 q 265 -124 235 -160 q 296 -34 290 -94 q 294 182 301 26 q 128 231 164 157 q 126 251 122 240 q 140 267 131 263 q 161 269 150 272 q 176 254 172 265 q 293 238 196 217 q 297 507 289 393 q 336 708 304 621 q 366 772 350 746 q 401 815 382 799 q 433 840 419 832 q 469 858 447 849 q 490 860 479 864 q 506 846 501 856 q 506 822 511 833 q 488 807 500 810 q 447 786 463 801 q 422 742 431 771 q 408 682 413 713 q 404 601 404 651 q 406 506 404 550 q 409 392 407 463 q 411 267 411 322 q 581 267 526 294 m 904 979 q 928 926 932 960 q 892 879 924 892 q 882 875 889 878 q 744 844 813 847 q 617 854 676 840 q 502 885 557 868 q 381 915 447 903 q 257 922 315 926 l 256 922 l 254 922 q 211 914 229 918 q 74 819 115 892 q 60 681 32 746 q 167 611 88 615 q 185 611 171 611 q 224 595 207 611 q 240 557 240 579 q 217 510 240 528 q 163 506 194 493 q 54 570 97 528 q -2 660 11 613 q -5 760 -15 708 q 36 855 6 813 q 122 928 67 897 q 246 965 176 958 q 361 961 297 969 q 475 940 425 953 q 582 915 525 926 q 676 903 639 903 q 824 965 778 901 q 861 989 838 985 q 904 979 885 993 z "},"G":{"ha":1049,"x_min":-10,"x_max":938,"o":"m 903 653 q 922 592 913 638 q 934 479 931 546 q 934 336 938 413 q 913 179 931 260 q 867 28 896 99 q 788 -100 839 -43 q 668 -185 736 -157 q 580 -207 624 -203 q 494 -198 536 -211 q 418 -156 451 -185 q 362 -75 385 -126 q 332 44 339 -24 l 331 58 q 343 104 328 86 q 382 125 358 122 q 433 101 414 128 q 438 43 453 74 q 424 -44 418 0 q 457 -114 429 -87 q 528 -149 485 -140 q 628 -133 572 -158 q 640 -128 633 -131 q 730 -41 692 -101 q 788 99 768 19 q 817 247 807 178 q 829 389 826 315 q 758 263 797 314 q 630 160 706 190 q 481 146 554 131 q 341 226 407 161 q 243 394 275 290 q 59 506 128 421 q 1 710 -10 592 l 3 722 q 23 760 6 746 q 63 771 40 774 q 102 749 88 769 q 110 703 117 728 q 101 664 103 681 q 131 552 97 603 q 226 474 165 501 q 245 713 208 597 q 367 902 282 828 q 564 978 453 976 q 594 976 592 978 q 725 921 675 971 q 786 803 775 871 q 773 658 797 735 q 692 524 749 582 q 532 426 633 467 q 336 385 431 385 q 409 248 356 299 q 524 193 463 197 q 649 237 586 189 q 750 381 713 285 q 779 469 765 419 q 798 549 789 506 q 813 618 807 593 q 822 651 818 643 q 828 660 824 654 q 847 671 833 665 q 876 672 860 676 q 890 666 885 669 q 897 660 896 663 q 900 656 899 658 q 903 653 901 654 m 581 907 q 451 849 506 897 q 369 733 396 801 q 331 590 342 664 q 326 447 319 517 q 531 482 422 439 q 706 618 656 531 q 738 719 732 665 q 729 817 743 772 q 676 887 715 861 q 581 907 636 913 z "},"H":{"ha":1153,"x_min":-22,"x_max":1072,"o":"m 1051 969 q 1056 967 1051 969 q 1066 955 1061 965 q 1067 934 1071 944 q 1053 918 1064 924 q 1043 915 1051 918 q 1024 907 1035 913 q 966 810 982 882 q 954 638 950 738 q 961 406 958 538 q 958 129 964 274 q 938 -1 954 61 q 881 -119 921 -64 q 786 -193 842 -175 q 725 -206 764 -201 q 704 -199 713 -207 q 694 -181 696 -192 q 700 -160 693 -169 q 718 -151 707 -151 q 728 -151 719 -150 q 745 -151 736 -151 q 765 -149 754 -151 q 789 -138 776 -146 q 811 -118 801 -131 q 847 -8 840 -83 q 846 225 853 68 q 711 241 778 214 q 550 326 644 268 q 549 205 551 257 q 535 89 546 153 q 496 -28 524 25 q 424 -124 468 -82 q 267 -199 356 -190 q 101 -156 178 -208 q -3 -1 25 -103 q -6 138 -21 69 q 113 308 18 240 q 154 319 132 322 q 189 296 176 315 q 198 249 206 275 q 165 214 190 224 q 89 154 117 193 q 58 72 61 115 q 69 -15 54 29 q 115 -92 85 -60 q 189 -140 144 -125 q 282 -140 233 -154 q 378 -69 347 -124 q 425 71 410 -14 q 435 155 432 115 q 438 214 438 194 q 434 300 438 233 q 429 400 431 367 q 207 446 290 476 q 182 433 194 440 q 140 428 161 422 q 106 453 118 433 q 101 496 94 474 q 126 529 107 518 q 168 540 138 535 q 237 543 206 544 q 301 531 268 542 q 364 507 335 521 q 426 472 393 493 q 425 588 426 526 q 433 713 424 650 q 458 829 443 776 q 508 919 474 882 q 592 967 543 957 q 617 969 596 967 q 631 968 625 971 q 642 959 638 965 q 647 946 647 953 q 641 924 650 933 q 617 915 632 914 q 558 895 579 918 q 533 812 538 872 q 530 703 528 751 q 539 550 532 654 q 549 389 546 444 q 585 363 572 372 q 621 340 599 354 q 659 316 643 325 q 696 297 675 307 q 734 281 717 286 q 771 272 751 276 q 808 269 790 268 q 844 274 826 269 q 841 433 839 340 q 850 614 843 526 q 883 784 857 701 q 951 913 908 867 q 1031 968 979 944 q 1051 969 1040 972 z "},"I":{"ha":501,"x_min":-19,"x_max":474,"o":"m 446 -153 q 451 -153 446 -153 q 465 -161 457 -153 q 472 -181 472 -169 q 464 -200 472 -192 q 393 -233 433 -231 q 315 -222 353 -236 q 240 -194 278 -208 q 163 -180 201 -179 q 97 -208 125 -181 q 78 -216 89 -217 q 58 -208 67 -215 q 51 -188 50 -200 q 60 -169 51 -176 q 127 -129 90 -139 q 197 -126 164 -119 q 264 -145 229 -133 q 326 -168 299 -157 q 381 -178 354 -179 q 426 -161 408 -178 q 446 -153 435 -153 m 146 906 q 28 883 72 926 q 8 876 19 876 q -10 885 -3 876 q -18 904 -18 893 q -10 924 -18 915 q 161 958 57 988 q 188 949 165 957 q 231 934 210 942 q 254 926 253 926 q 313 913 286 913 q 358 932 339 914 q 377 939 365 939 q 397 931 389 939 q 404 912 404 924 q 396 893 404 900 q 253 869 343 842 q 254 513 253 669 q 256 305 256 356 q 256 194 257 254 q 250 46 254 135 q 264 -44 249 -17 q 325 -76 285 -85 q 345 -81 336 -75 q 357 -99 354 -87 q 351 -123 360 -112 q 325 -131 342 -133 q 237 -96 269 -124 q 178 -8 204 -68 q 143 150 149 60 q 143 463 138 240 q 144 577 144 504 q 144 720 144 650 q 144 845 144 790 q 146 906 144 900 z "},"J":{"ha":900,"x_min":-8,"x_max":790,"o":"m 756 969 q 761 970 756 969 q 776 965 767 971 q 787 947 785 958 q 783 928 789 936 q 700 865 754 888 q 700 310 711 582 q 369 -200 681 -121 q 237 -195 304 -215 q 115 -126 169 -175 q 26 6 60 -78 q -7 192 -8 89 q 52 397 -3 310 q 190 519 107 483 q 363 538 272 556 q 404 524 386 532 q 440 501 424 514 q 467 474 456 488 q 486 441 478 460 q 499 407 494 422 q 508 369 504 392 q 513 333 511 347 q 517 296 514 318 q 517 283 517 288 q 503 242 518 260 q 464 223 488 225 q 423 237 440 221 q 404 276 406 253 q 405 291 403 285 q 411 308 407 297 q 418 328 415 318 q 425 356 422 343 q 339 486 442 469 q 283 486 300 492 q 184 434 225 476 q 126 333 143 392 q 102 207 108 275 q 108 78 96 139 q 200 -108 128 -50 q 356 -147 272 -167 q 475 -86 421 -133 q 548 15 522 -44 q 582 150 574 74 q 591 328 590 226 q 589 558 592 431 q 590 846 586 686 q 454 869 535 846 q 335 892 378 889 q 281 890 292 896 q 258 871 271 885 q 219 855 242 856 q 181 870 197 854 q 164 908 164 886 q 179 947 164 931 q 272 991 215 985 q 371 985 328 997 q 474 953 414 974 q 551 928 533 932 q 659 921 618 914 q 719 943 700 928 l 738 958 q 756 969 744 968 z "},"K":{"ha":789,"x_min":-1,"x_max":790,"o":"m 788 -176 q 782 -197 789 -187 q 764 -207 775 -206 q 728 -205 758 -208 q 678 -196 699 -201 q 632 -171 653 -187 q 597 -137 611 -154 q 574 -92 583 -119 q 559 -46 564 -65 q 551 6 554 -26 q 548 53 549 39 q 547 99 547 68 q 546 133 546 129 q 472 319 543 254 q 288 383 401 385 q 278 92 286 178 q 219 -92 265 -11 q 93 -197 174 -174 q 31 -208 76 -203 q 10 -203 19 -210 q 0 -185 1 -196 q 6 -165 -1 -174 q 24 -154 13 -156 q 31 -153 25 -153 q 44 -154 38 -154 q 60 -154 50 -154 q 100 -141 82 -151 q 130 -117 118 -131 q 150 -82 142 -104 q 163 -42 158 -60 q 169 5 167 -25 q 171 51 171 35 q 171 99 171 68 q 171 125 171 117 q 170 194 171 172 q 169 235 169 217 q 170 365 168 253 q 179 700 172 476 q 117 918 185 915 q 110 917 114 918 l 107 917 q 87 922 96 915 q 75 940 78 929 q 78 956 75 949 q 89 967 82 963 q 104 971 96 972 l 106 971 l 114 971 q 202 923 171 967 q 253 806 233 879 q 288 458 286 683 q 380 504 336 479 q 465 563 424 529 q 538 633 507 596 q 587 717 568 671 q 607 811 606 763 q 607 828 607 818 q 613 847 606 839 q 632 857 621 856 q 653 849 644 857 q 661 828 661 840 q 357 439 653 596 q 553 360 476 428 q 650 176 631 292 q 651 158 651 167 q 655 40 656 94 q 654 -53 654 -14 q 669 -117 654 -92 q 721 -151 685 -143 q 757 -153 740 -156 q 768 -153 763 -151 q 777 -158 774 -156 q 783 -166 781 -161 q 788 -176 786 -171 z "},"L":{"ha":667,"x_min":-18,"x_max":796,"o":"m 722 -71 q 733 -68 722 -71 q 765 -78 744 -65 q 790 -113 785 -90 q 782 -157 794 -136 q 758 -178 775 -168 q 699 -206 726 -196 q 643 -215 672 -215 q 592 -212 614 -215 q 535 -195 571 -210 q 477 -169 500 -181 q 406 -134 454 -158 q 326 -93 358 -110 q 189 -207 256 -214 q 126 -140 136 -200 q 158 -28 115 -75 q 263 1 197 17 q 308 199 299 96 q 307 403 318 301 q 150 393 226 376 q 15 464 74 410 q 0 478 8 471 q -17 517 -15 494 q -2 556 -18 539 q 36 573 14 572 q 75 558 58 574 q 85 547 76 557 q 103 526 93 536 q 130 503 113 517 q 167 482 147 489 q 215 470 186 475 q 274 472 243 465 q 300 479 286 475 q 293 544 299 496 q 285 614 288 593 q 281 670 283 635 q 279 732 279 706 q 282 785 279 758 q 305 874 288 835 q 345 936 322 914 q 396 969 368 958 q 451 978 424 981 q 500 961 478 975 q 579 835 564 922 q 553 644 594 747 q 424 468 513 542 q 353 -42 456 169 q 583 -143 519 -136 q 610 -144 597 -144 q 686 -97 658 -142 q 722 -71 699 -76 m 400 881 q 387 845 392 865 q 381 806 382 825 q 383 754 379 788 q 390 697 386 721 q 402 624 394 672 q 414 543 410 576 q 497 647 464 588 q 535 768 529 707 q 508 878 542 829 q 453 915 483 915 q 400 881 425 915 m 203 -112 q 233 -62 217 -96 q 209 -81 217 -65 q 203 -112 201 -96 z "},"M":{"ha":1294,"x_min":-14,"x_max":1268,"o":"m 326 863 q 378 799 356 843 q 412 702 400 756 q 429 602 424 649 q 436 511 435 556 q 425 83 443 322 q 374 -101 418 -24 q 242 -199 329 -178 q 185 -207 222 -203 q 165 -201 174 -208 q 154 -183 156 -194 q 160 -163 153 -172 q 179 -153 168 -154 q 188 -153 181 -153 q 207 -154 196 -154 q 229 -150 218 -154 q 265 -135 250 -146 q 290 -108 281 -125 q 303 -75 299 -90 q 311 -32 308 -60 q 315 13 314 -4 q 315 61 315 29 q 315 88 315 79 q 315 113 315 99 q 320 344 314 222 q 332 540 326 467 q 338 681 338 614 q 326 782 339 749 q 285 824 313 815 q 268 838 274 828 q 265 858 263 847 q 281 876 269 871 q 304 875 293 881 q 326 863 321 865 m 1265 -169 q 1258 -192 1267 -183 q 1235 -200 1249 -201 q 1217 -199 1231 -200 q 1197 -196 1204 -197 q 1176 -192 1190 -194 q 1151 -184 1161 -189 q 1128 -172 1142 -179 q 1104 -153 1115 -164 q 1082 -126 1093 -142 q 1061 -90 1071 -111 q 1044 -43 1051 -69 q 1028 34 1033 -6 q 1017 190 1022 74 q 1018 490 1013 306 q 1039 868 1022 733 q 915 724 969 817 q 836 551 861 632 q 790 392 811 471 q 760 296 768 313 q 713 267 742 264 q 685 279 697 268 q 660 321 674 290 q 635 384 647 351 q 600 482 624 417 q 553 607 576 547 q 533 657 539 642 q 512 705 526 672 q 489 753 497 738 q 465 795 481 768 q 438 835 450 822 q 408 866 425 847 q 374 892 392 885 q 337 907 357 900 q 294 913 317 914 q 246 906 271 913 q 144 851 186 890 q 85 766 101 813 q 70 674 69 719 q 95 593 71 628 q 161 549 119 558 q 195 525 183 544 q 201 483 207 506 q 172 446 196 457 q 119 449 149 435 q 49 503 78 469 q 1 590 15 542 q -7 685 -12 638 q 19 780 -1 732 q 75 865 40 828 q 153 928 110 901 q 248 963 196 956 q 354 960 300 971 q 426 932 392 951 q 525 854 481 901 q 599 758 569 807 q 655 643 629 710 q 695 524 681 576 q 725 401 710 471 q 751 471 729 411 q 781 550 774 531 q 812 624 789 569 q 850 706 835 679 q 892 778 865 732 q 942 853 918 824 q 999 915 967 882 q 1068 972 1032 947 q 1094 979 1079 982 q 1118 964 1110 976 q 1124 947 1124 956 q 1136 714 1136 801 q 1134 360 1138 528 q 1127 122 1131 192 q 1126 -3 1124 51 q 1142 -87 1129 -57 q 1181 -134 1156 -119 q 1236 -146 1207 -149 q 1256 -151 1247 -144 q 1265 -169 1265 -158 z "},"N":{"ha":1221,"x_min":-11,"x_max":1139,"o":"m 338 874 q 362 860 353 865 q 389 831 371 854 q 419 776 407 808 q 456 626 443 714 q 468 432 468 539 q 465 253 468 325 q 457 82 463 182 q 399 -117 449 -47 q 278 -204 349 -187 q 222 -214 260 -210 q 201 -208 210 -215 q 192 -189 193 -200 q 200 -167 190 -176 q 224 -158 210 -157 q 229 -160 224 -160 q 335 -82 314 -164 q 344 -3 343 -54 q 346 145 346 47 q 350 326 346 243 q 356 444 353 385 q 362 538 360 503 q 365 607 364 572 q 367 660 367 642 q 368 699 368 679 q 367 731 368 718 q 363 758 365 744 q 326 821 351 810 q 317 824 322 822 q 303 838 307 828 q 303 859 299 849 q 317 874 307 869 q 338 874 328 878 m 1117 969 q 1122 967 1117 969 q 1133 956 1128 965 q 1134 935 1138 946 q 1121 918 1131 924 q 1113 916 1121 918 q 1101 910 1106 914 q 1088 898 1097 907 q 1072 874 1079 889 q 1031 686 1040 817 q 1021 231 1021 556 q 1022 88 1021 157 q 1024 -19 1024 19 q 1026 -93 1025 -58 q 1027 -144 1026 -128 q 1026 -176 1028 -161 q 1022 -197 1025 -190 q 1014 -210 1019 -203 q 992 -224 1013 -218 q 963 -221 972 -229 q 946 -208 956 -218 q 940 -197 943 -204 q 894 -38 924 -160 q 819 240 865 83 q 717 526 774 397 q 617 708 671 631 q 513 829 564 786 q 408 895 461 872 q 309 916 356 918 q 222 897 263 914 q 150 849 181 881 q 100 778 119 818 q 74 656 71 711 q 108 568 78 601 q 185 535 139 535 q 224 519 207 535 q 240 481 240 504 q 225 442 240 458 q 186 425 210 426 q 165 428 179 425 q 63 476 106 439 q 5 568 21 514 q -7 682 -11 622 q 29 801 -3 742 q 114 904 61 861 q 274 969 183 961 q 439 940 365 976 q 519 890 479 922 q 591 823 558 858 q 656 737 624 788 q 714 642 689 686 q 766 537 739 599 q 811 431 793 475 q 851 323 829 388 q 885 222 874 258 q 917 128 897 186 q 908 308 910 228 q 911 491 907 389 q 935 685 915 593 q 989 849 954 776 q 1038 924 1013 899 q 1096 968 1063 950 q 1117 969 1106 972 m 1015 -160 l 1017 -161 q 1015 -160 1015 -161 z "},"O":{"ha":1142,"x_min":-10,"x_max":1042,"o":"m 1028 331 q 972 36 1040 179 q 663 -204 878 -164 q 497 -197 572 -221 q 370 -117 422 -174 q 285 17 318 -61 q 240 192 251 96 q 60 357 126 249 q -8 607 -7 465 q -8 626 -8 610 q 9 664 -7 649 q 47 679 25 679 q 85 663 69 679 q 101 624 101 646 q 100 606 101 622 q 98 575 99 589 q 99 537 97 561 q 106 491 101 513 q 122 441 111 469 q 149 386 132 413 q 235 289 182 331 q 264 526 235 406 q 350 740 293 647 q 465 881 403 826 q 588 956 528 936 q 708 969 649 975 q 818 935 768 964 q 906 858 868 906 q 965 752 944 811 q 985 622 986 693 q 956 479 983 550 q 982 465 971 476 q 1010 415 996 451 q 1028 331 1024 379 m 432 697 q 367 471 388 596 q 354 228 346 346 q 498 210 422 206 q 641 243 574 215 q 769 317 708 271 q 867 422 829 363 q 923 552 906 482 q 922 699 940 622 q 878 806 910 758 q 803 881 846 854 q 710 913 761 908 q 610 899 660 918 q 514 828 561 879 q 432 697 467 776 m 846 -51 q 931 110 907 15 q 946 281 956 206 q 906 386 936 356 q 669 190 819 260 q 363 150 519 119 q 403 15 376 72 q 465 -76 431 -43 q 541 -128 500 -110 q 624 -148 582 -147 q 707 -137 667 -149 q 783 -104 747 -126 q 846 -51 819 -82 z "},"P":{"ha":904,"x_min":-14,"x_max":825,"o":"m 265 949 q 448 976 361 976 q 601 951 535 976 q 718 878 667 925 q 794 765 769 831 q 821 619 818 699 q 793 447 824 539 q 550 190 732 253 q 453 171 489 169 q 317 196 368 168 q 315 133 315 150 q 313 74 315 117 q 303 7 310 31 q 285 -51 296 -17 q 255 -110 274 -85 q 211 -157 236 -136 q 156 -188 188 -176 q 109 -203 125 -200 q 61 -208 93 -206 q 47 -206 54 -210 q 36 -197 40 -203 q 31 -183 32 -192 q 39 -161 29 -171 q 63 -154 49 -151 q 133 -143 97 -160 q 185 -87 168 -126 q 203 28 200 -50 q 199 192 206 107 q 196 376 193 278 q 212 557 199 475 q 269 706 225 639 q 388 800 314 774 q 400 806 397 804 q 420 805 410 810 q 435 790 431 800 q 435 769 440 779 q 419 754 431 758 q 414 753 418 753 q 376 739 393 749 q 347 712 358 729 q 328 675 336 694 q 317 625 321 656 q 312 567 314 594 q 310 499 310 540 q 312 426 311 458 q 314 343 313 393 q 317 257 315 293 q 422 225 354 222 q 563 281 500 229 q 662 406 626 332 q 710 568 697 481 q 703 734 724 663 q 638 845 682 806 q 533 903 594 885 q 406 921 472 922 q 274 900 340 919 q 153 831 203 881 q 85 729 103 782 q 76 626 68 676 q 119 553 83 576 q 142 517 138 539 q 132 475 146 494 q 90 451 117 453 q 42 475 63 450 q -6 599 0 529 q 15 737 -12 669 q 108 863 42 804 q 265 949 174 921 z "},"Q":{"ha":990,"x_min":-7,"x_max":992,"o":"m 974 -90 q 989 -134 992 -108 q 964 -174 986 -160 q 828 -226 893 -219 q 707 -207 764 -232 q 579 -124 650 -182 q 300 -172 449 -215 q 235 -130 260 -158 q 209 -69 210 -101 q 224 -7 208 -36 q 280 40 239 22 q 378 54 321 57 q 447 39 413 51 q 538 -12 481 26 q 689 256 629 75 q 720 422 714 331 q 715 603 726 514 q 663 767 703 692 q 560 879 624 843 q 456 910 514 906 q 338 896 399 915 q 224 835 278 876 q 126 720 169 793 q 61 551 82 647 q 81 322 35 425 q 217 203 126 218 q 268 203 242 199 q 274 204 271 204 q 286 207 276 206 q 328 200 308 213 q 352 165 347 188 q 344 124 357 143 q 310 100 332 106 q 261 101 297 97 q 192 117 225 104 q 74 200 121 142 q 10 332 28 258 q 1 490 -7 406 q 40 653 8 575 q 128 801 71 732 q 260 913 185 871 q 395 960 326 950 q 526 956 464 971 q 644 902 589 942 q 741 803 700 863 q 807 659 782 743 q 835 476 832 575 q 785 169 839 322 q 632 -79 731 17 q 723 -128 683 -114 q 806 -137 763 -143 q 890 -94 850 -131 q 897 -87 893 -92 q 936 -73 914 -72 q 974 -90 958 -74 m 326 -101 q 490 -50 408 -101 q 424 -8 449 -18 q 374 6 400 3 q 285 -14 315 13 q 269 -69 256 -40 q 326 -101 282 -97 z "},"R":{"ha":906,"x_min":-17,"x_max":824,"o":"m 776 -147 q 797 -150 788 -144 q 810 -167 807 -156 q 808 -187 814 -178 q 792 -200 803 -197 q 707 -207 779 -204 q 615 -194 654 -210 q 558 -153 576 -178 q 529 -93 540 -128 q 517 -28 518 -58 q 513 33 515 1 q 506 78 510 64 l 507 76 q 481 113 496 103 q 429 131 467 122 q 399 136 419 132 q 367 142 378 140 q 342 149 357 144 q 315 160 326 154 q 313 75 314 108 q 272 -70 306 -4 q 176 -167 238 -136 q 149 -177 163 -172 q 122 -185 136 -182 q 99 -190 108 -187 q 78 -192 90 -192 q 63 -194 65 -193 q 49 -193 56 -196 q 38 -184 42 -190 q 32 -171 33 -178 q 37 -151 31 -160 q 54 -139 43 -142 q 73 -140 56 -139 q 106 -137 90 -142 q 153 -118 135 -132 q 183 -78 172 -104 q 198 -24 193 -51 q 203 47 203 3 q 201 130 203 92 q 199 228 200 168 q 197 336 197 289 q 199 433 197 394 q 207 526 201 472 q 226 618 213 581 q 259 694 239 656 q 312 760 279 733 q 388 803 344 788 q 400 807 397 806 q 422 807 411 811 q 436 792 432 803 q 434 769 440 781 q 415 756 428 757 q 348 715 372 749 q 317 631 324 681 q 310 518 311 582 q 314 389 310 454 q 315 338 314 381 q 317 264 317 281 q 317 263 317 264 q 467 242 371 219 q 630 360 567 265 q 710 572 693 456 q 594 876 742 792 q 285 903 469 950 q 192 862 233 889 q 126 803 150 835 q 88 735 101 771 q 73 666 74 699 q 83 605 72 633 q 115 560 94 576 q 142 521 139 544 q 133 482 146 497 q 90 457 118 458 q 44 478 63 456 q -6 590 3 532 q 10 727 -15 658 q 102 858 35 796 q 267 949 169 919 q 522 969 401 989 q 695 898 625 954 q 794 766 765 842 q 821 602 822 690 q 788 435 819 514 q 696 292 757 356 q 556 200 635 228 q 608 135 593 174 q 621 57 622 96 q 616 -19 619 18 q 618 -88 613 -57 q 646 -135 624 -119 q 711 -153 671 -150 q 776 -147 751 -157 z "},"S":{"ha":883,"x_min":-24,"x_max":764,"o":"m 318 647 q 381 597 336 624 q 474 547 425 569 q 578 486 524 524 q 674 408 632 449 q 739 302 715 367 q 756 160 763 238 q 705 2 746 72 q 604 -110 664 -68 q 473 -176 544 -153 q 331 -200 401 -200 q 197 -178 261 -200 q 89 -117 132 -157 q -6 74 11 -42 q 36 317 -22 190 q 69 344 47 336 q 110 340 90 351 q 138 305 132 329 q 129 260 144 281 q 75 103 78 189 q 116 -49 72 17 q 233 -137 160 -115 q 310 -147 268 -147 q 431 -125 375 -146 q 524 -72 488 -104 q 589 1 560 -40 q 630 84 618 42 q 648 167 642 126 q 646 239 654 207 q 614 317 639 279 q 555 385 589 356 q 478 444 521 414 q 399 499 436 475 q 325 551 361 522 q 271 606 289 579 q 250 644 256 626 q 284 810 226 721 q 432 943 342 900 q 516 967 475 964 q 588 957 557 969 q 644 919 619 944 q 680 860 668 893 q 692 787 692 828 q 678 704 692 746 q 664 671 676 700 q 631 639 653 647 q 589 639 608 631 q 556 686 558 653 q 581 738 553 719 q 607 771 596 747 q 615 858 629 815 q 558 914 600 900 q 451 901 517 928 q 327 780 374 864 q 318 647 281 696 z "},"T":{"ha":833,"x_min":-22,"x_max":1042,"o":"m 633 864 q 653 863 643 868 q 668 849 664 858 q 670 837 671 843 q 667 825 669 831 q 660 816 665 819 q 649 811 654 813 q 640 810 644 810 q 554 699 574 796 q 545 483 539 604 q 549 208 551 363 q 525 -17 547 53 q 445 -145 497 -100 q 311 -200 393 -190 q 306 -200 310 -200 q 299 -201 303 -200 q 294 -201 296 -201 q 274 -195 283 -203 q 265 -176 265 -187 q 267 -162 264 -169 q 276 -151 269 -156 q 289 -146 282 -147 q 299 -147 292 -146 q 349 -142 326 -150 q 391 -117 372 -135 q 419 -74 410 -100 q 435 65 435 -32 q 431 261 436 161 q 432 480 425 361 q 465 679 439 599 q 526 794 490 754 q 611 856 561 833 q 622 860 615 857 q 633 864 629 863 m 1025 881 q 1041 841 1042 864 q 1024 802 1040 818 q 984 787 1007 786 q 944 804 961 788 q 931 831 938 813 q 918 851 928 836 q 814 910 886 899 q 667 904 753 921 q 503 861 581 888 q 335 812 425 835 q 178 787 246 789 q 44 818 111 785 q 33 825 42 819 q 27 831 29 829 q 15 839 25 832 q 9 844 13 842 q 4 849 6 847 q 1 851 3 850 q -19 887 -17 864 q -7 929 -22 910 q 40 949 11 951 q 83 922 68 947 q 92 910 85 921 q 165 861 114 872 q 288 861 215 850 q 424 888 360 872 q 569 927 489 904 q 689 958 650 950 q 810 974 757 972 q 918 956 864 975 q 1014 892 972 936 q 1025 881 1025 882 z "},"U":{"ha":846,"x_min":-17,"x_max":847,"o":"m 844 -176 q 838 -199 847 -189 q 814 -207 828 -208 q 708 -175 747 -200 q 651 -117 676 -154 q 610 -39 625 -79 q 588 43 594 1 q 510 -87 558 -33 q 408 -165 461 -142 q 299 -182 354 -189 q 200 -135 243 -175 l 200 -133 q 147 -52 168 -103 q 117 48 126 -1 q 107 178 108 97 q 107 311 106 258 q 113 460 108 364 q 119 601 118 557 q 121 631 121 610 q 123 679 122 663 q 124 727 124 696 q 122 776 124 758 q 116 817 119 793 q 106 856 113 842 q 89 885 99 871 q 65 907 79 900 q 33 915 51 914 q 15 914 24 915 q 1 917 8 914 q -10 925 -6 919 q -15 939 -14 931 q -10 959 -17 950 q 8 969 -3 968 q 19 968 11 969 q 84 954 57 965 q 140 917 111 943 q 188 838 168 890 q 219 710 207 786 q 230 494 231 621 q 223 253 229 368 q 224 42 217 139 q 260 -86 232 -56 q 328 -116 288 -112 q 410 -96 368 -119 q 488 -30 451 -72 q 550 85 525 13 q 578 244 575 157 q 583 771 568 624 q 603 807 586 793 q 643 818 621 821 q 679 801 665 817 q 692 764 693 785 q 694 604 692 719 q 694 321 696 440 q 692 123 693 201 q 693 -6 690 44 q 706 -85 696 -57 q 739 -132 717 -114 q 775 -151 754 -146 q 803 -154 789 -154 q 811 -153 807 -154 l 814 -153 q 834 -158 825 -151 q 844 -176 843 -165 z "},"V":{"ha":789,"x_min":-24,"x_max":858,"o":"m 829 971 q 843 967 836 971 q 853 958 850 964 q 858 944 857 953 q 851 925 858 933 q 832 917 843 917 q 829 917 831 917 q 536 253 692 926 q 503 109 519 179 q 479 1 488 39 q 463 -73 471 -37 q 451 -126 456 -108 q 441 -159 446 -144 q 431 -185 436 -174 q 381 -222 413 -219 q 328 -199 350 -225 q 265 -35 296 -162 q 215 231 235 92 q 167 531 194 371 q 117 768 140 690 q 86 846 103 814 q 56 890 69 878 q 30 909 42 903 q 11 914 18 915 l 4 914 q -15 922 -7 914 q -22 941 -22 929 q -14 960 -22 953 q 6 968 -6 968 q 40 961 26 965 q 124 899 83 946 q 192 787 164 851 q 240 666 221 722 q 272 556 258 610 q 322 308 300 440 q 358 63 343 175 q 385 -99 374 -50 q 447 101 411 -37 q 519 377 483 239 q 599 651 556 515 q 699 874 643 786 q 819 969 756 963 q 829 971 822 971 z "},"W":{"ha":1113,"x_min":-14,"x_max":1057,"o":"m 1028 971 q 1047 963 1039 971 q 1056 944 1056 956 q 1049 924 1057 933 q 1028 917 1040 915 q 974 889 997 917 q 935 813 950 861 q 913 728 921 765 q 900 649 906 690 q 899 -40 869 407 q 903 -99 900 -68 q 907 -143 906 -131 q 908 -170 908 -156 q 904 -192 907 -185 q 894 -207 901 -200 q 751 -132 854 -258 q 564 200 640 4 q 515 372 526 299 q 336 117 443 289 q 200 -162 229 -56 q 179 -207 192 -196 q 142 -219 164 -222 q 107 -194 119 -217 q 89 -33 89 -162 q 96 253 89 96 q 106 563 103 410 q 87 818 108 717 q 17 917 65 919 q -3 923 6 915 q -12 942 -11 931 q -4 963 -12 954 q 18 971 4 972 q 72 953 50 968 q 147 858 117 925 q 191 695 178 790 q 211 507 204 600 q 215 301 218 414 q 208 122 211 189 q 199 -19 206 56 q 351 227 232 36 q 499 454 471 418 q 538 486 518 481 q 582 468 567 493 q 589 444 586 460 q 842 -83 613 318 q 842 55 846 -26 q 840 235 839 136 q 841 434 840 333 q 853 630 842 535 q 884 799 865 725 q 939 920 903 874 q 1024 971 975 967 l 1028 971 z "},"X":{"ha":756,"x_min":-25,"x_max":757,"o":"m 746 -159 q 750 -163 746 -159 q 756 -178 754 -167 q 749 -198 757 -189 q 731 -207 742 -207 q 658 -200 711 -210 q 483 -96 560 -181 q 351 106 406 -11 q 306 10 329 53 q 250 -74 282 -32 q 183 -144 218 -115 q 103 -190 149 -172 q 8 -207 58 -207 q -12 -199 -4 -207 q -19 -181 -19 -192 q -12 -161 -19 -169 q 8 -153 -4 -153 q 178 -74 103 -153 q 322 176 254 4 q 280 306 306 221 q 222 499 254 390 q 163 688 189 608 q 156 707 161 694 q 138 763 144 743 q 115 818 131 783 q 85 871 100 853 q 50 903 71 889 q 7 914 29 917 q -13 918 -4 911 q -24 937 -22 925 q -18 958 -25 949 q 0 968 -11 967 q 47 960 14 969 q 110 928 79 951 q 200 837 160 892 q 268 713 240 782 q 313 588 296 644 q 351 456 331 532 q 381 349 371 381 q 408 443 390 376 q 441 558 426 510 q 478 674 456 607 q 526 787 501 740 q 580 878 550 833 q 647 945 610 922 q 725 968 683 968 q 745 960 738 968 q 753 940 753 951 q 749 927 753 933 q 740 917 746 921 q 725 914 733 914 q 678 900 701 914 q 635 860 656 886 q 597 804 615 835 q 561 733 578 774 q 531 656 544 693 q 503 574 517 619 q 480 497 489 529 q 460 427 471 465 q 444 372 450 389 q 411 263 428 314 q 533 -24 488 50 q 629 -126 578 -96 q 725 -153 681 -157 q 746 -159 738 -151 z "},"Y":{"ha":801,"x_min":-3,"x_max":703,"o":"m 669 631 q 679 204 701 374 q 634 22 668 106 q 536 -127 600 -62 q 390 -203 472 -192 q 181 -169 261 -219 q 75 122 54 -90 q 96 161 78 147 q 136 174 114 175 q 178 147 164 171 q 181 96 192 122 q 161 -14 157 39 q 307 -151 169 -135 q 379 -150 336 -154 q 465 -107 431 -143 q 532 28 503 -68 q 576 239 561 125 q 597 442 590 353 q 604 592 604 532 q 574 491 589 536 q 533 395 558 446 q 478 309 507 344 q 408 246 450 274 q 318 210 367 218 q 311 208 315 210 q 303 207 307 208 q 96 286 165 190 q 44 405 60 336 q 31 539 28 474 q 42 671 35 604 q 59 788 50 738 q 65 874 68 839 q 40 914 61 908 q 29 915 35 915 q 19 915 24 914 q 10 919 14 917 q 4 926 7 922 q 0 933 1 929 q -1 940 -1 936 q 8 962 -1 953 q 29 969 17 971 q 96 942 75 964 q 129 865 122 914 q 135 704 136 815 q 142 508 135 593 q 149 432 144 461 q 163 370 153 403 q 190 319 174 338 q 235 288 207 300 q 300 275 263 275 l 299 274 l 292 274 q 311 275 294 274 q 388 301 353 279 q 449 359 422 322 q 494 433 475 396 q 530 524 514 471 q 554 610 546 576 q 573 694 563 644 q 586 756 583 743 q 606 782 592 775 q 633 784 621 789 q 647 768 646 779 q 669 631 667 650 z "},"Z":{"ha":649,"x_min":-32,"x_max":650,"o":"m 635 -90 q 647 -108 644 -97 q 642 -131 650 -119 q 572 -172 617 -164 q 473 -167 528 -181 q 363 -135 418 -154 q 245 -99 308 -117 q 139 -76 182 -81 q 88 -159 108 -129 q 56 -201 68 -189 q 31 -215 43 -212 q 25 -217 28 -217 q 18 -218 21 -218 q 8 -218 13 -218 q -31 -169 -26 -211 q -26 -125 -32 -154 q 57 -22 -7 -43 q 131 142 69 6 q 229 360 192 279 q 325 556 267 440 q 429 746 383 671 q 317 738 374 739 q 200 745 260 738 q 90 778 140 753 q 14 843 40 803 q 0 867 6 854 q -17 940 -14 897 q -10 960 -17 951 q 10 969 -3 969 q 30 963 21 971 q 38 942 39 954 q 66 856 36 890 q 143 806 96 821 q 250 787 190 790 q 366 790 310 783 q 471 811 422 797 q 551 899 519 879 q 619 894 592 924 q 632 829 647 864 q 557 775 618 797 q 497 656 536 738 q 408 466 458 575 q 346 333 357 357 q 169 -22 239 110 q 263 -49 206 -29 q 368 -85 319 -68 q 465 -115 417 -103 q 549 -125 514 -128 q 597 -100 583 -122 q 615 -87 604 -89 q 635 -90 626 -85 z "},"[":{"ha":557,"x_min":110,"x_max":501,"o":"m 474 26 q 492 19 485 26 q 500 -1 500 11 q 492 -20 500 -12 q 474 -28 485 -28 l 139 -28 q 119 -20 126 -28 q 111 0 111 -12 l 111 943 q 119 962 111 954 q 139 969 128 969 l 474 969 q 493 962 485 969 q 501 943 501 954 q 493 924 501 932 q 474 915 485 915 l 221 915 l 219 26 l 474 26 z "},"\\":{"ha":583,"x_min":68,"x_max":517,"o":"m 513 10 q 513 -10 517 0 q 497 -25 508 -21 q 488 -28 493 -28 q 463 -11 469 -28 l 71 935 q 69 944 69 939 q 72 955 69 950 q 77 964 74 960 q 86 969 81 968 q 108 969 97 974 q 122 956 118 965 l 513 10 z "},"]":{"ha":557,"x_min":56,"x_max":446,"o":"m 418 969 q 426 968 422 969 q 434 965 431 967 q 440 959 438 963 q 444 951 443 956 q 446 943 446 947 l 444 0 q 437 -20 444 -12 q 418 -28 429 -28 l 83 -28 q 63 -20 71 -28 q 56 -1 56 -12 q 63 19 56 11 q 83 26 71 26 l 336 26 l 336 915 l 83 915 q 64 924 72 915 q 56 943 56 932 q 64 962 56 954 q 83 969 72 969 l 418 969 z "},"_":{"ha":557,"x_min":54,"x_max":503,"o":"m 475 26 q 494 19 486 26 q 501 -1 501 11 q 494 -20 501 -12 q 475 -28 486 -28 q 267 -28 450 -28 q 83 -26 117 -26 q 69 -23 75 -26 q 59 -13 63 -19 q 56 0 56 -7 q 63 19 56 11 q 83 28 71 28 q 268 26 111 28 q 475 26 438 26 z "},"a":{"ha":583,"x_min":-47,"x_max":621,"o":"m 593 236 q 613 224 606 235 q 615 200 619 213 q 603 167 614 197 q 588 123 593 138 q 569 83 582 108 q 544 40 557 58 q 463 -22 511 -7 q 372 -17 415 -37 q 307 50 329 3 q 206 -18 263 -3 q 85 -17 142 -36 q -3 49 29 3 q -40 151 -35 94 q -29 267 -46 207 q 22 378 -12 328 q 112 460 56 428 q 233 492 168 492 l 235 492 q 332 455 293 489 q 381 365 371 421 q 415 357 400 371 q 426 324 431 343 q 423 306 426 321 q 416 277 419 292 q 408 231 413 263 q 400 161 403 199 q 393 62 389 93 q 432 26 397 31 l 431 26 q 499 58 469 26 q 542 128 528 89 q 563 213 556 168 q 573 231 564 224 q 593 236 582 238 m 307 372 q 276 427 308 408 q 188 426 243 446 q 108 358 138 406 q 73 257 79 310 q 69 161 67 204 q 81 93 72 118 q 167 29 100 32 q 292 103 243 31 q 301 225 283 157 q 272 247 283 231 q 263 283 261 263 q 285 326 264 304 q 307 372 306 349 z "},"b":{"ha":540,"x_min":-61,"x_max":578,"o":"m 553 238 q 570 224 564 235 q 574 203 576 214 q 514 123 556 144 q 403 107 472 101 q 253 -25 353 -11 q 135 13 179 -36 q 121 114 94 57 q 188 165 138 154 q 315 161 226 174 q 321 313 329 233 q 257 435 310 425 q 210 426 232 436 q 169 397 188 415 q 136 352 151 378 q 110 297 121 326 q 94 236 100 268 q 86 174 88 204 q 90 120 85 156 q 103 68 96 85 q 102 47 107 57 q 86 33 97 36 q 56 42 68 26 q -17 192 11 100 q -52 383 -44 283 q -49 588 -60 483 q -10 776 -37 692 q 68 917 18 860 q 183 982 118 974 q 211 983 188 982 q 307 900 290 978 q 263 732 325 818 q 61 610 190 632 q 60 288 43 453 q 211 488 107 450 q 365 454 296 518 q 432 231 447 376 q 418 151 429 192 q 517 200 500 150 q 521 215 518 206 q 532 233 522 226 q 553 238 542 239 m 210 914 q 68 664 104 906 q 232 781 181 682 q 247 893 268 850 q 226 913 240 908 q 210 914 219 915 m 172 49 q 213 31 188 33 q 265 51 238 29 q 304 118 292 72 q 176 108 203 131 q 165 94 169 103 q 172 49 154 69 z "},"c":{"ha":449,"x_min":-47,"x_max":485,"o":"m 440 234 q 445 237 440 234 q 461 238 450 240 q 478 225 472 235 q 482 204 485 215 q 468 169 479 193 q 337 15 422 67 q 166 -27 251 -36 q 24 46 81 -18 q -42 215 -39 115 q 8 395 -46 315 q 150 489 61 475 l 151 489 q 306 450 249 501 q 332 420 321 436 q 349 388 343 404 q 358 356 354 371 q 362 325 361 340 q 363 299 363 310 q 362 278 363 289 q 361 267 361 268 q 344 226 361 243 q 304 210 328 210 q 252 244 267 210 q 263 306 238 278 q 283 352 281 325 q 271 400 285 379 q 230 431 257 421 q 164 428 203 442 q 94 356 118 413 q 67 236 71 300 q 79 128 64 174 q 123 62 94 83 q 187 32 151 40 q 260 36 222 24 q 333 71 299 49 q 392 132 367 93 q 428 217 418 171 q 440 234 431 228 z "},"d":{"ha":685,"x_min":-49,"x_max":721,"o":"m 694 238 q 709 232 703 238 q 717 219 715 226 q 718 204 719 213 q 683 106 701 147 q 628 28 664 64 q 543 -18 592 -8 q 378 67 444 -37 q 274 -8 326 13 q 160 -26 222 -29 l 158 -26 q 56 8 100 -21 q -9 81 13 38 q -39 176 -31 124 q -35 280 -47 228 q 1 376 -24 332 q 71 453 26 421 q 171 494 115 485 q 289 467 239 506 q 298 607 289 533 q 326 756 307 681 q 383 889 346 832 q 469 963 421 946 q 517 967 494 969 q 561 949 540 964 q 594 910 582 935 q 620 753 624 856 q 592 538 617 650 q 524 313 568 425 q 428 126 479 200 q 469 58 444 81 q 518 38 489 39 q 595 68 561 36 q 644 138 629 100 q 664 214 660 176 q 674 232 665 225 q 694 238 683 239 m 107 71 q 167 32 129 42 q 255 41 204 22 q 354 111 306 60 q 314 235 331 164 q 249 231 283 210 q 224 292 215 253 q 239 319 228 308 q 243 324 242 322 q 244 324 243 324 q 268 364 264 338 q 258 413 272 390 q 215 442 244 436 q 144 426 182 447 q 71 294 85 390 q 70 177 61 247 q 107 71 79 107 m 514 896 q 463 848 488 899 q 423 713 439 797 q 399 533 407 629 q 394 342 390 438 q 411 183 397 247 q 533 478 490 306 q 565 779 575 650 q 522 894 557 882 q 518 896 518 896 q 514 896 517 896 z "},"e":{"ha":435,"x_min":-47,"x_max":472,"o":"m 446 238 q 465 224 458 235 q 467 201 471 214 q 322 14 424 74 q 94 -10 221 -46 q 8 48 42 7 q -35 140 -25 89 q -37 248 -46 190 q -4 355 -29 306 q 67 442 21 404 q 171 490 113 479 q 258 485 217 499 q 324 435 300 472 q 346 348 350 396 q 322 257 342 300 q 260 182 301 214 q 171 146 219 150 q 65 182 106 139 q 119 56 64 86 q 302 58 210 6 q 414 215 394 110 q 418 226 415 221 q 426 233 421 231 q 435 238 431 236 q 446 238 440 239 m 158 419 q 99 338 124 394 q 133 313 121 332 q 138 270 144 293 q 135 240 132 247 q 163 222 140 225 q 218 233 186 218 q 272 282 250 249 q 276 288 276 288 q 299 351 296 318 q 283 410 301 385 q 229 439 265 435 q 158 419 193 443 z "},"f":{"ha":346,"x_min":-50,"x_max":382,"o":"m 358 236 q 376 224 369 233 q 379 203 382 214 q 324 92 363 140 q 233 13 285 43 q 115 -35 181 -18 q 199 -198 169 -86 q 213 -405 229 -310 q 135 -504 197 -500 l 132 -504 q 88 -490 108 -506 q -12 -259 25 -446 q -41 132 -49 -72 q 18 426 -33 336 q 124 504 63 503 q 203 431 192 504 q 164 269 217 351 q 71 192 125 213 q 58 0 60 104 q 231 71 157 18 q 325 208 304 124 l 326 215 q 338 233 329 226 q 358 236 347 239 m 121 418 q 78 249 97 363 q 139 324 119 272 q 151 414 158 375 q 139 435 147 435 q 121 418 129 436 m 157 -243 q 122 -126 146 -182 q 57 -53 97 -71 q 108 -417 57 -319 q 117 -428 111 -422 q 130 -437 122 -433 q 144 -432 138 -442 q 163 -366 158 -414 q 157 -243 167 -318 z "},"g":{"ha":599,"x_min":-47,"x_max":635,"o":"m 161 -199 q 160 -200 161 -199 q 161 -199 161 -199 m 610 236 q 628 224 622 235 q 632 203 635 214 q 604 142 622 169 q 556 92 586 114 q 500 54 526 69 q 431 18 474 39 q 433 -75 432 -26 q 430 -161 433 -118 q 418 -252 426 -204 q 395 -341 410 -300 q 360 -417 381 -382 q 308 -474 339 -451 q 239 -501 276 -496 q 154 -482 189 -504 q 105 -422 119 -460 q 87 -337 90 -383 q 96 -246 83 -290 q 174 -97 117 -157 q 324 14 232 -36 q 324 89 324 53 q 263 22 296 47 q 183 -15 226 -6 q 98 -12 139 -25 q 24 28 57 0 q -28 110 -10 57 q -40 231 -46 163 q 83 446 -29 368 q 269 486 178 510 q 374 369 357 464 q 408 360 393 374 q 418 326 422 346 q 413 283 414 304 q 414 243 413 261 q 419 171 415 225 q 428 68 424 117 q 478 96 458 83 q 521 126 497 108 q 559 167 544 144 q 578 215 574 189 q 584 228 579 222 q 596 235 589 233 q 610 236 603 238 m 308 -349 q 324 -37 324 -282 q 161 -199 203 -106 l 143 -247 q 139 -361 129 -307 q 171 -426 147 -403 q 221 -448 194 -449 q 272 -422 247 -447 q 308 -349 297 -396 m 161 38 q 276 113 219 39 q 326 231 332 186 q 276 243 299 224 q 257 292 254 263 q 278 331 260 310 q 297 374 296 351 q 265 430 299 413 q 185 430 232 447 q 107 360 138 413 q 75 272 88 328 q 64 164 67 215 q 85 76 61 113 q 161 38 110 39 z "},"h":{"ha":547,"x_min":-75,"x_max":583,"o":"m 538 233 q 543 237 538 233 q 558 239 547 240 q 576 228 569 238 q 582 208 583 219 q 575 188 582 206 q 542 110 561 147 q 498 37 524 72 q 439 -17 472 1 q 369 -29 406 -36 q 307 13 329 -21 q 280 95 285 46 q 277 192 275 144 q 283 293 279 240 q 283 369 286 346 q 251 421 278 414 q 149 374 193 435 q 90 232 106 314 q 83 88 74 150 q 87 63 88 81 q 72 36 86 44 q 60 34 65 36 q 49 38 56 32 q 40 45 43 43 q 31 56 36 47 q 24 67 26 64 q 18 76 22 69 q 14 85 14 83 q -54 293 -33 169 q -68 538 -75 417 q -24 769 -61 660 q 74 935 13 878 q 197 983 125 982 q 294 900 278 978 q 249 732 311 818 q 47 610 176 632 q 47 268 29 444 q 78 362 60 319 q 123 440 96 404 q 189 491 150 475 q 275 500 228 507 q 356 450 328 490 q 388 353 385 410 q 388 241 392 296 q 376 133 383 186 q 372 61 369 79 q 383 38 374 50 q 411 32 393 25 q 476 90 442 43 q 525 201 511 138 l 528 215 q 538 233 529 226 m 100 829 q 54 664 69 767 q 219 782 168 682 q 235 893 254 850 q 200 914 224 917 q 100 829 139 911 z "},"i":{"ha":350,"x_min":-44,"x_max":388,"o":"m 110 525 q 100 514 110 525 q 58 502 89 503 q 6 523 28 501 q -17 575 -17 544 q 3 628 -18 606 q 55 651 24 650 q 108 631 86 651 q 131 578 131 610 q 110 525 132 547 m 361 239 q 380 226 374 236 q 382 203 386 215 q 274 26 339 76 q 135 -17 208 -24 q 25 44 68 -10 q -31 169 -18 97 q -40 313 -43 242 q -18 435 -36 385 q 12 467 -10 458 q 54 467 33 476 q 82 442 74 460 q 86 404 90 424 q 85 400 85 401 q 83 383 85 400 q 78 340 81 367 q 73 281 75 314 q 72 214 71 249 q 78 149 74 179 q 96 94 83 118 q 128 60 108 69 q 258 81 199 26 q 329 215 317 136 q 340 233 331 226 q 361 239 350 240 z "},"j":{"ha":244,"x_min":-331,"x_max":282,"o":"m 53 526 q 43 515 53 526 q 1 503 32 504 q -51 523 -29 501 q -74 575 -74 544 q -53 628 -75 606 q -1 651 -32 650 q 51 631 29 653 q 74 579 74 610 q 53 526 75 549 m 257 236 q 274 224 268 233 q 278 203 281 214 q 202 68 254 124 q 68 -36 150 13 q -57 -422 38 -308 q -156 -489 -100 -475 q -258 -472 -212 -503 q -318 -371 -304 -440 q -312 -262 -329 -311 q -249 -174 -296 -214 q -167 -112 -201 -133 q -68 -58 -132 -92 q -46 -47 -54 -51 q -36 119 -40 28 q -39 415 -31 288 q -26 456 -40 439 q 11 474 -11 472 q 50 462 33 475 q 69 428 67 449 q 74 21 93 258 q 225 215 200 106 q 237 233 228 226 q 257 236 246 239 m -164 -418 q -51 -101 -83 -378 q -87 -119 -74 -112 q -120 -138 -100 -126 q -153 -159 -140 -150 q -184 -181 -167 -168 q -212 -204 -201 -193 q -235 -230 -224 -215 q -253 -258 -247 -244 q -265 -289 -260 -272 q -269 -324 -269 -306 q -265 -360 -269 -342 q -231 -418 -256 -400 q -171 -421 -206 -436 q -164 -418 -168 -421 z "},"k":{"ha":450,"x_min":-86,"x_max":488,"o":"m 443 231 q 448 234 443 231 q 463 235 453 238 q 480 223 474 232 q 483 203 486 214 q 477 181 483 200 q 460 135 471 163 q 443 92 450 107 q 372 3 415 35 q 281 -31 329 -28 q 180 -3 232 -33 q 83 86 128 26 q 89 68 86 76 q 91 57 92 63 q 88 47 90 51 q 82 38 86 42 q 72 33 78 35 q 42 42 54 26 q -60 320 -33 140 q -51 676 -86 500 q 74 935 -15 853 q 197 983 135 988 q 294 900 278 978 q 249 732 311 818 q 47 610 176 632 q 50 247 28 431 q 88 345 64 297 q 143 435 111 393 q 216 494 175 476 q 299 493 257 511 q 366 412 351 471 q 347 282 381 353 q 236 164 314 211 q 142 135 194 139 q 285 22 194 18 q 345 41 319 25 q 387 86 371 57 q 412 143 403 115 q 431 214 421 171 q 443 231 433 225 m 171 908 q 54 664 86 874 q 217 778 164 682 q 235 892 256 846 q 171 908 217 928 m 92 224 q 179 251 147 229 q 221 289 201 268 q 254 336 240 310 q 272 388 268 363 q 264 423 274 410 q 229 429 254 436 q 153 358 193 417 q 92 224 113 299 z "},"l":{"ha":390,"x_min":-57,"x_max":426,"o":"m 401 238 q 415 231 410 236 q 423 219 421 226 q 424 203 425 211 q 343 38 390 97 q 206 -31 296 -21 q 94 -6 144 -39 q 15 87 44 26 q -34 226 -15 147 q -55 395 -53 306 q -48 570 -57 485 q -15 733 -39 656 q 42 864 8 811 q 129 954 79 921 q 235 976 179 988 q 318 883 310 963 q 257 717 328 799 q 60 614 181 628 q 54 481 54 561 q 61 310 54 401 q 92 145 68 219 q 151 47 115 71 q 197 32 171 33 q 312 76 268 25 q 369 210 356 126 l 371 215 q 381 233 372 226 q 401 238 390 239 m 115 821 q 67 667 83 768 q 153 694 114 672 q 215 746 192 717 q 249 806 238 775 q 260 863 261 838 q 243 901 258 889 q 232 908 239 906 q 212 910 225 911 q 185 901 199 908 q 152 874 171 894 q 115 821 133 853 z "},"m":{"ha":739,"x_min":-44,"x_max":775,"o":"m 728 232 q 733 235 728 232 q 749 238 738 239 q 767 228 760 238 q 774 208 775 219 q 767 181 772 203 q 749 126 761 160 q 722 68 736 92 q 554 -26 657 -47 q 510 -1 528 -19 q 482 47 492 18 q 467 106 472 76 q 461 175 461 136 q 462 242 461 214 q 465 305 463 269 q 468 353 468 340 q 467 367 468 360 q 463 385 467 375 q 450 397 458 396 q 426 392 442 397 q 376 300 399 376 q 350 162 361 247 q 331 53 339 76 q 324 42 328 47 q 313 27 321 36 q 292 18 304 18 q 263 21 281 18 q 231 76 238 31 q 228 185 225 121 q 219 333 232 250 q 200 406 213 379 q 184 419 194 417 q 165 419 174 422 q 151 410 157 415 q 118 366 132 393 q 96 301 104 339 q 85 249 88 264 q 79 200 83 235 q 78 158 79 197 q 75 71 78 119 q 65 -10 72 22 q 42 -43 61 -31 q 1 -51 24 -56 q -31 -31 -18 -47 q -42 7 -43 -14 q -40 15 -42 8 q -35 400 -24 106 q -20 440 -36 424 q 18 457 -4 457 q 45 451 32 458 q 66 432 58 444 q 74 404 74 419 l 75 399 q 103 454 89 432 q 141 493 117 476 q 196 511 165 510 q 204 511 201 511 q 328 331 315 503 q 460 465 376 465 l 463 465 q 508 453 486 467 q 556 389 540 433 q 569 294 571 344 q 565 191 568 244 q 558 101 563 138 q 563 44 554 64 q 593 28 571 29 q 628 35 615 26 q 687 101 661 51 q 719 214 713 151 q 728 232 719 225 z "},"n":{"ha":617,"x_min":-42,"x_max":653,"o":"m 608 233 q 612 237 608 233 q 628 238 617 240 q 646 226 639 236 q 650 206 653 217 q 642 181 650 203 q 622 126 635 158 q 600 72 610 93 q 485 -31 554 -24 q 422 -17 446 -31 q 376 42 393 1 q 356 121 360 83 q 350 220 353 158 q 344 307 347 282 q 279 421 333 406 q 272 422 278 421 l 274 422 q 206 414 236 428 q 68 21 68 354 q 10 -50 68 -50 q -16 -42 -4 -50 q -35 -22 -28 -35 q -42 4 -42 -10 l -42 467 q -26 505 -42 489 q 13 521 -10 521 q 51 505 35 521 q 67 467 67 489 l 67 349 q 275 511 143 507 q 387 475 343 513 q 446 367 431 438 q 453 274 456 321 q 447 184 450 228 q 442 107 443 140 q 451 52 440 74 q 488 29 461 31 q 510 35 496 26 q 563 106 539 53 q 596 215 586 158 q 608 233 599 226 z "},"o":{"ha":493,"x_min":-49,"x_max":531,"o":"m 506 238 q 523 224 517 235 q 525 201 529 214 q 474 121 507 151 q 315 50 415 65 q 210 -26 275 -7 q 81 -16 146 -46 q -19 93 15 14 q -40 256 -49 161 q 6 403 -32 351 q 249 483 101 536 q 337 415 306 464 q 371 306 368 365 q 367 195 374 247 q 344 104 360 143 q 472 215 454 131 q 485 234 475 228 q 506 238 494 240 m 167 29 q 235 46 207 29 q 175 54 204 47 q 63 103 111 65 q 167 29 93 31 m 285 97 q 319 188 308 135 q 326 285 329 240 q 313 357 324 329 q 232 431 289 417 q 149 415 188 443 q 92 341 111 386 q 75 253 74 296 q 125 143 78 192 q 285 97 181 93 z "},"p":{"ha":565,"x_min":-42,"x_max":600,"o":"m 576 238 q 590 231 585 236 q 598 218 596 225 q 597 203 600 211 q 537 115 579 139 q 424 100 494 92 q 225 -33 365 -24 q 152 -15 182 -35 q 112 32 122 4 q 106 90 101 60 q 131 142 110 121 q 153 158 140 153 q 165 165 161 164 q 217 175 189 174 q 271 173 246 176 q 338 161 296 169 q 344 203 342 179 q 269 433 368 410 q 101 290 168 460 q 50 18 60 181 q 25 -481 50 7 q 15 -503 25 -493 q -10 -511 4 -512 q -26 -506 -18 -511 q -37 -494 -33 -501 q -42 -479 -42 -487 q -40 -333 -42 -483 q -35 52 -37 -183 q -32 467 -33 288 q -16 506 -32 490 q 22 521 0 521 q 60 505 44 521 q 76 467 76 489 q 75 446 76 467 q 72 401 74 425 q 70 356 71 376 q 69 335 69 335 q 249 494 135 486 q 356 468 308 497 q 426 388 403 439 q 456 274 450 338 q 442 144 463 210 q 492 149 471 143 q 526 171 513 154 q 544 215 539 188 q 556 233 547 226 q 576 238 565 239 m 224 32 q 324 118 297 54 q 176 117 217 139 q 156 81 157 106 q 169 42 154 57 q 213 29 185 25 q 224 32 214 29 z "},"q":{"ha":626,"x_min":-47,"x_max":664,"o":"m 639 238 q 656 225 650 235 q 660 203 663 215 q 567 64 639 119 q 374 -26 507 17 l 372 -36 q 438 -143 414 -76 q 465 -265 460 -200 q 454 -384 471 -331 q 400 -451 438 -437 q 327 -446 358 -465 q 279 -384 296 -426 q 256 -292 263 -342 q 251 -190 249 -243 q 278 25 254 -96 q 153 -32 226 -22 l 151 -32 q 60 -15 101 -36 q -3 44 19 7 q -36 129 -25 82 q -40 228 -47 176 q -13 327 -32 281 q 44 413 6 374 q 132 471 82 451 q 244 491 196 493 q 326 465 293 489 q 378 408 360 440 q 399 339 396 375 q 410 335 406 339 q 417 326 415 331 q 419 315 419 321 q 418 296 419 301 q 378 21 403 228 q 440 44 413 32 q 498 73 468 56 q 549 110 528 90 q 585 156 569 129 q 607 215 601 183 q 618 233 608 226 q 639 238 628 239 m 306 139 q 336 239 319 194 q 289 272 303 242 q 297 335 275 301 q 299 335 299 335 q 307 390 322 351 q 232 439 288 439 q 157 415 199 439 q 83 307 104 383 q 68 163 63 231 q 149 39 78 49 q 151 39 151 39 l 151 38 q 161 38 157 38 q 306 139 243 32 m 389 -382 q 413 -315 407 -362 q 406 -206 418 -267 q 367 -100 394 -146 q 357 -336 351 -267 q 364 -374 360 -360 q 371 -387 368 -385 q 379 -389 374 -389 l 378 -389 l 379 -387 l 379 -389 q 381 -389 381 -389 q 389 -382 385 -387 z "},"r":{"ha":565,"x_min":-37,"x_max":601,"o":"m 575 238 q 594 226 588 236 q 599 203 601 215 q 538 63 579 131 q 443 -24 496 -6 q 349 -19 388 -42 q 290 51 310 3 q 263 165 271 100 q 260 297 256 231 q 278 425 265 364 q 107 435 172 418 q 39 200 82 328 q 26 183 36 189 q 5 182 15 178 q -10 196 -6 186 q -12 217 -15 206 l 26 324 q 60 451 46 389 q 4 502 28 469 q -28 572 -19 535 q -33 642 -36 608 q -10 699 -31 676 q 44 722 11 721 l 47 722 q 96 702 76 721 q 121 655 115 683 q 128 592 126 626 q 124 526 129 557 q 207 524 167 522 q 278 532 247 526 q 338 534 310 538 q 381 514 365 531 q 399 460 403 492 q 395 447 399 460 q 388 415 392 435 q 377 369 383 396 q 366 313 371 343 q 356 252 361 283 q 349 190 351 221 q 348 133 347 160 q 353 83 349 106 q 367 47 358 60 q 422 26 385 21 q 501 99 464 35 q 544 214 538 163 q 555 232 546 225 q 575 238 564 239 m 75 547 q 71 624 78 594 q 49 661 64 663 q 44 661 46 661 q 33 636 35 654 q 44 591 32 618 q 75 547 56 564 z "},"s":{"ha":543,"x_min":-56,"x_max":581,"o":"m 556 236 q 573 225 567 235 q 578 204 579 215 q 575 197 576 203 q 554 141 567 167 q 523 92 542 115 q 489 54 504 69 q 446 19 474 39 q 401 -12 418 -1 q 350 -44 385 -22 q 353 -172 374 -115 q 283 -260 333 -229 q 181 -278 232 -292 q 129 -228 139 -267 q 154 -140 119 -189 q 253 -51 183 -100 q 167 -11 233 -37 q 63 38 101 15 q 51 46 56 43 q -34 166 -12 83 q -18 340 -56 249 q 98 465 19 424 q 258 493 176 506 q 390 424 340 481 q 449 265 439 371 q 444 236 450 250 q 425 213 438 222 q 397 203 413 204 q 346 227 365 200 q 340 283 326 254 q 350 355 356 322 q 317 408 344 388 q 256 438 289 429 q 181 434 222 446 q 106 392 139 422 q 56 251 51 332 q 108 139 60 169 q 180 99 132 122 q 266 51 228 75 q 328 -4 304 26 q 464 97 419 51 q 524 215 508 142 q 530 228 525 222 q 542 235 535 233 q 556 236 549 238 m 199 -228 q 275 -190 242 -235 q 282 -87 308 -146 q 185 -183 207 -142 q 178 -211 176 -200 q 199 -228 179 -225 z "},"t":{"ha":382,"x_min":-183,"x_max":419,"o":"m 393 239 q 412 226 406 236 q 415 203 418 215 q 315 41 383 110 q 169 -31 247 -28 l 168 -31 q 64 9 107 -31 q 0 117 21 49 q -31 265 -21 186 q -39 438 -42 344 q -29 605 -36 531 q -12 751 -22 679 q -176 800 -140 740 q -179 819 -182 808 q -167 837 -176 831 q -147 840 -158 843 q -131 828 -136 838 q -3 807 -111 796 q 26 950 11 890 q 53 988 33 976 q 94 993 72 999 q 126 969 114 988 q 133 931 138 951 q 117 822 128 899 q 321 810 263 842 q 333 793 331 804 q 331 772 336 782 q 314 760 325 763 q 293 763 303 757 q 108 767 251 786 q 98 692 103 728 q 86 594 93 657 q 76 476 79 531 q 70 356 72 422 q 72 239 68 290 q 85 141 76 188 q 113 67 94 94 q 160 33 132 39 q 169 31 163 32 q 175 31 172 31 q 179 31 178 31 q 258 60 217 31 q 346 165 315 100 q 361 215 358 194 q 373 233 364 226 q 393 239 382 240 z "},"u":{"ha":590,"x_min":-46,"x_max":628,"o":"m 600 239 q 621 226 614 238 q 624 203 628 214 q 609 160 618 190 q 593 110 600 131 q 573 65 586 90 q 544 21 560 39 q 461 -35 511 -19 q 360 -27 411 -51 q 285 65 308 -3 q 157 -31 238 -15 q 153 -31 154 -31 l 151 -31 q 52 -6 93 -37 q -9 81 11 26 q -37 205 -29 135 q -40 344 -44 275 q -24 476 -36 413 q -1 511 -19 499 q 40 519 18 524 q 72 499 60 515 q 83 464 85 483 q 81 426 83 460 q 79 376 79 392 q 78 322 79 360 q 78 262 76 285 q 81 205 79 239 q 88 149 82 171 q 100 105 93 128 q 119 68 107 82 q 144 50 131 54 q 151 47 147 49 l 150 47 q 161 46 158 46 q 228 73 196 40 q 268 144 261 106 q 278 246 274 181 q 288 365 282 311 q 306 457 294 419 q 335 490 314 481 q 376 493 356 500 q 398 479 389 489 q 411 457 407 469 q 413 432 415 444 q 410 39 344 75 q 440 32 421 32 q 554 144 518 26 q 569 215 565 182 q 580 233 571 226 q 600 239 589 240 z "},"v":{"ha":414,"x_min":-57,"x_max":450,"o":"m 239 18 q 99 -25 176 -61 q -22 158 15 13 q -32 469 -56 292 q -11 506 -29 492 q 29 515 7 519 q 63 497 50 513 q 76 461 76 482 q 83 217 76 272 q 126 57 96 101 q 171 39 147 26 q 240 129 207 61 q 201 255 210 174 q 213 406 193 336 q 274 485 233 475 q 347 414 336 503 q 308 156 360 307 q 300 135 304 144 q 355 141 326 121 q 393 215 383 161 q 406 233 396 226 q 426 238 415 239 q 444 224 438 235 q 447 203 450 214 q 376 98 424 125 q 282 92 328 71 q 239 18 261 49 m 286 443 q 267 425 276 443 q 243 317 247 386 q 263 181 239 247 q 299 315 286 242 q 299 428 311 388 q 286 443 293 444 z "},"w":{"ha":647,"x_min":-44,"x_max":683,"o":"m 640 233 q 645 236 640 233 q 661 235 650 239 q 678 222 672 232 q 679 201 683 213 q 629 99 658 131 q 563 64 601 68 q 496 78 524 60 q 393 -19 453 -6 q 390 -21 392 -21 q 383 -22 386 -21 q 374 -22 376 -22 q 228 65 271 -33 q 139 -19 193 -8 q 30 12 74 -33 q -29 135 -14 57 q -40 306 -44 214 q -12 476 -36 397 q 13 509 -7 499 q 56 514 33 519 q 85 492 74 508 q 93 454 96 475 q 86 393 92 438 q 75 306 81 349 q 65 215 69 263 q 62 128 61 167 q 68 68 63 89 q 83 42 75 50 q 110 29 93 31 q 136 31 124 28 q 169 60 156 36 q 207 249 206 115 q 213 317 207 301 q 235 343 219 335 q 269 346 251 351 q 283 339 271 347 q 297 325 293 332 q 311 242 310 306 q 319 122 313 178 q 354 53 326 65 q 376 47 364 49 q 378 47 378 47 l 381 47 q 381 46 381 46 l 382 46 q 457 113 419 44 q 403 247 419 161 q 405 408 388 333 q 474 492 422 482 l 475 493 q 530 475 508 497 q 558 414 551 453 q 561 326 564 375 q 547 225 558 276 q 518 128 536 174 q 543 118 529 119 q 550 118 549 118 q 588 135 571 118 q 612 169 604 151 q 628 217 619 188 q 640 233 631 228 m 482 174 q 510 300 504 236 q 508 401 515 364 q 486 439 501 439 q 457 394 467 438 q 453 286 447 350 q 482 174 458 222 z "},"x":{"ha":485,"x_min":-43,"x_max":522,"o":"m 497 238 q 515 224 508 235 q 517 201 521 214 q 449 83 493 132 q 352 14 404 35 q 243 -6 300 -7 q 135 19 186 -6 q 117 -17 122 -4 q 92 -32 108 -32 q 69 -19 76 -32 q 67 8 61 -6 q 88 47 74 21 q -7 166 26 93 q -41 317 -40 239 q -22 476 -42 394 q 3 510 -17 499 q 44 515 22 521 q 76 492 64 510 q 85 454 88 475 q 73 337 75 386 q 84 226 71 288 q 131 124 97 165 q 329 457 208 258 q 346 469 335 467 q 366 467 357 472 q 378 450 375 461 q 375 429 381 439 q 172 85 250 222 q 260 53 213 56 q 349 68 307 50 q 422 124 390 86 q 464 214 453 163 q 476 234 467 228 q 497 238 486 240 z "},"y":{"ha":640,"x_min":-49,"x_max":676,"o":"m 632 233 q 637 236 632 233 q 653 237 642 239 q 670 225 664 235 q 674 204 676 215 q 674 203 674 203 q 662 170 668 185 q 646 140 656 156 q 624 114 636 126 q 600 92 613 101 q 482 25 561 58 q 479 -102 482 -42 q 463 -237 476 -162 q 428 -367 450 -312 q 367 -461 407 -421 q 274 -508 328 -501 l 264 -508 q 173 -480 210 -510 q 123 -401 136 -450 q 113 -296 110 -353 q 138 -186 117 -239 q 226 -60 169 -110 q 371 29 283 -11 q 367 69 369 49 q 363 111 365 89 q 360 169 361 133 q 208 3 289 29 q 193 -1 201 1 q 72 10 124 -17 q -6 94 21 36 q -40 234 -33 151 q -28 415 -47 317 q -14 475 -22 447 q 12 508 -8 497 q 53 514 32 519 q 85 491 74 508 q 93 454 96 474 q 90 438 92 449 q 84 388 86 406 q 78 333 82 369 q 74 273 75 297 q 74 216 74 249 q 80 161 75 183 q 93 116 85 139 q 115 80 101 93 q 149 61 129 67 q 189 58 165 57 l 188 58 q 258 108 226 64 q 306 209 290 153 q 330 305 322 265 q 338 360 338 344 q 356 394 339 382 q 394 401 374 406 q 422 375 414 396 q 463 233 446 321 q 481 76 479 146 q 574 135 539 104 q 621 215 610 167 q 632 233 622 226 m 243 -439 q 310 -412 282 -442 q 350 -335 338 -383 q 370 -230 363 -287 q 376 -119 378 -172 q 375 -22 375 -65 q 211 -156 258 -78 q 172 -272 181 -206 q 183 -387 164 -337 q 243 -439 201 -436 z "},"z":{"ha":563,"x_min":-44,"x_max":599,"o":"m 554 233 q 559 236 554 233 q 575 237 564 239 q 592 225 586 235 q 596 204 597 215 q 575 157 590 179 q 546 120 560 135 q 505 88 532 106 q 465 63 478 69 q 425 40 453 56 q 454 -75 461 -8 q 453 -82 454 -78 q 446 -118 451 -99 q 346 -258 418 -214 q 265 -283 304 -282 q 201 -265 226 -283 q 163 -215 175 -247 q 160 -144 151 -182 q 294 17 179 -61 q 233 36 246 28 q 204 93 200 57 q 221 132 206 104 q 258 235 244 171 q 265 276 263 253 q 268 376 276 333 q 225 433 260 418 q 190 440 206 440 l 176 442 l 172 442 q 183 440 183 440 q 91 412 128 439 q 43 348 54 385 q 37 272 32 311 q 61 207 42 233 q 82 188 72 193 q 111 153 104 178 q 104 108 118 129 q 60 83 89 83 q 15 103 31 82 q 0 122 1 121 q -40 248 -37 178 q -15 376 -43 318 q 76 468 13 433 q 222 493 139 503 q 318 446 281 485 q 368 352 356 407 q 369 232 381 297 q 324 106 358 167 q 390 74 364 92 q 442 104 425 93 q 485 133 460 115 q 523 172 510 151 q 542 215 536 192 q 554 233 544 228 m 371 -151 q 383 -65 388 -117 q 349 -1 379 -21 q 218 -119 254 -58 q 204 -192 196 -158 q 246 -233 213 -226 q 315 -217 276 -240 q 371 -151 353 -193 z "},"{":{"ha":583,"x_min":110,"x_max":474,"o":"m 442 28 q 462 22 453 29 q 472 3 471 14 q 465 -17 472 -8 q 447 -28 458 -26 q 394 -22 435 -28 q 333 -8 360 -18 q 284 22 306 3 q 248 70 263 42 q 225 139 233 99 l 225 140 q 219 196 219 168 q 220 236 218 224 q 230 285 222 249 q 239 331 238 321 q 226 386 247 374 q 187 409 214 394 q 141 435 160 424 q 117 456 122 447 q 111 472 111 463 q 132 499 111 488 q 224 551 206 538 q 244 606 256 576 q 242 613 243 607 q 229 647 233 633 q 219 685 225 660 q 215 740 214 710 q 224 807 217 771 l 224 807 q 231 835 228 824 q 247 869 238 853 q 265 897 256 885 q 287 919 274 910 q 310 936 300 929 q 335 949 319 943 q 359 957 350 954 q 383 962 368 960 q 405 965 399 964 q 425 967 411 965 q 442 968 439 968 q 462 963 453 969 q 471 944 471 956 q 470 933 472 939 q 465 924 468 928 q 458 917 463 919 q 447 914 453 915 q 438 915 444 914 q 423 915 432 915 q 404 913 414 914 q 344 879 367 904 q 322 819 325 856 q 324 751 318 782 q 341 652 326 707 q 347 560 356 597 q 258 471 335 503 q 306 448 286 461 q 334 418 325 435 q 348 388 343 401 q 351 353 353 374 q 347 321 349 332 q 339 288 344 310 q 332 261 333 267 q 321 190 325 235 q 319 117 317 144 q 368 40 325 61 q 442 28 400 24 z "},"|":{"ha":278,"x_min":110,"x_max":167,"o":"m 119 962 q 123 966 119 962 q 138 969 126 969 q 158 962 150 969 q 165 942 165 954 l 165 4 q 158 -15 165 -7 q 138 -22 150 -22 q 119 -15 126 -22 q 111 4 111 -7 l 111 942 q 119 962 111 954 z "},"}":{"ha":583,"x_min":110,"x_max":472,"o":"m 451 499 q 472 472 472 488 q 467 456 471 463 q 441 435 460 447 q 395 409 422 424 q 356 386 368 394 q 343 331 335 374 q 351 293 346 318 q 359 255 357 268 q 363 222 361 242 q 364 182 365 201 q 357 140 363 163 l 357 139 q 299 24 340 61 q 188 -22 258 -14 q 136 -28 149 -28 q 117 -17 125 -26 q 111 3 110 -8 q 122 22 113 14 q 142 28 131 29 q 215 40 182 24 q 263 117 257 61 q 261 190 265 144 q 251 261 257 235 q 244 288 250 267 q 236 321 238 310 q 233 353 235 332 q 235 388 231 374 q 249 418 240 401 q 278 448 258 435 q 325 471 297 461 q 236 560 249 503 q 242 652 228 597 q 260 751 257 707 q 262 819 265 782 q 239 879 258 856 q 179 913 217 904 q 163 915 171 914 q 151 915 156 915 q 142 914 147 914 q 136 914 138 914 q 117 924 125 915 q 111 944 110 933 q 115 955 113 950 q 121 963 117 960 q 131 967 125 965 q 142 968 136 969 q 157 967 143 968 q 177 965 171 965 q 199 962 183 964 q 224 957 215 960 q 249 949 233 954 q 274 936 264 943 q 297 919 283 929 q 319 897 310 910 q 337 869 328 885 q 351 835 346 853 q 358 807 356 824 l 358 807 q 367 740 367 771 q 363 685 368 710 q 354 647 358 660 q 342 613 350 633 q 339 606 339 607 q 360 551 326 576 q 451 499 378 538 z "},"":{"ha":525,"x_min":0,"x_max":0,"o":""},"":{"ha":219,"x_min":54,"x_max":167,"o":"m 142 866 q 136 859 142 866 q 110 853 129 853 q 78 866 92 853 q 64 898 64 879 q 78 930 64 917 q 110 943 92 943 q 142 930 129 943 q 156 898 156 917 q 142 866 156 879 m 138 740 l 164 0 q 150 -39 165 -22 q 112 -56 135 -56 q 73 -42 89 -57 q 56 -4 57 -26 q 56 0 56 -1 l 82 740 q 92 759 83 751 q 111 767 100 767 q 128 758 121 765 q 138 740 136 751 z "},"":{"ha":707,"x_min":63,"x_max":599,"o":"m 594 328 q 594 297 597 314 q 569 222 583 250 q 519 147 551 179 q 446 96 486 114 q 361 75 406 78 l 361 4 q 353 -15 361 -7 q 333 -22 344 -22 q 315 -15 322 -22 q 307 4 307 -7 l 307 75 q 199 113 247 83 q 96 241 128 156 q 69 412 64 326 q 101 575 74 497 q 185 703 129 653 q 307 769 240 753 l 307 943 q 315 962 307 954 q 333 969 322 969 q 353 962 344 969 q 361 943 361 954 l 361 776 q 494 729 435 776 q 499 724 496 728 q 504 719 503 721 q 535 685 521 704 q 557 652 549 667 q 572 618 565 638 q 582 588 579 599 q 589 561 585 578 q 594 542 593 544 q 593 513 597 528 q 578 488 589 499 q 554 474 568 478 q 511 480 531 468 q 486 514 492 492 q 488 556 482 526 q 461 672 500 622 q 361 722 422 722 l 361 129 q 463 184 425 136 q 486 296 500 232 q 491 342 479 322 q 525 368 503 363 q 555 368 540 372 q 580 353 569 364 q 594 328 590 343 m 307 133 l 307 708 q 186 369 196 649 q 189 301 186 319 q 307 133 213 161 z "},"":{"ha":789,"x_min":54,"x_max":683,"o":"m 479 504 q 542 579 517 526 q 572 692 567 632 q 549 810 578 751 q 458 897 521 868 q 315 899 383 926 q 210 808 247 871 q 172 503 124 669 q 250 272 201 406 l 410 272 q 428 264 421 272 q 436 244 436 256 q 434 234 436 239 q 428 226 432 229 q 420 219 425 222 q 410 217 415 217 l 268 217 q 263 83 289 138 q 574 47 460 129 q 597 11 593 33 q 587 -29 600 -11 q 551 -51 574 -47 q 511 -42 529 -56 q 503 -35 510 -42 q 489 -23 496 -28 q 467 -10 482 -18 q 434 2 451 -3 q 390 10 417 7 q 331 14 363 14 q 121 -24 229 11 q 100 -25 111 -29 q 85 -11 89 -21 q 83 10 79 0 q 97 25 88 21 q 196 108 179 65 q 181 217 213 151 l 138 217 q 119 225 126 217 q 111 244 111 233 q 119 264 111 256 q 138 272 126 272 l 154 272 q 115 354 126 329 q 85 426 103 379 q 60 516 67 474 q 56 608 54 558 q 78 751 56 686 q 139 860 101 817 q 225 931 176 903 q 326 967 274 958 q 432 967 379 975 q 530 935 485 960 q 611 869 575 911 q 664 772 647 826 q 675 639 682 708 q 593 453 663 525 q 529 408 563 422 q 488 408 508 399 q 457 438 467 417 q 456 475 450 456 q 479 504 463 494 z "},"":{"ha":851,"x_min":63,"x_max":743,"o":"m 618 482 q 474 297 550 343 l 474 242 l 553 242 q 572 234 564 242 q 581 215 581 226 q 572 196 581 204 q 553 188 564 188 l 474 188 l 474 96 l 553 96 q 572 88 564 96 q 581 68 581 79 q 572 49 581 57 q 553 40 564 40 l 474 40 l 474 0 q 458 -38 474 -22 q 419 -54 442 -54 q 381 -38 396 -54 q 365 0 365 -22 l 365 40 l 286 40 q 266 49 274 40 q 258 68 258 57 q 266 88 258 79 q 286 96 274 96 l 365 96 l 365 188 l 286 188 q 266 196 274 188 q 258 215 258 204 q 266 234 258 226 q 286 242 274 242 l 365 242 l 365 281 q 201 399 272 297 q 97 644 129 500 q 71 942 64 789 q 89 980 72 965 q 128 994 106 994 q 153 986 142 993 q 172 967 165 979 q 179 943 179 956 q 267 513 196 663 q 382 369 308 424 q 426 353 400 356 q 468 363 453 351 q 569 497 517 403 q 656 716 621 592 q 686 942 690 840 q 692 963 685 954 q 712 972 700 971 q 732 965 724 972 q 740 946 740 957 q 712 753 743 894 q 618 482 681 611 z "},"":{"ha":775,"x_min":47,"x_max":669,"o":"m 622 378 q 660 289 651 336 q 660 197 669 242 q 622 110 650 151 q 554 40 594 69 q 456 -7 514 10 q 331 -22 397 -24 q 168 31 235 -17 q 75 148 101 78 q 60 305 49 218 q 121 474 71 392 q 156 499 133 493 q 197 492 178 504 q 221 458 215 479 q 214 417 226 436 q 199 399 211 411 q 138 282 151 347 q 168 113 117 185 q 324 33 219 40 q 440 49 388 29 q 521 104 492 69 q 561 181 550 139 q 558 268 572 224 q 506 347 543 313 q 431 401 475 375 q 344 448 388 426 q 285 481 300 469 q 183 647 194 542 q 246 889 167 800 q 358 960 292 942 q 486 954 425 979 q 574 861 547 929 q 574 725 597 794 q 567 708 572 724 q 550 683 563 693 q 523 671 538 674 q 493 674 508 668 q 460 703 469 682 q 458 749 450 725 q 478 775 464 764 q 503 821 499 790 q 488 879 507 851 q 431 913 468 907 q 321 878 361 918 q 282 800 286 843 q 298 728 276 749 q 385 685 319 707 q 407 678 388 685 q 433 669 426 672 q 458 660 439 667 q 488 648 478 653 q 515 635 497 643 q 543 618 532 626 q 568 599 554 610 q 592 576 582 589 q 613 550 603 564 q 642 462 640 508 q 622 378 644 415 m 357 535 q 561 442 492 499 q 531 501 557 476 q 465 542 504 526 q 385 571 426 557 q 302 606 344 585 q 236 653 260 626 q 357 533 254 565 l 357 535 z "},"":{"ha":669,"x_min":35,"x_max":615,"o":"m 450 725 q 428 732 438 724 q 421 753 419 740 q 413 793 424 776 q 389 813 403 810 q 361 811 375 815 q 314 681 321 792 q 353 593 311 604 q 390 596 371 588 q 418 625 410 604 q 421 651 422 639 q 426 669 419 661 q 443 679 432 678 q 456 678 450 681 q 467 669 463 675 q 472 657 471 664 q 465 617 474 643 q 386 546 444 560 q 279 572 328 532 q 239 635 251 596 q 229 708 226 674 q 243 774 232 743 q 293 844 260 819 q 360 869 326 869 q 425 848 394 869 q 467 786 456 826 q 472 754 469 775 q 467 735 474 743 q 450 725 460 726 m 197 947 q 311 983 251 978 q 424 968 371 988 q 522 912 478 949 q 590 818 565 875 q 614 694 615 761 q 537 512 610 590 q 349 425 464 433 l 347 425 l 347 425 q 208 455 271 422 q 106 543 144 488 q 63 767 35 646 q 197 947 90 888 m 338 507 q 499 561 436 499 q 560 708 563 624 q 511 834 556 783 q 409 897 467 885 q 290 887 351 910 q 193 807 228 864 q 172 648 147 733 q 282 524 197 563 q 338 507 308 513 z "},"":{"ha":392,"x_min":44,"x_max":338,"o":"m 333 729 q 335 714 336 722 q 332 699 335 706 q 323 686 329 692 q 310 676 317 681 q 278 678 293 671 q 257 701 263 685 q 249 747 251 714 q 211 708 232 721 q 93 719 146 667 q 58 842 44 768 q 108 931 67 893 q 189 967 146 964 q 268 936 232 969 q 294 953 275 956 q 311 944 304 951 q 317 926 318 936 q 333 729 310 790 m 242 794 q 251 872 251 815 q 234 899 249 888 q 204 913 219 911 q 158 892 181 913 q 129 846 136 871 q 153 753 110 776 q 201 754 172 742 q 242 794 229 767 z "},"":{"ha":731,"x_min":82,"x_max":649,"o":"m 190 271 l 418 39 q 434 -1 435 22 q 417 -39 433 -24 q 378 -54 401 -54 q 340 -37 356 -54 l 92 217 q 83 238 83 225 q 93 258 83 250 q 162 318 100 264 q 287 427 224 372 q 354 486 350 482 q 374 492 363 493 q 392 483 385 492 q 399 464 400 475 q 390 444 399 453 l 190 271 m 632 39 q 647 -1 647 22 q 631 -39 647 -24 q 592 -54 615 -54 q 554 -37 569 -54 l 306 217 q 297 237 297 225 q 306 257 297 249 q 325 274 306 257 q 374 317 344 292 q 437 372 403 342 q 500 426 471 401 q 549 469 529 451 q 568 486 568 486 q 588 492 576 493 q 606 483 599 492 q 613 464 614 475 q 604 444 613 453 l 404 271 l 632 39 z "},"":{"ha":0,"x_min":0,"x_max":0,"o":""},"":{"ha":669,"x_min":50,"x_max":619,"o":"m 342 847 q 453 827 403 874 q 483 704 503 781 q 440 637 474 663 q 365 608 407 611 q 418 576 396 576 q 428 574 424 576 q 437 566 433 571 q 440 556 440 561 q 434 541 440 547 q 419 535 428 535 q 383 548 407 535 q 335 588 360 561 q 328 593 332 589 l 325 557 q 322 547 325 551 q 313 540 318 542 q 303 538 308 538 q 285 557 286 539 l 265 825 q 294 867 263 858 q 342 847 326 876 m 344 656 q 389 675 368 657 q 410 726 410 693 q 410 733 410 728 l 410 735 q 344 788 399 794 q 341 763 343 778 q 336 715 339 747 q 335 671 333 683 q 336 660 335 664 q 339 656 338 657 q 342 655 340 656 q 344 656 343 654 m 196 947 q 312 983 251 979 q 423 969 372 988 q 518 914 474 950 q 585 827 563 878 q 614 718 608 776 q 592 597 619 660 q 563 545 581 569 q 524 500 546 521 q 474 463 501 479 q 415 438 447 447 q 349 425 383 428 l 347 425 l 347 425 q 213 451 274 422 q 117 526 153 479 q 66 631 82 572 q 58 749 50 690 q 102 860 67 807 q 196 947 138 914 m 522 590 q 556 675 550 628 q 549 765 563 722 q 502 844 536 808 q 419 894 468 879 q 364 903 392 901 q 256 874 304 903 q 188 799 208 844 q 164 702 167 753 q 190 604 161 651 q 269 529 218 557 q 406 511 332 494 q 522 590 479 528 z "},"":{"ha":396,"x_min":56,"x_max":342,"o":"m 199 969 q 253 958 226 969 q 299 929 279 947 q 329 885 318 911 q 340 831 340 858 q 299 733 340 774 q 199 692 257 692 q 127 710 160 692 q 75 761 94 729 q 56 831 56 793 q 97 929 56 889 q 199 969 139 969 m 153 757 q 164 751 153 757 q 198 746 174 746 q 242 757 222 746 q 274 788 263 768 q 286 831 286 808 q 260 890 286 865 q 198 915 235 915 q 135 890 161 915 q 110 831 110 865 q 122 788 110 808 q 153 757 133 768 z "},"":{"ha":324,"x_min":50,"x_max":275,"o":"m 247 613 q 267 576 275 604 q 240 557 261 553 q 233 560 238 557 q 179 569 217 568 q 114 565 142 569 l 86 561 q 79 561 82 561 q 66 576 68 564 q 76 594 64 589 q 175 722 129 614 q 217 878 221 831 q 183 924 213 911 q 123 917 153 936 q 90 853 93 897 q 111 806 89 821 q 142 796 122 797 q 160 787 153 796 q 168 767 168 778 q 155 745 167 753 q 131 743 143 738 q 55 835 58 769 q 104 938 51 900 q 221 942 157 976 l 221 940 q 267 835 272 910 q 237 725 263 792 q 172 613 211 658 q 247 613 218 622 z "},"":{"ha":349,"x_min":53,"x_max":304,"o":"m 228 794 q 288 734 272 779 q 281 641 303 689 q 206 574 258 593 q 149 565 178 564 q 93 586 119 565 q 58 644 67 607 q 59 694 53 671 q 82 736 65 718 q 125 761 99 754 q 139 763 132 764 q 151 756 146 761 q 158 743 157 750 q 155 719 163 731 q 133 708 147 708 q 106 692 118 707 q 96 650 94 676 q 156 593 100 599 q 235 654 221 589 q 225 740 246 710 q 176 768 208 763 q 169 785 168 771 q 178 806 169 800 q 201 829 194 817 q 213 865 207 842 q 208 908 218 892 q 181 928 197 925 q 133 897 150 931 q 149 842 115 861 q 163 804 175 826 q 140 789 156 790 q 114 801 125 788 q 91 856 93 825 q 102 910 89 886 q 143 948 115 935 q 203 951 171 961 q 260 868 264 933 q 228 794 257 825 z "},"":{"ha":328,"x_min":47,"x_max":274,"o":"m 222 594 q 257 592 243 597 q 272 581 271 588 q 269 567 272 574 q 250 565 261 557 q 187 562 242 571 q 113 564 132 553 q 108 583 100 571 q 126 588 115 594 q 168 586 135 582 q 168 653 165 597 q 178 753 171 704 q 190 828 185 803 q 199 876 196 854 q 197 909 201 899 q 181 925 193 919 l 181 925 q 133 920 163 932 q 94 875 104 908 q 96 830 88 850 q 122 808 104 810 q 140 810 128 807 q 161 806 151 813 q 174 789 171 800 q 167 766 176 776 q 146 756 158 756 q 74 788 96 758 q 58 866 49 818 q 107 939 67 914 q 176 955 136 960 q 232 914 215 950 q 242 879 239 899 q 243 830 244 860 q 240 773 242 800 q 232 692 238 746 q 222 594 226 639 z "},"":{"ha":350,"x_min":54,"x_max":299,"o":"m 185 964 q 256 917 228 960 q 291 822 283 874 q 293 721 299 771 q 249 596 285 640 q 167 560 213 551 q 117 586 139 564 q 81 641 94 608 q 60 713 67 674 q 58 792 54 753 q 76 869 61 832 q 114 932 90 906 q 183 964 144 964 l 185 964 m 149 621 q 229 626 189 572 q 268 779 272 685 q 235 888 265 843 q 149 901 190 953 q 111 760 111 853 q 149 621 111 668 z "},"":{"ha":731,"x_min":82,"x_max":649,"o":"m 638 258 q 647 238 646 250 q 640 218 649 226 q 639 217 640 218 l 390 -37 q 352 -54 375 -54 q 313 -39 329 -54 q 297 -1 297 -24 q 313 39 297 22 l 540 271 l 340 444 q 331 464 332 453 q 338 483 331 475 q 357 492 346 492 q 376 486 368 493 q 638 258 551 333 m 424 258 q 434 238 433 250 q 425 217 435 226 l 176 -37 q 138 -54 161 -54 q 99 -39 115 -54 q 83 -1 83 -24 q 99 39 83 22 l 326 271 l 126 444 q 117 464 118 453 q 124 483 117 475 q 143 492 132 492 q 163 486 154 493 q 292 374 167 483 q 424 258 418 264 z "},"":{"ha":656,"x_min":-51,"x_max":564,"o":"m 303 864 q 297 857 303 864 q 271 850 290 850 q 238 864 251 850 q 225 897 225 878 q 238 929 225 915 q 271 943 251 943 q 303 929 290 943 q 317 897 317 915 q 303 864 317 878 m 538 315 q 498 102 563 201 q 314 -21 433 3 q 192 -26 250 -35 q 92 10 135 -17 q 17 74 50 36 q -31 158 -17 113 q -49 253 -46 204 q -31 347 -51 301 q 22 435 -15 389 q 103 511 58 482 q 154 538 128 526 q 197 555 181 550 q 226 567 214 560 q 239 582 238 574 q 244 651 243 600 q 244 733 246 701 q 251 753 243 744 q 269 763 258 763 q 291 755 282 764 q 299 733 300 746 q 299 625 292 667 q 294 552 306 583 q 240 496 283 521 q 223 485 239 494 q 203 475 207 476 q 187 465 200 474 q 169 451 174 456 q 152 436 164 446 q 134 417 140 426 q 117 394 128 407 q 98 366 107 382 q 79 332 89 350 q 60 240 57 290 q 83 145 64 190 q 144 67 103 100 q 238 29 185 35 q 333 40 289 25 q 403 84 376 56 q 445 147 431 113 q 458 216 460 181 q 438 278 456 251 q 437 281 438 279 q 435 283 436 282 q 428 325 422 303 q 453 360 433 347 q 504 363 478 375 q 536 322 531 351 q 538 315 536 321 z "},"":{"ha":1217,"x_min":54,"x_max":1176,"o":"m 943 1049 l 747 1272 q 741 1292 740 1281 q 750 1310 742 1303 q 769 1317 758 1318 q 788 1308 781 1317 l 985 1085 q 991 1065 992 1076 q 982 1046 990 1054 q 964 1040 974 1040 q 943 1049 951 1040 m 1175 -175 q 1169 -197 1176 -187 q 1151 -207 1163 -206 q 1118 -206 1146 -208 q 1049 -186 1079 -203 q 998 -139 1018 -169 q 963 -76 978 -108 q 940 4 947 -43 q 928 90 932 51 q 924 183 924 129 q 925 272 924 238 q 929 356 926 306 q 665 361 786 319 q 649 176 657 242 q 540 -42 631 42 q 310 -125 450 -125 q 127 -32 200 -125 q 72 197 54 61 q 140 360 85 294 q 265 449 196 426 q 404 457 335 472 q 535 371 493 438 q 556 192 576 304 q 554 186 556 189 q 531 146 551 161 q 486 133 511 131 q 446 156 461 136 q 433 201 431 176 q 453 240 436 222 q 478 289 472 261 q 475 344 485 317 q 431 391 463 374 q 359 406 399 408 q 281 385 319 404 q 215 315 243 365 q 181 194 186 265 q 185 85 175 135 q 228 -1 196 36 q 313 -49 261 -39 l 360 -54 q 458 -32 414 -53 q 518 13 490 -15 q 594 144 575 68 q 624 379 613 221 q 506 476 550 415 q 449 607 461 536 q 444 646 446 624 q 448 678 442 664 q 466 700 454 692 q 493 710 478 708 q 543 690 524 714 q 553 638 563 667 q 556 527 535 582 q 628 438 578 472 q 629 469 628 447 q 635 550 633 522 q 642 626 638 578 q 653 703 647 675 q 668 770 658 731 q 691 834 678 810 q 722 885 704 858 q 762 928 739 911 q 814 956 785 944 q 887 970 853 969 q 953 954 921 971 q 1010 902 986 938 q 1050 805 1035 867 q 1068 658 1065 743 q 1051 321 1069 542 q 1042 -15 1033 100 q 1110 -151 1049 -135 q 1143 -153 1125 -156 q 1154 -153 1149 -151 q 1164 -158 1160 -154 q 1171 -166 1168 -161 q 1175 -175 1174 -171 m 932 413 q 936 476 933 435 q 944 795 954 689 q 874 904 935 901 q 825 898 847 904 q 785 876 803 892 q 754 843 768 860 q 729 798 740 826 q 710 746 718 769 q 695 685 701 722 q 685 621 689 647 q 677 551 681 594 q 672 482 674 507 q 668 413 671 457 q 745 388 706 394 q 817 385 785 382 q 873 393 849 388 q 915 406 897 399 q 932 413 932 413 z "},"":{"ha":1217,"x_min":54,"x_max":1176,"o":"m 782 1046 q 773 1065 774 1054 q 779 1085 772 1076 l 975 1308 q 994 1317 983 1317 q 1014 1310 1006 1318 q 1023 1292 1022 1303 q 1017 1272 1024 1281 l 821 1049 q 800 1040 813 1040 q 782 1046 789 1040 m 1163 -158 q 1168 -162 1163 -158 q 1174 -176 1172 -165 q 1169 -197 1176 -187 q 1151 -207 1163 -206 q 1118 -206 1146 -208 q 1049 -186 1079 -203 q 998 -139 1018 -169 q 963 -76 978 -108 q 940 4 947 -43 q 928 90 932 51 q 924 183 924 129 q 925 272 924 238 q 929 356 926 306 q 665 361 786 319 q 649 176 657 242 q 540 -42 631 42 q 310 -125 450 -125 q 127 -32 200 -125 q 72 197 54 61 q 140 360 85 294 q 265 449 196 426 q 404 457 335 472 q 535 371 493 438 q 556 192 576 304 q 554 186 556 189 q 531 146 551 161 q 486 133 511 131 q 446 156 461 136 q 433 201 431 176 q 453 240 436 222 q 478 289 472 261 q 475 344 485 317 q 431 391 463 374 q 359 406 399 408 q 281 385 319 404 q 215 315 243 365 q 181 194 186 265 q 185 85 175 135 q 228 -1 196 36 q 313 -49 261 -39 l 360 -54 q 458 -32 414 -53 q 518 13 490 -15 q 560 65 543 36 q 587 123 576 94 q 604 197 597 151 q 615 278 611 242 q 624 379 618 314 q 506 476 550 415 q 449 607 461 536 q 444 646 446 624 q 456 690 440 672 q 493 710 471 708 q 543 690 524 714 q 553 638 563 667 q 556 527 535 582 q 628 438 578 472 q 629 469 628 447 q 635 550 633 522 q 642 626 638 578 q 653 703 647 675 q 668 770 658 731 q 691 834 678 810 q 722 885 704 858 q 762 928 739 911 q 814 956 785 944 q 887 970 853 969 q 953 954 921 971 q 1010 902 986 938 q 1050 805 1035 867 q 1068 658 1065 743 q 1051 321 1069 542 q 1042 -15 1033 100 q 1110 -151 1049 -135 q 1143 -153 1125 -156 q 1163 -158 1154 -151 m 932 413 q 936 476 933 435 q 944 795 954 689 q 874 904 935 901 q 825 898 847 904 q 785 876 803 892 q 754 843 768 860 q 729 798 740 826 q 710 746 718 769 q 695 685 701 722 q 685 621 689 647 q 677 551 681 594 q 672 482 674 507 q 668 413 671 457 q 745 388 706 394 q 817 385 785 382 q 873 393 849 388 q 915 406 897 399 q 932 413 932 413 z "},"":{"ha":1217,"x_min":54,"x_max":1176,"o":"m 711 1040 q 706 1039 711 1040 q 691 1044 700 1038 q 680 1063 682 1051 q 685 1083 678 1074 l 846 1306 l 857 1321 q 879 1335 865 1332 q 906 1329 893 1338 q 914 1319 910 1325 l 1054 1096 q 1062 1055 1067 1076 q 1038 1021 1057 1033 q 996 1013 1018 1008 q 963 1038 974 1018 l 849 1218 l 729 1051 q 711 1040 722 1042 m 1169 -162 q 1171 -165 1169 -162 q 1174 -176 1174 -168 q 1173 -190 1175 -183 q 1165 -201 1171 -197 q 1151 -207 1160 -206 q 1118 -206 1146 -208 q 1049 -186 1079 -203 q 998 -139 1018 -169 q 963 -76 978 -108 q 940 4 947 -43 q 928 90 932 51 q 924 183 924 129 q 925 272 924 238 q 929 356 926 306 q 665 361 786 319 q 649 176 657 242 q 540 -42 631 42 q 310 -125 450 -125 q 127 -32 200 -125 q 72 197 54 61 q 140 360 85 294 q 265 449 196 426 q 404 457 335 472 q 535 371 493 438 q 556 192 576 304 q 554 186 556 189 q 531 146 551 161 q 486 133 511 131 q 446 156 461 136 q 433 201 431 176 q 453 240 436 222 q 478 289 472 261 q 475 344 485 317 q 431 391 463 374 q 359 406 399 408 q 281 385 319 404 q 215 315 243 365 q 181 194 186 265 q 204 34 172 101 q 313 -49 236 -33 l 360 -54 q 458 -32 414 -53 q 518 13 490 -15 q 594 144 575 68 q 624 379 613 221 q 506 476 550 415 q 449 607 461 536 q 444 646 446 624 q 448 678 442 664 q 466 700 454 692 q 493 710 478 708 q 543 690 524 714 q 553 638 563 667 q 556 527 535 582 q 628 438 578 472 q 629 469 628 447 q 635 550 633 522 q 642 626 638 578 q 653 703 647 675 q 668 770 658 731 q 691 834 678 810 q 722 885 704 858 q 762 928 739 911 q 814 956 785 944 q 887 970 853 969 q 953 954 921 971 q 1010 902 986 938 q 1050 805 1035 867 q 1068 658 1065 743 q 1051 321 1069 542 q 1042 -15 1033 100 q 1110 -151 1049 -135 q 1143 -153 1125 -156 q 1157 -154 1150 -151 q 1169 -162 1164 -157 m 932 413 q 936 476 933 435 q 944 795 954 689 q 874 904 935 901 q 825 898 847 904 q 785 876 803 892 q 754 843 768 860 q 729 798 740 826 q 710 746 718 769 q 695 685 701 722 q 685 621 689 647 q 677 551 681 594 q 672 482 674 507 q 668 413 671 457 q 745 388 706 394 q 817 385 785 382 q 873 393 849 388 q 915 406 897 399 q 932 413 932 413 z "},"":{"ha":1217,"x_min":54,"x_max":1176,"o":"m 651 1038 q 630 1046 639 1036 q 622 1068 621 1056 q 624 1079 622 1072 q 633 1143 629 1119 q 649 1203 638 1167 q 678 1267 660 1240 q 722 1311 696 1294 q 814 1326 764 1338 l 814 1325 l 815 1325 q 859 1303 839 1319 q 892 1262 879 1286 q 915 1215 906 1238 q 932 1169 924 1193 q 946 1135 940 1144 q 971 1113 954 1118 q 1001 1112 988 1108 q 1022 1121 1015 1115 q 1055 1161 1042 1133 q 1074 1223 1068 1189 q 1075 1290 1079 1257 q 1081 1310 1074 1301 q 1100 1320 1089 1319 q 1120 1314 1111 1321 q 1129 1296 1129 1307 q 1126 1258 1129 1294 q 1113 1174 1121 1210 q 1083 1100 1104 1139 q 1028 1042 1061 1061 q 967 1024 1003 1028 l 965 1024 l 964 1024 q 920 1031 940 1024 q 885 1048 900 1039 q 858 1075 871 1057 q 838 1105 844 1093 q 823 1141 831 1117 q 813 1174 815 1165 q 806 1206 811 1182 q 800 1231 800 1231 q 753 1260 792 1269 q 697 1197 719 1251 q 676 1068 674 1142 q 670 1046 678 1054 q 651 1038 663 1038 m 1163 -158 q 1168 -162 1163 -158 q 1174 -176 1172 -165 q 1169 -197 1176 -187 q 1151 -207 1163 -206 q 1118 -206 1146 -208 q 1049 -186 1079 -203 q 998 -139 1018 -169 q 963 -76 978 -108 q 940 4 947 -43 q 928 90 933 51 q 924 183 924 129 q 925 272 924 238 q 929 356 926 306 q 665 361 786 319 q 649 176 657 242 q 540 -42 631 42 q 310 -125 450 -125 q 127 -32 200 -125 q 72 197 54 61 q 140 360 85 294 q 265 449 196 426 q 404 457 335 472 q 535 371 493 438 q 556 192 576 304 q 554 186 556 189 q 543 157 553 169 q 518 138 533 144 q 487 133 503 131 q 458 145 471 135 q 438 170 444 156 q 433 201 432 185 q 453 240 436 222 q 478 289 472 261 q 475 344 485 317 q 431 391 463 374 q 359 406 399 408 q 281 385 319 404 q 215 315 243 365 q 181 194 186 265 q 185 85 175 135 q 228 -1 196 36 q 313 -49 261 -39 l 360 -54 q 458 -32 415 -53 q 518 13 490 -15 q 594 144 575 68 q 624 379 613 221 q 538 440 575 403 q 478 519 500 476 q 449 607 457 561 q 444 646 446 624 q 448 678 442 664 q 466 700 454 692 q 493 710 478 708 q 543 690 524 714 q 553 638 563 667 q 556 527 535 582 q 628 438 578 472 q 629 469 628 447 q 635 550 633 522 q 642 626 638 578 q 653 703 647 675 q 668 770 658 731 q 691 834 678 810 q 722 885 704 858 q 762 928 739 911 q 814 956 785 944 q 887 970 853 969 q 953 954 921 971 q 1010 902 986 938 q 1050 805 1035 867 q 1068 658 1065 743 q 1051 321 1069 542 q 1042 -15 1033 100 q 1110 -151 1049 -135 q 1143 -153 1125 -156 q 1163 -158 1154 -151 m 932 413 q 936 476 933 435 q 944 795 954 689 q 874 904 935 901 q 825 898 847 904 q 785 876 803 892 q 754 843 768 860 q 729 798 740 826 q 710 746 718 769 q 695 685 701 722 q 685 621 689 647 q 677 551 681 594 q 672 482 674 507 q 668 413 671 457 q 745 388 706 394 q 817 385 785 382 q 873 393 849 388 q 915 406 897 399 q 932 413 932 413 z "},"":{"ha":1217,"x_min":54,"x_max":1176,"o":"m 760 1067 q 715 1079 736 1067 q 683 1112 694 1092 q 671 1157 671 1132 q 697 1219 671 1193 q 760 1246 724 1246 q 824 1219 797 1246 q 850 1156 850 1193 q 824 1093 850 1119 q 760 1067 797 1067 m 992 1067 q 928 1093 954 1067 q 903 1156 903 1119 q 928 1219 903 1193 q 991 1246 954 1246 q 1054 1219 1028 1246 q 1081 1157 1081 1193 q 1069 1112 1081 1132 q 1036 1079 1057 1092 q 992 1067 1015 1067 m 1163 -158 q 1168 -162 1163 -158 q 1174 -176 1172 -165 q 1169 -197 1176 -187 q 1151 -207 1163 -206 q 1118 -206 1146 -208 q 1049 -186 1079 -203 q 998 -139 1018 -169 q 963 -76 978 -108 q 940 4 947 -43 q 928 90 932 51 q 924 183 924 129 q 925 272 924 238 q 929 356 926 306 q 665 361 786 319 q 649 176 657 242 q 540 -42 631 42 q 310 -125 450 -125 q 127 -32 200 -125 q 72 197 54 61 q 140 360 85 294 q 265 449 196 426 q 404 457 335 472 q 535 371 493 438 q 556 192 576 304 q 554 186 556 189 q 531 146 551 161 q 486 133 511 131 q 446 156 461 136 q 433 201 431 176 q 453 240 436 222 q 478 289 472 261 q 475 344 485 317 q 431 391 463 374 q 359 406 399 408 q 281 385 319 404 q 215 315 243 365 q 181 194 186 265 q 204 34 172 101 q 313 -49 236 -33 l 360 -54 q 458 -32 414 -53 q 518 13 490 -15 q 594 144 575 68 q 624 379 613 221 q 506 476 550 415 q 449 607 461 536 q 444 646 446 624 q 448 678 442 664 q 466 700 454 692 q 493 710 478 708 q 543 690 524 714 q 553 638 563 667 q 556 527 535 582 q 628 438 578 472 q 629 469 628 447 q 635 550 633 522 q 642 626 638 578 q 653 703 647 675 q 668 770 658 731 q 691 834 678 810 q 722 885 704 858 q 762 928 739 911 q 814 956 785 944 q 887 970 853 969 q 953 954 921 971 q 1010 902 986 938 q 1050 805 1035 867 q 1068 658 1065 743 q 1051 321 1069 542 q 1042 -15 1033 100 q 1110 -151 1049 -135 q 1143 -153 1125 -156 q 1163 -158 1154 -151 m 932 413 q 936 476 933 435 q 944 795 954 689 q 874 904 935 901 q 825 898 847 904 q 785 876 803 892 q 754 843 768 860 q 729 798 740 826 q 710 746 718 769 q 695 685 701 722 q 685 621 689 647 q 677 551 681 594 q 672 482 674 507 q 668 413 671 457 q 745 388 706 394 q 817 385 785 382 q 873 393 849 388 q 915 406 897 399 q 932 413 932 413 z "},"":{"ha":1217,"x_min":54,"x_max":1176,"o":"m 981 1083 q 960 1063 981 1083 q 884 1043 940 1043 q 788 1083 828 1043 q 747 1180 747 1124 q 788 1276 747 1236 q 884 1317 828 1317 q 981 1276 940 1317 q 1021 1180 1021 1236 q 981 1083 1021 1124 m 942 1238 q 930 1250 942 1238 q 884 1263 918 1263 q 826 1238 850 1263 q 801 1180 801 1214 q 826 1122 801 1146 q 884 1097 850 1097 q 942 1122 918 1097 q 967 1180 967 1146 q 942 1238 967 1214 m 1175 -175 q 1169 -197 1176 -187 q 1151 -207 1163 -206 q 1118 -206 1146 -208 q 1049 -186 1079 -203 q 998 -139 1018 -169 q 963 -76 978 -108 q 940 4 947 -43 q 928 90 932 51 q 924 183 924 129 q 925 272 924 238 q 929 356 926 306 q 665 361 786 319 q 649 176 657 242 q 540 -42 631 42 q 310 -125 450 -125 q 127 -32 200 -125 q 72 197 54 61 q 140 360 85 294 q 265 449 196 426 q 404 457 335 472 q 535 371 493 438 q 556 192 576 304 q 554 186 556 189 q 531 146 551 161 q 486 133 511 131 q 446 156 461 136 q 433 201 431 176 q 453 240 436 222 q 478 289 472 261 q 475 344 485 317 q 431 391 463 374 q 359 406 399 408 q 281 385 319 404 q 215 315 243 365 q 181 194 186 265 q 185 85 175 135 q 228 -1 196 36 q 313 -49 261 -39 l 360 -54 q 458 -32 414 -53 q 518 13 490 -15 q 594 144 575 68 q 624 379 613 221 q 506 476 550 415 q 449 607 461 536 q 444 646 446 624 q 448 678 442 664 q 466 700 454 692 q 493 710 478 708 q 543 690 524 714 q 553 638 563 667 q 556 527 535 582 q 628 438 578 472 q 629 469 628 447 q 635 550 633 522 q 642 626 638 578 q 653 703 647 675 q 668 770 658 731 q 691 834 678 810 q 722 885 704 858 q 762 928 739 911 q 814 956 785 944 q 887 970 853 969 q 953 954 921 971 q 1010 902 986 938 q 1050 805 1035 867 q 1068 658 1065 743 q 1051 321 1069 542 q 1042 -15 1033 100 q 1110 -151 1049 -135 q 1143 -153 1125 -156 q 1154 -153 1149 -151 q 1164 -158 1160 -154 q 1171 -166 1168 -161 q 1175 -175 1174 -171 m 932 413 q 946 786 950 718 q 881 903 938 894 q 874 904 878 904 q 825 898 847 904 q 785 876 803 892 q 754 843 768 860 q 729 798 740 826 q 710 746 718 769 q 695 685 701 722 q 685 621 689 647 q 677 551 681 594 q 672 482 674 507 q 668 413 671 457 q 745 388 706 394 q 817 385 785 382 q 873 393 849 388 q 915 406 897 399 q 932 413 932 413 z "},"":{"ha":1653,"x_min":54,"x_max":1690,"o":"m 1667 236 q 1684 224 1678 235 q 1688 203 1690 214 q 1299 -219 1579 -174 q 1047 -158 1136 -244 q 1044 -156 1044 -157 q 969 -49 997 -112 q 934 81 942 15 q 924 219 926 146 q 929 356 922 292 q 665 361 786 319 q 649 176 657 242 q 540 -42 631 42 q 310 -125 450 -125 q 127 -32 200 -125 q 72 197 54 61 q 140 360 85 294 q 265 449 196 426 q 404 457 335 472 q 535 371 493 438 q 556 192 576 304 q 554 186 556 189 q 531 146 551 161 q 486 133 511 131 q 446 156 461 136 q 433 201 431 176 q 453 240 436 222 q 478 289 472 261 q 475 344 485 317 q 431 391 463 374 q 359 406 399 408 q 281 385 319 404 q 215 315 243 365 q 181 194 186 265 q 204 34 172 101 q 313 -49 236 -33 l 360 -54 q 458 -31 414 -53 q 518 13 490 -15 q 567 76 549 42 q 597 160 586 110 q 613 254 608 211 q 624 379 618 297 q 506 476 550 415 q 449 607 461 536 q 444 646 446 624 q 448 678 442 664 q 466 700 454 692 q 493 710 478 708 q 543 690 524 714 q 553 638 563 667 q 556 527 535 582 q 628 438 578 472 q 629 469 628 447 q 635 550 633 522 q 642 626 638 578 q 653 703 647 675 q 668 770 658 731 q 691 834 678 810 q 722 885 704 858 q 762 928 739 911 q 814 956 785 944 q 886 970 851 969 q 953 954 921 971 q 1010 903 986 938 q 1050 808 1035 869 q 1068 663 1065 746 q 1185 636 1118 633 q 1151 749 1157 689 q 1167 863 1146 808 q 1233 950 1188 918 q 1408 961 1318 1008 q 1500 844 1483 922 q 1411 658 1522 740 q 1303 600 1367 625 q 1329 556 1314 576 q 1351 526 1344 536 q 1354 503 1357 515 q 1342 486 1351 493 q 1315 482 1332 479 l 1285 488 q 1099 396 1165 493 q 1068 340 1081 371 q 1046 249 1053 300 q 1040 169 1042 204 q 1081 -13 1042 68 q 1204 -126 1121 -94 q 1282 -140 1240 -139 q 1513 -36 1424 -133 q 1633 215 1603 61 q 1646 233 1636 226 q 1667 236 1656 239 m 1311 896 q 1267 832 1278 876 q 1261 745 1256 788 q 1281 656 1267 703 q 1446 794 1429 706 q 1410 888 1457 853 q 1311 896 1363 924 m 1068 582 q 1063 467 1067 528 q 1256 542 1144 538 q 1225 576 1239 560 q 1068 582 1139 560 m 944 629 q 945 679 949 635 q 937 775 942 724 q 910 867 932 826 q 853 903 888 907 q 801 887 825 900 q 760 849 778 874 q 730 799 743 825 q 707 733 717 774 q 691 660 697 692 q 680 578 685 629 q 673 497 675 528 q 668 413 671 467 q 745 388 706 394 q 817 385 785 382 q 873 393 849 388 q 915 406 897 399 q 932 413 932 413 q 944 629 943 600 z "},"":{"ha":1042,"x_min":68,"x_max":1079,"o":"m 1056 236 q 1072 224 1067 233 q 1075 203 1078 214 q 1022 50 1051 115 q 948 -73 992 -15 q 842 -165 904 -131 q 699 -208 779 -199 q 636 -211 667 -212 q 640 -226 638 -221 q 646 -235 642 -231 q 660 -246 650 -239 q 688 -265 679 -258 q 710 -294 697 -272 q 724 -342 722 -315 q 722 -356 724 -346 l 722 -357 q 662 -456 714 -419 q 548 -486 610 -493 q 453 -429 486 -479 q 423 -351 426 -392 q 443 -275 419 -311 q 491 -257 465 -247 q 524 -294 517 -267 q 518 -342 531 -322 q 511 -412 486 -378 q 550 -437 525 -432 q 599 -437 575 -443 q 642 -411 624 -431 q 663 -365 660 -392 q 651 -329 664 -340 q 628 -316 647 -325 q 592 -297 608 -307 q 560 -261 575 -286 q 546 -201 546 -236 q 546 -196 546 -199 q 438 -137 486 -178 q 324 21 365 -79 q 273 221 283 121 q 274 426 263 321 q 145 531 194 463 q 78 689 96 599 q 69 786 69 729 q 85 825 69 808 q 124 842 101 842 q 167 821 150 842 q 178 774 183 800 q 185 606 156 682 q 281 488 215 529 q 319 643 293 568 q 397 801 349 731 q 517 922 444 872 q 672 976 589 972 q 675 976 674 976 q 805 941 751 979 q 878 843 858 903 q 883 708 897 783 q 819 564 869 632 q 740 484 786 518 q 646 433 693 450 q 548 404 599 415 q 455 394 497 393 q 376 399 413 396 q 371 267 372 333 q 383 133 369 200 q 420 13 397 67 q 487 -82 443 -42 q 590 -139 531 -122 q 657 -148 621 -147 q 733 -142 693 -149 q 815 -115 774 -136 q 890 -61 856 -94 q 1022 215 981 29 q 1035 233 1025 226 q 1056 236 1044 239 m 504 778 q 383 450 414 642 q 524 449 454 440 q 639 478 593 457 q 778 585 724 514 q 840 756 832 657 q 833 813 843 783 q 801 869 824 843 q 744 906 779 896 q 661 904 710 915 q 504 778 576 883 z "},"":{"ha":843,"x_min":68,"x_max":881,"o":"m 608 1049 l 411 1272 q 405 1292 404 1281 q 414 1310 406 1303 q 434 1317 422 1318 q 453 1308 446 1317 l 649 1085 q 655 1065 656 1076 q 646 1046 654 1054 q 628 1040 639 1040 q 608 1049 615 1040 m 856 236 q 873 224 867 235 q 876 203 879 214 q 489 -219 767 -183 q 297 -185 385 -233 q 184 -76 228 -146 q 128 72 140 -7 q 130 234 115 151 q 183 383 144 317 q 291 494 222 450 q 446 542 360 539 q 414 576 428 560 q 267 579 335 561 q 158 638 200 597 q 94 728 117 679 q 69 828 71 778 q 71 854 69 836 q 88 892 71 876 q 127 906 104 907 q 165 888 150 906 q 179 849 181 871 q 176 832 179 843 q 178 772 169 806 q 208 707 186 739 q 274 654 231 675 q 374 636 318 633 q 340 749 346 689 q 356 863 335 808 q 422 950 376 918 q 599 961 508 1008 q 689 844 672 922 q 601 658 711 740 q 492 600 556 625 q 519 556 503 576 q 540 526 535 536 q 543 503 546 515 q 531 486 540 493 q 504 482 521 479 l 474 488 q 288 396 354 493 q 258 340 271 371 q 232 222 238 289 q 238 85 226 154 q 289 -43 249 15 q 393 -126 329 -101 q 471 -140 431 -139 q 702 -36 613 -133 q 824 215 792 61 q 835 233 826 226 q 856 236 844 239 m 500 896 q 456 832 467 876 q 450 745 444 788 q 469 656 456 703 q 636 794 619 706 q 599 888 646 853 q 501 896 551 924 l 500 896 z "},"":{"ha":843,"x_min":68,"x_max":881,"o":"m 483 1046 q 473 1065 474 1054 q 481 1085 472 1076 l 676 1308 q 694 1317 683 1317 q 715 1310 706 1318 q 724 1292 724 1303 q 717 1272 725 1281 l 521 1049 q 500 1040 513 1040 q 483 1046 490 1040 m 856 236 q 873 224 867 235 q 876 203 879 214 q 489 -219 767 -183 q 297 -185 385 -233 q 184 -76 228 -146 q 128 72 140 -7 q 130 234 115 151 q 183 383 144 317 q 291 494 222 450 q 446 542 360 539 q 414 576 428 560 q 267 579 335 561 q 158 638 200 597 q 94 728 117 679 q 69 828 71 778 q 71 854 69 836 q 88 892 71 876 q 128 906 104 907 q 154 897 142 906 q 174 876 167 889 q 179 849 181 864 q 176 832 179 843 q 178 772 169 806 q 208 707 186 739 q 274 654 231 675 q 374 636 318 633 q 340 749 346 689 q 356 863 335 808 q 422 950 376 918 q 599 961 508 1008 q 689 844 672 922 q 601 658 711 740 q 492 600 556 625 q 519 556 503 576 q 540 526 535 536 q 543 503 546 515 q 531 486 540 493 q 504 482 521 479 l 474 488 q 288 396 354 493 q 258 340 271 371 q 232 222 238 289 q 238 85 226 154 q 289 -43 249 15 q 393 -126 329 -101 q 471 -140 431 -139 q 702 -36 613 -133 q 824 215 792 61 q 835 233 826 226 q 856 236 844 239 m 500 896 q 456 832 467 876 q 450 745 444 788 q 469 656 456 703 q 636 794 619 706 q 599 888 646 853 q 501 896 551 924 l 500 896 z "},"":{"ha":843,"x_min":68,"x_max":881,"o":"m 372 1040 q 367 1039 372 1040 q 352 1044 361 1038 q 341 1063 343 1051 q 346 1083 339 1074 l 507 1306 l 518 1321 q 540 1335 526 1332 q 567 1329 554 1338 q 575 1319 571 1325 l 715 1096 q 723 1055 728 1076 q 699 1021 718 1033 q 658 1013 679 1008 q 624 1038 636 1018 l 510 1218 l 390 1051 q 372 1040 383 1042 m 856 236 q 873 224 867 235 q 876 203 879 214 q 489 -219 767 -183 q 297 -185 385 -233 q 184 -76 228 -146 q 128 72 140 -7 q 130 234 115 151 q 183 383 144 317 q 291 494 222 450 q 446 542 360 539 q 414 576 428 560 q 267 579 335 561 q 158 638 200 597 q 94 728 117 679 q 69 828 71 778 q 71 854 69 836 q 88 892 71 876 q 128 906 104 907 q 154 897 142 906 q 174 876 167 889 q 179 849 181 864 q 176 832 179 843 q 178 772 169 806 q 208 707 186 739 q 274 654 231 675 q 374 636 318 633 q 340 749 346 689 q 356 863 335 808 q 422 950 376 918 q 599 961 508 1008 q 689 844 672 922 q 601 658 711 740 q 492 600 556 625 q 519 556 503 576 q 540 526 535 536 q 543 503 546 515 q 531 486 540 493 q 504 482 521 479 l 474 488 q 288 396 354 493 q 258 340 271 371 q 232 222 238 289 q 238 85 226 154 q 289 -43 249 15 q 393 -126 329 -101 q 471 -140 431 -139 q 702 -36 613 -133 q 824 215 792 61 q 835 233 826 226 q 856 236 844 239 m 500 896 q 456 832 467 876 q 450 745 444 788 q 469 656 456 703 q 636 794 619 706 q 599 888 646 853 q 501 896 551 924 l 500 896 z "},"":{"ha":843,"x_min":68,"x_max":881,"o":"m 417 1096 q 372 1108 392 1096 q 340 1140 351 1119 q 328 1185 328 1161 q 353 1248 328 1222 q 416 1274 379 1274 q 479 1248 453 1274 q 506 1185 506 1222 q 479 1122 506 1149 q 417 1096 453 1096 m 647 1096 q 603 1108 624 1096 q 570 1140 582 1119 q 558 1185 558 1161 q 585 1248 558 1222 q 648 1274 611 1274 q 711 1248 685 1274 q 738 1185 738 1222 q 711 1122 738 1149 q 647 1096 685 1096 m 856 236 q 873 224 867 235 q 876 203 879 214 q 489 -219 767 -183 q 297 -185 385 -233 q 184 -76 228 -146 q 128 72 140 -7 q 130 234 115 151 q 183 383 144 317 q 291 494 222 450 q 446 542 360 539 q 414 576 428 560 q 267 579 335 561 q 158 638 200 597 q 94 728 117 679 q 69 828 71 778 q 71 854 69 836 q 88 892 71 876 q 128 906 104 907 q 154 897 142 906 q 174 876 167 889 q 179 849 181 864 q 176 832 179 843 q 178 772 169 806 q 208 707 186 739 q 274 654 231 675 q 374 636 318 633 q 340 749 346 689 q 356 863 335 808 q 422 950 376 918 q 599 961 508 1008 q 689 844 672 922 q 601 658 711 740 q 492 600 556 625 q 519 556 503 576 q 540 526 535 536 q 543 503 546 515 q 531 486 540 493 q 504 482 521 479 l 474 488 q 288 396 354 493 q 258 340 271 371 q 232 222 238 289 q 238 85 226 154 q 289 -43 249 15 q 393 -126 329 -101 q 471 -140 431 -139 q 641 -87 567 -136 q 759 39 715 -37 q 824 215 803 115 q 835 233 826 226 q 856 236 844 239 m 500 896 q 456 832 467 876 q 450 745 444 788 q 469 656 456 703 q 636 794 619 706 q 599 888 646 853 q 501 896 551 924 l 500 896 z "},"":{"ha":546,"x_min":26,"x_max":519,"o":"m 492 -153 q 497 -153 492 -153 q 510 -161 503 -153 q 518 -181 518 -169 q 510 -200 518 -192 q 439 -233 479 -231 q 361 -222 399 -236 q 285 -194 324 -208 q 209 -180 247 -179 q 143 -208 171 -181 q 124 -216 135 -217 q 104 -208 113 -215 q 97 -188 96 -200 q 106 -169 97 -176 q 173 -129 136 -139 q 242 -126 210 -119 q 310 -145 275 -133 q 372 -168 344 -157 q 427 -178 400 -179 q 472 -161 454 -178 q 492 -153 481 -153 m 192 906 q 74 883 118 926 q 54 876 65 876 q 35 885 43 876 q 28 904 28 893 q 36 924 28 915 q 207 958 103 988 q 233 949 211 957 q 277 934 256 942 q 300 926 299 926 q 358 913 332 913 q 404 932 385 914 q 423 939 411 939 q 442 931 435 939 q 450 912 450 924 q 442 893 450 900 q 299 869 389 842 q 300 513 299 669 q 302 305 301 356 q 301 194 303 254 q 296 46 300 135 q 310 -44 294 -17 q 371 -76 331 -85 q 391 -81 382 -75 q 403 -99 400 -87 q 397 -123 406 -112 q 371 -131 388 -133 q 283 -96 315 -124 q 224 -8 250 -68 q 189 150 194 60 q 189 463 183 240 q 190 624 190 529 q 190 808 190 718 q 192 906 190 899 m 315 1054 l 119 1278 q 112 1297 111 1286 q 122 1316 113 1308 q 142 1323 131 1324 q 160 1314 153 1322 l 356 1090 q 363 1071 364 1082 q 354 1053 363 1060 q 336 1046 346 1046 q 315 1054 324 1046 z "},"":{"ha":546,"x_min":26,"x_max":519,"o":"m 492 -153 q 497 -153 492 -153 q 510 -161 503 -153 q 518 -181 518 -169 q 510 -200 518 -192 q 439 -233 479 -231 q 361 -222 399 -236 q 285 -194 324 -208 q 209 -180 247 -179 q 143 -208 171 -181 q 124 -216 135 -217 q 104 -208 113 -215 q 97 -188 96 -200 q 106 -169 97 -176 q 173 -129 136 -139 q 242 -126 210 -119 q 310 -145 275 -133 q 372 -168 344 -157 q 427 -178 400 -179 q 472 -161 454 -178 q 492 -153 481 -153 m 192 906 q 74 883 118 926 q 54 876 65 876 q 35 885 43 876 q 28 904 28 893 q 36 924 28 915 q 207 958 103 988 q 233 949 211 957 q 277 934 256 942 q 300 926 299 926 q 358 913 332 913 q 404 932 385 914 q 423 939 411 939 q 442 931 435 939 q 450 912 450 924 q 442 893 450 900 q 299 869 389 842 q 300 513 299 669 q 302 305 301 356 q 301 194 303 254 q 296 46 300 135 q 310 -44 294 -17 q 371 -76 331 -85 q 391 -81 382 -75 q 403 -99 400 -87 q 397 -123 406 -112 q 371 -131 388 -133 q 283 -96 315 -124 q 224 -8 250 -68 q 189 150 194 60 q 189 463 183 240 q 190 624 190 529 q 190 808 190 718 q 192 906 190 899 m 165 1053 q 156 1071 157 1060 q 163 1090 156 1082 l 358 1314 q 378 1323 367 1322 q 397 1316 389 1324 q 406 1297 406 1308 q 400 1278 407 1286 l 204 1054 q 183 1046 196 1046 q 165 1053 174 1046 z "},"":{"ha":546,"x_min":26,"x_max":519,"o":"m 492 -153 q 497 -153 492 -153 q 510 -161 503 -153 q 518 -181 518 -169 q 510 -200 518 -192 q 439 -233 479 -231 q 361 -222 399 -236 q 285 -194 324 -208 q 209 -180 247 -179 q 143 -208 171 -181 q 124 -216 135 -217 q 104 -208 113 -215 q 97 -188 96 -200 q 106 -169 97 -176 q 173 -129 136 -139 q 242 -126 210 -119 q 310 -145 275 -133 q 372 -168 344 -157 q 427 -178 400 -179 q 472 -161 454 -178 q 492 -153 481 -153 m 192 906 q 74 883 118 926 q 54 876 65 876 q 35 885 43 876 q 28 904 28 893 q 36 924 28 915 q 207 958 103 988 q 233 949 211 957 q 277 934 256 942 q 300 926 299 926 q 358 913 332 913 q 404 932 385 914 q 423 939 411 939 q 442 931 435 939 q 450 912 450 924 q 442 893 450 900 q 299 869 389 842 q 300 513 299 669 q 302 305 301 356 q 301 194 303 254 q 296 46 300 135 q 310 -44 294 -17 q 371 -76 331 -85 q 391 -81 382 -75 q 403 -99 400 -87 q 397 -123 406 -112 q 371 -131 388 -133 q 283 -96 315 -124 q 224 -8 250 -68 q 189 150 194 60 q 189 463 183 240 q 190 624 190 529 q 190 808 190 718 q 192 906 190 899 m 81 1051 q 75 1050 81 1051 q 60 1056 69 1049 q 49 1074 51 1063 q 54 1093 47 1085 l 215 1317 l 226 1332 q 249 1345 235 1343 q 274 1339 263 1347 q 283 1329 279 1335 l 424 1107 q 431 1065 436 1088 q 406 1031 425 1043 q 365 1024 388 1019 q 332 1049 343 1029 l 218 1228 l 99 1061 q 81 1051 92 1053 z "},"":{"ha":546,"x_min":26,"x_max":519,"o":"m 492 -153 q 497 -153 492 -153 q 510 -161 503 -153 q 518 -181 518 -169 q 510 -200 518 -192 q 439 -233 479 -231 q 361 -222 399 -236 q 285 -194 324 -208 q 209 -180 247 -179 q 143 -208 171 -181 q 124 -216 135 -217 q 104 -208 113 -215 q 97 -188 96 -200 q 106 -169 97 -176 q 173 -129 136 -139 q 242 -126 210 -119 q 310 -145 275 -133 q 372 -168 344 -157 q 427 -178 400 -179 q 472 -161 454 -178 q 492 -153 481 -153 m 192 906 q 74 883 118 926 q 54 876 65 876 q 35 885 43 876 q 28 904 28 893 q 36 924 28 915 q 207 958 103 988 q 233 949 211 957 q 277 934 256 942 q 300 926 299 926 q 358 913 332 913 q 404 932 385 914 q 423 939 411 939 q 442 931 435 939 q 450 912 450 924 q 442 893 450 900 q 299 869 389 842 q 300 513 299 669 q 302 305 301 356 q 301 194 303 254 q 296 46 300 135 q 310 -44 294 -17 q 371 -76 331 -85 q 391 -81 382 -75 q 403 -99 400 -87 q 397 -123 406 -112 q 371 -131 388 -133 q 283 -96 315 -124 q 224 -8 250 -68 q 189 150 194 60 q 189 463 183 240 q 190 624 190 529 q 190 808 190 718 q 192 906 190 899 m 186 1097 q 173 1084 186 1097 q 123 1071 160 1071 q 60 1097 86 1071 q 33 1160 33 1124 q 60 1224 33 1197 q 123 1250 86 1250 q 186 1224 160 1250 q 213 1160 213 1197 q 186 1097 213 1124 m 354 1071 q 310 1083 331 1071 q 277 1115 289 1094 q 265 1161 265 1136 q 292 1224 265 1197 q 355 1250 318 1250 q 417 1224 392 1250 q 443 1160 443 1197 q 417 1097 443 1124 q 354 1071 392 1071 z "},"":{"ha":1283,"x_min":63,"x_max":1217,"o":"m 551 1038 q 530 1046 539 1036 q 524 1068 521 1056 q 525 1079 524 1072 q 534 1143 529 1119 q 549 1203 539 1167 q 578 1267 560 1240 q 624 1311 597 1294 q 714 1326 664 1338 l 715 1325 q 769 1292 746 1318 q 805 1240 793 1267 q 829 1179 817 1214 q 846 1135 842 1144 q 872 1113 854 1118 q 902 1112 889 1108 q 922 1121 915 1115 q 966 1190 951 1140 q 975 1290 981 1239 q 982 1310 975 1301 q 1000 1320 989 1319 q 1020 1314 1011 1321 q 1031 1296 1029 1307 q 1028 1258 1031 1294 q 1018 1195 1024 1224 q 1001 1136 1013 1167 q 972 1081 990 1106 q 928 1042 953 1057 q 867 1024 903 1028 l 865 1024 q 820 1031 840 1024 q 785 1048 800 1039 q 758 1075 771 1057 q 739 1105 746 1093 q 724 1141 732 1117 q 713 1174 715 1165 q 706 1206 711 1182 q 700 1231 700 1231 q 653 1260 692 1269 q 598 1197 621 1251 q 578 1068 575 1142 q 570 1046 578 1054 q 551 1038 563 1038 m 415 874 q 440 860 431 865 q 467 831 449 854 q 497 776 485 808 q 533 626 521 714 q 546 432 546 539 q 543 253 546 325 q 535 82 540 182 q 500 -70 528 -7 q 437 -163 472 -133 q 356 -204 401 -193 q 300 -214 338 -210 q 279 -208 288 -215 q 269 -189 271 -200 q 278 -167 268 -176 q 301 -158 288 -157 q 307 -160 301 -160 q 413 -82 392 -164 q 422 -3 421 -54 q 424 145 424 47 q 428 326 424 243 q 435 483 431 403 q 442 597 440 563 q 446 667 444 631 q 446 721 447 703 q 440 758 444 739 q 404 821 429 810 q 394 824 400 822 q 381 838 385 828 q 381 859 376 849 q 395 874 385 869 q 415 874 406 878 m 1194 969 q 1200 967 1194 969 q 1210 956 1206 965 q 1212 935 1215 946 q 1199 918 1208 924 q 1193 917 1197 918 q 1185 913 1189 915 q 1174 907 1181 911 q 1162 894 1168 903 q 1150 874 1156 886 q 1108 686 1118 817 q 1099 231 1099 556 q 1100 88 1099 157 q 1102 -19 1101 19 q 1103 -93 1103 -58 q 1105 -144 1104 -128 q 1104 -176 1106 -161 q 1100 -197 1103 -190 q 1092 -210 1097 -203 q 1070 -224 1090 -218 q 1040 -221 1050 -229 q 1024 -208 1033 -218 q 1018 -197 1021 -204 q 972 -38 1001 -160 q 897 240 943 83 q 794 526 851 397 q 708 689 754 618 q 616 804 661 760 q 524 876 571 849 q 435 911 478 904 q 353 913 393 918 q 280 888 313 907 q 221 842 247 869 q 178 778 194 814 q 152 656 149 711 q 186 568 156 601 q 263 535 217 535 q 290 528 278 535 q 310 508 303 521 q 318 481 318 496 q 303 442 318 458 q 264 425 288 426 q 243 428 257 425 q 123 497 168 440 q 70 623 78 553 q 94 772 63 693 q 192 904 125 850 q 352 969 261 961 q 517 940 443 976 q 606 885 563 919 q 686 801 649 850 q 756 703 724 751 q 819 589 788 656 q 872 472 850 522 q 920 349 894 421 q 960 235 946 276 q 994 128 974 194 q 986 308 988 228 q 989 491 985 389 q 1013 685 993 593 q 1067 849 1032 776 q 1115 924 1090 899 q 1174 968 1140 950 q 1194 969 1183 972 m 1093 -160 l 1094 -161 q 1093 -160 1093 -161 z "},"":{"ha":1219,"x_min":68,"x_max":1119,"o":"m 822 1049 l 626 1272 q 620 1292 619 1281 q 629 1310 621 1303 q 649 1317 638 1318 q 668 1308 660 1317 l 864 1085 q 870 1065 871 1076 q 861 1046 869 1054 q 843 1040 854 1040 q 822 1049 831 1040 m 1106 331 q 1050 36 1118 179 q 740 -204 956 -164 q 575 -197 650 -221 q 448 -117 500 -174 q 363 17 396 -61 q 318 192 329 96 q 138 357 204 249 q 69 607 71 465 q 69 626 69 610 q 87 664 71 649 q 125 679 103 679 q 163 663 147 679 q 179 624 179 646 q 178 606 179 622 q 176 575 176 589 q 177 537 175 561 q 184 491 179 513 q 199 441 189 469 q 226 386 210 413 q 313 289 260 331 q 342 526 313 406 q 428 740 371 647 q 543 881 481 826 q 666 956 606 936 q 786 969 726 975 q 896 935 846 964 q 984 858 946 906 q 1043 752 1022 811 q 1063 622 1064 693 q 1033 479 1061 550 q 1060 465 1049 476 q 1088 415 1074 451 q 1106 331 1101 379 m 510 697 q 444 471 465 596 q 432 228 424 346 q 576 210 500 206 q 719 243 651 215 q 847 317 786 271 q 945 422 907 363 q 1001 552 983 482 q 1000 699 1018 622 q 956 806 988 758 q 881 881 924 854 q 788 913 839 908 q 688 899 738 918 q 592 828 639 879 q 510 697 544 776 m 924 -51 q 1009 110 985 15 q 1024 281 1033 206 q 983 386 1014 356 q 747 190 897 260 q 440 150 597 119 q 490 -3 456 60 q 567 -99 524 -67 q 660 -142 610 -131 q 758 -144 710 -154 q 849 -111 806 -135 q 924 -51 892 -87 z "},"":{"ha":1219,"x_min":68,"x_max":1119,"o":"m 656 1046 q 647 1065 647 1054 q 653 1085 646 1076 l 850 1308 q 868 1317 857 1317 q 888 1310 879 1318 q 897 1292 896 1303 q 890 1272 897 1281 l 694 1049 q 674 1040 686 1040 q 656 1046 664 1040 m 1106 331 q 1050 36 1118 179 q 740 -204 956 -164 q 575 -197 650 -221 q 448 -117 500 -174 q 363 17 396 -61 q 318 192 329 96 q 138 357 204 249 q 69 607 71 465 q 69 626 69 610 q 87 664 71 649 q 125 679 103 679 q 163 663 147 679 q 179 624 179 646 q 178 606 179 622 q 176 575 176 589 q 177 537 175 561 q 184 491 179 513 q 199 441 189 469 q 226 386 210 413 q 313 289 260 331 q 342 526 313 406 q 428 740 371 647 q 543 881 481 826 q 666 956 606 936 q 786 969 726 975 q 896 935 846 964 q 984 858 946 906 q 1043 752 1022 811 q 1063 622 1064 693 q 1033 479 1061 550 q 1060 465 1049 476 q 1088 415 1074 451 q 1106 331 1101 379 m 510 697 q 444 471 465 596 q 432 228 424 346 q 576 210 500 206 q 719 243 651 215 q 847 317 786 271 q 945 422 907 363 q 1001 552 983 482 q 1000 699 1018 622 q 956 806 988 758 q 881 881 924 854 q 788 913 839 908 q 688 899 738 918 q 592 828 639 879 q 510 697 544 776 m 924 -51 q 1009 110 985 15 q 1024 281 1033 206 q 983 386 1014 356 q 747 190 897 260 q 440 150 597 119 q 490 -3 456 60 q 567 -99 524 -67 q 660 -142 610 -131 q 758 -144 710 -154 q 849 -111 806 -135 q 924 -51 892 -87 z "},"":{"ha":1219,"x_min":68,"x_max":1119,"o":"m 619 1040 q 614 1039 619 1040 q 599 1044 608 1038 q 589 1063 590 1051 q 593 1083 588 1074 l 754 1306 l 765 1321 q 788 1335 774 1332 q 814 1329 801 1338 q 822 1319 819 1325 l 963 1096 q 970 1055 975 1076 q 946 1021 965 1033 q 905 1013 926 1008 q 871 1038 883 1018 l 758 1218 l 638 1051 q 619 1040 631 1042 m 1106 331 q 1050 36 1118 179 q 740 -204 956 -164 q 575 -197 650 -221 q 448 -117 500 -174 q 363 17 396 -61 q 318 192 329 96 q 138 357 204 249 q 69 607 71 465 q 69 626 69 610 q 77 653 69 640 q 98 672 85 665 q 125 679 111 679 q 163 663 147 679 q 179 624 179 646 q 178 606 179 622 q 176 575 176 589 q 177 537 175 561 q 184 491 179 513 q 199 441 189 469 q 226 386 210 413 q 313 289 260 331 q 324 442 313 364 q 363 599 336 519 q 428 740 390 678 q 543 881 481 826 q 666 956 606 936 q 786 969 726 975 q 896 935 846 964 q 984 858 946 906 q 1043 752 1022 811 q 1063 622 1064 693 q 1033 479 1061 550 q 1060 465 1049 476 q 1077 440 1068 457 q 1094 394 1086 424 q 1106 331 1103 364 m 510 697 q 444 471 465 596 q 432 228 424 346 q 576 210 500 206 q 719 243 651 215 q 847 317 786 271 q 945 422 907 363 q 1001 552 983 482 q 1000 699 1018 622 q 956 806 988 758 q 881 881 924 854 q 788 913 839 908 q 688 899 738 918 q 592 828 639 879 q 510 697 544 776 m 924 -51 q 1009 110 985 15 q 1024 281 1033 206 q 983 386 1014 356 q 747 190 897 260 q 440 150 597 119 q 490 -3 456 60 q 567 -99 524 -67 q 660 -142 610 -131 q 758 -144 710 -154 q 849 -111 806 -135 q 924 -51 892 -87 z "},"":{"ha":1219,"x_min":68,"x_max":1119,"o":"m 572 1038 q 556 1040 564 1036 q 545 1052 549 1044 q 543 1068 542 1060 q 544 1079 543 1071 q 554 1143 550 1119 q 569 1203 558 1167 q 598 1267 579 1240 q 643 1311 617 1294 q 733 1326 683 1338 l 735 1325 l 736 1325 q 790 1292 765 1318 q 825 1240 814 1267 q 849 1179 836 1214 q 867 1135 861 1144 q 892 1113 875 1118 q 922 1112 908 1108 q 943 1121 936 1115 q 986 1190 971 1140 q 996 1290 1001 1239 q 1002 1310 994 1301 q 1021 1320 1010 1319 q 1040 1314 1032 1321 q 1050 1296 1049 1307 q 1047 1258 1050 1294 q 1017 1126 1039 1182 q 947 1042 996 1071 q 886 1024 924 1028 l 885 1024 q 840 1031 861 1024 q 806 1048 819 1039 q 778 1075 792 1057 q 758 1105 765 1093 q 744 1141 751 1117 q 733 1174 736 1165 q 726 1206 731 1182 q 721 1231 721 1231 q 674 1260 711 1269 q 617 1197 640 1251 q 597 1068 594 1142 q 591 1046 599 1054 q 572 1038 583 1038 m 1106 331 q 1050 36 1118 179 q 740 -206 956 -164 q 575 -197 650 -221 q 448 -117 500 -174 q 363 17 396 -61 q 318 192 329 96 q 188 288 243 229 q 102 429 133 347 q 69 607 71 511 q 69 626 69 610 q 77 653 69 640 q 98 672 85 665 q 125 679 111 679 q 163 663 147 679 q 179 624 179 646 q 178 606 179 622 q 176 575 176 589 q 177 537 175 561 q 184 491 179 513 q 199 441 189 469 q 226 386 210 413 q 313 289 260 331 q 342 526 313 406 q 428 740 371 647 q 543 881 481 826 q 666 956 606 936 q 786 969 726 975 q 896 935 846 964 q 984 858 946 906 q 1043 752 1022 811 q 1063 622 1064 693 q 1033 479 1061 550 q 1060 465 1049 476 q 1088 415 1074 451 q 1106 331 1101 379 m 510 697 q 444 471 465 596 q 432 228 424 346 q 576 210 500 206 q 719 243 651 215 q 847 317 786 271 q 945 422 907 363 q 1001 552 983 482 q 1000 699 1018 622 q 956 806 988 758 q 881 881 924 854 q 788 913 839 908 q 688 899 738 918 q 592 828 639 879 q 510 697 544 776 m 924 -51 q 1009 110 985 15 q 1024 281 1033 206 q 983 386 1014 356 q 747 190 897 260 q 440 150 597 119 q 490 -3 456 60 q 567 -99 524 -67 q 660 -142 610 -131 q 758 -144 710 -154 q 849 -111 806 -135 q 924 -51 892 -87 z "},"":{"ha":1219,"x_min":68,"x_max":1119,"o":"m 739 1122 q 726 1109 739 1122 q 676 1096 713 1096 q 613 1122 639 1096 q 586 1185 586 1149 q 613 1248 586 1222 q 676 1274 639 1274 q 739 1248 713 1274 q 765 1185 765 1222 q 739 1122 765 1149 m 907 1096 q 843 1122 869 1096 q 817 1185 817 1149 q 843 1248 817 1222 q 906 1274 869 1274 q 969 1248 943 1274 q 996 1185 996 1222 q 984 1140 996 1161 q 951 1108 972 1119 q 907 1096 931 1096 m 1106 331 q 1050 36 1118 179 q 740 -204 956 -164 q 575 -197 650 -221 q 448 -117 500 -174 q 363 17 396 -61 q 318 192 329 96 q 188 288 243 229 q 102 429 133 347 q 69 607 71 511 q 69 626 69 610 q 77 653 69 640 q 98 672 85 665 q 125 679 111 679 q 163 663 147 679 q 179 624 179 646 q 178 606 179 622 q 176 575 176 589 q 177 537 175 561 q 184 491 179 513 q 199 441 189 469 q 226 386 210 413 q 313 289 260 331 q 342 526 313 406 q 428 740 371 647 q 543 881 481 826 q 666 956 606 936 q 786 969 726 975 q 896 935 846 964 q 984 858 946 906 q 1043 752 1022 811 q 1063 622 1064 693 q 1033 479 1061 550 q 1060 465 1049 476 q 1088 415 1074 451 q 1106 331 1101 379 m 510 697 q 444 471 465 596 q 432 228 424 346 q 576 210 500 206 q 719 243 651 215 q 847 317 786 271 q 945 422 907 363 q 1001 552 983 482 q 1000 699 1018 622 q 956 806 988 758 q 881 881 924 854 q 788 913 839 908 q 688 899 738 918 q 592 828 639 879 q 510 697 544 776 m 924 -51 q 1009 110 985 15 q 1024 281 1033 206 q 983 386 1014 356 q 747 190 897 260 q 440 150 597 119 q 490 -3 456 60 q 567 -99 524 -67 q 660 -142 610 -131 q 758 -144 710 -154 q 849 -111 806 -135 q 924 -51 892 -87 z "},"":{"ha":592,"x_min":53,"x_max":539,"o":"m 524 35 q 535 -6 538 17 q 515 -42 533 -28 q 475 -53 497 -56 q 439 -33 453 -51 l 278 168 l 131 -17 q 113 -26 124 -25 q 92 -21 101 -28 q 83 -2 83 -14 q 89 18 82 10 l 243 211 l 68 432 q 56 472 53 450 q 76 508 58 494 q 116 520 93 522 q 153 500 139 518 l 313 299 l 460 483 q 478 493 467 492 q 499 488 490 494 q 508 469 507 481 q 503 449 510 457 l 347 256 l 524 35 z "},"":{"ha":1219,"x_min":68,"x_max":1119,"o":"m 1106 331 q 1050 36 1118 179 q 740 -206 956 -164 q 581 -199 654 -221 l 529 -328 q 504 -344 522 -344 q 493 -343 499 -344 q 479 -328 483 -339 q 479 -307 475 -318 l 531 -179 q 388 -37 443 -135 q 318 192 333 61 q 138 357 204 249 q 69 607 71 465 q 69 626 69 610 q 77 653 69 640 q 98 672 85 665 q 125 679 111 679 q 163 663 147 679 q 179 624 179 646 q 178 606 179 622 q 176 575 176 589 q 177 537 175 561 q 184 491 179 513 q 199 441 189 469 q 226 386 210 413 q 313 289 260 331 q 342 526 313 406 q 428 740 371 647 q 563 898 489 840 q 706 967 636 956 q 841 958 776 978 q 957 889 906 938 l 1019 1044 q 1034 1059 1024 1054 q 1055 1059 1044 1064 q 1069 1044 1065 1054 q 1069 1024 1074 1033 l 997 843 q 1060 678 1049 769 q 1033 479 1071 586 q 1060 465 1049 476 q 1077 440 1068 457 q 1094 394 1086 424 q 1106 331 1103 364 m 972 779 l 765 264 q 960 448 892 331 q 1000 699 1029 565 q 972 779 992 742 m 510 697 q 444 471 465 596 q 432 228 424 346 q 696 235 557 188 l 935 833 q 838 901 893 882 q 724 910 782 921 q 608 844 665 899 q 510 697 550 790 m 564 -96 l 665 160 q 440 150 551 128 q 564 -96 469 -19 m 924 -51 q 1009 110 985 15 q 1024 281 1033 206 q 983 386 1014 356 q 733 183 890 250 l 610 -125 q 781 -139 694 -161 q 924 -51 867 -117 z "},"":{"ha":931,"x_min":68,"x_max":932,"o":"m 535 946 l 339 1168 q 331 1188 331 1176 q 340 1207 332 1200 q 360 1213 349 1214 q 379 1204 372 1213 l 575 982 q 581 961 582 972 q 572 943 581 950 q 554 936 565 936 q 535 946 542 936 m 929 -176 q 922 -199 932 -189 q 899 -207 913 -208 q 793 -175 832 -200 q 715 -83 746 -144 q 672 43 683 -22 q 594 -87 643 -33 q 492 -165 546 -142 q 383 -182 439 -189 q 285 -135 328 -175 l 283 -133 q 238 -69 257 -107 q 210 19 219 -32 q 195 119 200 71 q 191 235 190 167 q 193 353 192 304 q 199 480 194 403 q 204 601 203 557 q 206 631 206 610 q 208 728 210 678 q 201 818 207 778 q 174 885 196 858 q 118 915 153 913 q 100 914 108 915 q 80 920 89 913 q 69 939 71 928 q 75 959 68 950 q 93 969 82 968 q 104 968 96 969 q 169 954 142 965 q 224 917 196 943 q 272 838 253 890 q 304 710 292 786 q 315 542 314 643 q 311 348 315 442 q 306 164 307 254 q 313 6 304 74 q 344 -86 322 -61 q 413 -116 372 -112 q 494 -96 453 -119 q 573 -30 536 -72 q 635 85 610 13 q 663 244 660 157 q 668 771 653 624 q 688 807 671 793 q 728 818 706 821 q 764 801 750 817 q 776 764 778 785 q 779 604 776 719 q 779 321 781 440 q 776 123 778 201 q 778 -6 775 44 q 791 -85 781 -57 q 824 -132 801 -114 q 860 -151 839 -146 q 888 -154 874 -154 q 896 -153 890 -154 l 899 -153 q 919 -158 910 -151 q 929 -176 928 -165 z "},"":{"ha":931,"x_min":68,"x_max":932,"o":"m 433 943 q 424 961 425 950 q 431 982 424 972 l 628 1204 q 646 1213 635 1213 q 665 1207 657 1214 q 674 1188 674 1200 q 668 1168 675 1176 l 472 946 q 451 936 464 936 q 433 943 442 936 m 929 -176 q 927 -192 931 -185 q 916 -204 924 -200 q 899 -207 908 -208 q 793 -175 832 -200 q 715 -83 746 -144 q 672 43 683 -22 q 594 -87 643 -33 q 492 -165 546 -142 q 383 -182 439 -189 q 285 -135 328 -175 l 283 -133 q 232 -52 253 -103 q 202 48 211 -1 q 192 178 193 97 q 192 311 190 258 q 198 460 193 364 q 204 601 203 557 q 206 631 206 610 q 208 679 207 663 q 208 727 208 696 q 206 776 208 758 q 201 817 204 793 q 190 856 197 842 q 174 885 183 871 q 150 907 164 900 q 118 915 136 914 q 100 914 108 915 q 86 917 93 914 q 75 925 79 919 q 69 939 71 931 q 75 959 68 950 q 93 969 82 968 q 104 968 96 969 q 169 954 142 965 q 224 917 196 943 q 272 838 253 890 q 304 710 292 786 q 315 494 315 621 q 308 253 314 368 q 309 42 301 139 q 344 -86 317 -56 q 413 -116 372 -112 q 494 -96 453 -119 q 573 -30 536 -72 q 635 85 610 13 q 663 244 660 157 q 668 771 653 624 q 688 807 671 793 q 728 818 706 821 q 764 801 750 817 q 776 764 778 785 q 779 604 776 719 q 779 321 781 440 q 776 123 778 201 q 778 -6 775 44 q 791 -85 781 -57 q 824 -132 801 -114 q 860 -151 839 -146 q 888 -154 874 -154 q 896 -153 890 -154 l 899 -153 q 919 -158 910 -151 q 929 -176 928 -165 z "},"":{"ha":931,"x_min":68,"x_max":932,"o":"m 340 977 q 335 976 340 977 q 319 982 329 975 q 308 1000 310 989 q 314 1021 307 1011 l 474 1243 l 485 1258 q 508 1272 493 1269 q 533 1265 522 1275 q 542 1257 539 1263 l 683 1033 q 690 992 694 1014 q 666 958 685 971 q 625 951 647 946 q 590 975 603 956 l 478 1156 l 357 989 q 340 977 351 979 m 929 -176 q 922 -199 932 -189 q 899 -207 913 -208 q 793 -175 832 -200 q 715 -83 746 -144 q 672 43 683 -22 q 594 -87 643 -33 q 492 -165 546 -142 q 383 -182 439 -189 q 285 -135 328 -175 l 283 -133 q 232 -52 253 -103 q 202 48 211 -1 q 192 178 193 97 q 192 311 190 258 q 198 460 193 364 q 204 601 203 557 q 206 631 206 610 q 208 728 210 678 q 201 818 207 778 q 174 885 196 858 q 118 915 153 913 q 100 914 108 915 q 80 920 89 913 q 69 939 71 928 q 75 959 68 950 q 93 969 82 968 q 104 968 96 969 q 169 954 142 965 q 224 917 196 943 q 272 838 253 890 q 304 710 292 786 q 315 494 315 621 q 308 253 314 368 q 309 42 301 139 q 344 -86 317 -56 q 413 -116 372 -112 q 494 -96 453 -119 q 573 -30 536 -72 q 635 85 610 13 q 663 244 660 157 q 668 771 653 624 q 688 807 671 793 q 728 818 706 821 q 764 801 750 817 q 776 764 778 785 q 779 604 776 719 q 779 321 781 440 q 776 123 778 201 q 778 -6 775 44 q 791 -85 781 -57 q 824 -132 801 -114 q 860 -151 839 -146 q 888 -154 874 -154 q 896 -153 890 -154 l 899 -153 q 913 -154 906 -151 q 924 -162 919 -157 q 929 -176 928 -168 z "},"":{"ha":931,"x_min":68,"x_max":932,"o":"m 421 1048 q 408 1035 421 1048 q 358 1022 394 1022 q 294 1048 321 1022 q 268 1111 268 1074 q 294 1174 268 1149 q 358 1200 321 1200 q 421 1174 394 1200 q 447 1111 447 1149 q 421 1048 447 1074 m 589 1022 q 561 1026 575 1022 q 536 1039 547 1031 q 517 1058 525 1047 q 504 1083 508 1069 q 500 1111 500 1097 q 526 1174 500 1149 q 589 1200 551 1200 q 652 1174 626 1200 q 678 1111 678 1149 q 652 1048 678 1074 q 589 1022 626 1022 m 929 -176 q 922 -199 932 -189 q 899 -207 913 -208 q 793 -175 832 -200 q 715 -83 746 -144 q 672 43 683 -22 q 594 -87 643 -33 q 492 -165 546 -142 q 383 -182 439 -189 q 285 -135 328 -175 l 285 -133 q 232 -52 253 -103 q 202 48 211 -1 q 192 178 193 97 q 192 311 190 258 q 198 460 193 364 q 204 601 203 557 q 206 631 206 610 q 208 679 207 663 q 208 727 208 696 q 206 776 208 758 q 201 817 204 793 q 190 856 197 842 q 174 885 183 871 q 150 907 164 900 q 118 915 136 914 q 100 914 108 915 q 86 917 93 914 q 75 925 79 919 q 69 939 71 931 q 75 959 68 950 q 93 969 82 968 q 104 968 96 969 q 169 954 142 965 q 224 917 196 943 q 272 838 253 890 q 304 710 292 786 q 315 494 315 621 q 308 253 314 368 q 309 42 301 139 q 344 -86 317 -56 q 413 -116 372 -112 q 494 -96 453 -119 q 573 -30 536 -72 q 635 85 610 13 q 663 244 660 157 q 668 771 653 624 q 688 807 671 793 q 728 818 706 821 q 764 801 750 817 q 776 764 778 785 q 779 604 776 719 q 779 321 781 440 q 776 123 778 201 q 778 -6 775 44 q 791 -85 781 -57 q 824 -132 801 -114 q 860 -151 839 -146 q 888 -154 874 -154 q 896 -153 892 -154 l 899 -153 q 919 -158 910 -151 q 929 -176 928 -165 z "},"":{"ha":871,"x_min":68,"x_max":774,"o":"m 374 893 q 365 912 365 900 q 371 932 364 924 l 567 1154 q 585 1163 574 1163 q 606 1157 597 1164 q 615 1139 614 1150 q 607 1118 615 1128 l 411 896 q 392 886 404 886 q 374 893 381 886 m 740 631 q 750 204 772 374 q 728 93 743 147 q 689 -12 714 39 q 632 -102 664 -62 q 556 -169 600 -142 q 461 -203 511 -196 q 251 -169 332 -219 q 146 122 125 -90 q 167 161 149 147 q 207 174 185 175 q 249 147 235 171 q 251 96 263 122 q 232 -14 228 39 q 378 -151 240 -135 q 450 -150 407 -154 q 536 -107 501 -143 q 603 28 574 -68 q 647 239 632 125 q 668 442 661 353 q 675 592 675 532 q 644 491 660 536 q 603 395 629 446 q 549 309 578 344 q 479 246 521 274 q 389 210 438 218 q 382 208 386 210 q 374 207 378 208 q 167 286 236 190 q 115 405 131 336 q 102 539 99 474 q 113 671 106 604 q 130 788 121 738 q 135 874 139 839 q 111 914 132 908 q 100 915 106 915 q 78 922 86 914 q 69 940 69 931 q 78 962 69 953 q 100 969 88 971 q 167 942 146 964 q 200 865 193 914 q 206 704 207 815 q 213 508 206 593 q 219 432 215 461 q 234 370 224 403 q 261 319 244 338 q 306 288 278 300 q 371 275 333 275 l 369 274 l 363 274 q 382 275 365 274 q 458 301 424 279 q 519 359 493 322 q 565 433 546 396 q 601 524 585 471 q 625 610 617 576 q 644 694 633 644 q 657 756 654 743 q 677 782 663 775 q 704 784 692 789 q 718 768 717 779 q 740 631 738 650 z "},"":{"ha":729,"x_min":-69,"x_max":622,"o":"m 368 517 q 508 456 449 504 q 594 344 567 408 q 617 206 621 279 q 578 68 613 132 q 469 -40 544 4 q 290 -92 394 -85 q 200 -74 243 -93 q 125 -19 157 -54 q 79 74 93 17 q 79 201 65 132 q 97 235 83 222 q 126 248 110 247 q 158 242 143 249 q 183 219 174 236 q 188 183 192 203 q 183 168 186 175 q 203 4 131 64 q 356 -31 264 -46 q 497 79 458 -11 q 510 114 506 94 q 515 239 524 182 q 473 337 506 296 q 397 401 440 378 q 298 422 353 424 q 190 394 243 421 l 190 396 q 155 390 169 385 q 135 410 140 394 q 174 474 122 442 q 276 514 226 506 q 357 650 344 574 q 310 800 375 753 q 162 813 246 847 q 46 681 78 779 q 28 526 31 635 q 28 310 25 417 q 27 98 32 204 q 3 -53 22 -8 q -14 -78 -6 -68 q -22 -83 -18 -81 q -45 -89 -35 -92 q -62 -78 -56 -86 q -66 -56 -69 -68 q -51 -37 -62 -44 q -37 -15 -44 -36 q -18 133 -31 7 q -22 525 -6 258 q 100 889 -32 786 q 300 925 192 958 q 436 804 397 894 q 451 690 457 751 q 450 685 450 685 q 368 517 435 586 z "},"":{"ha":583,"x_min":-47,"x_max":621,"o":"m 333 568 l 138 792 q 131 811 131 800 q 140 830 132 822 q 160 837 149 838 q 179 828 171 836 l 375 604 q 381 585 382 596 q 372 565 381 574 q 354 558 364 558 q 333 568 342 558 m 593 236 q 613 224 606 235 q 615 200 619 213 q 603 167 614 197 q 588 123 593 138 q 569 83 582 108 q 544 40 557 58 q 463 -22 511 -7 q 372 -17 415 -37 q 307 50 329 3 q 206 -18 263 -3 q 85 -17 142 -36 q -3 49 29 3 q -40 151 -35 94 q -29 267 -46 207 q 22 378 -12 328 q 112 460 56 428 q 233 492 168 492 l 235 492 q 304 474 274 490 q 354 429 335 457 q 381 365 374 401 q 415 357 400 371 q 426 324 431 343 q 423 306 426 321 q 416 277 419 292 q 408 231 413 263 q 400 161 403 199 q 393 62 389 93 q 432 26 397 31 l 431 26 q 499 58 469 26 q 542 128 528 89 q 563 213 556 168 q 573 231 564 224 q 593 236 582 238 m 307 372 q 276 427 308 408 q 188 426 243 446 q 108 358 138 406 q 73 257 79 310 q 69 161 67 204 q 81 93 72 118 q 167 29 100 32 q 292 103 243 31 q 301 225 283 157 q 272 247 283 231 q 263 283 261 263 q 285 326 264 304 q 307 372 306 349 z "},"":{"ha":583,"x_min":-47,"x_max":621,"o":"m 172 565 q 162 585 163 574 q 169 604 161 596 l 365 828 q 383 837 372 836 q 403 830 394 838 q 413 811 413 822 q 406 792 414 800 l 210 568 q 189 558 201 558 q 172 565 179 558 m 593 236 q 613 224 606 235 q 615 200 619 213 q 606 175 613 194 q 594 142 600 156 q 581 108 589 128 q 565 72 574 89 q 544 40 556 54 q 463 -22 511 -7 q 372 -17 415 -37 q 307 50 329 3 q 206 -18 263 -3 q 85 -17 142 -36 q -3 49 29 3 q -40 151 -35 94 q -29 267 -46 207 q 22 378 -12 328 q 112 460 56 428 q 233 492 168 492 l 235 492 q 304 474 274 490 q 354 429 335 457 q 381 365 374 401 q 415 357 400 371 q 426 324 431 343 q 423 306 426 321 q 416 277 419 292 q 408 231 413 263 q 400 161 403 199 q 393 62 389 93 q 432 26 397 31 l 431 26 q 499 58 469 26 q 542 128 528 89 q 563 213 556 168 q 573 231 564 224 q 593 236 582 238 m 307 372 q 276 427 308 408 q 188 426 243 446 q 108 358 138 406 q 73 257 79 310 q 69 161 67 204 q 81 93 72 118 q 167 29 100 32 q 292 103 243 31 q 301 225 283 157 q 272 247 283 231 q 263 283 261 263 q 285 326 264 304 q 307 372 306 349 z "},"":{"ha":583,"x_min":-47,"x_max":621,"o":"m 100 559 q 94 558 100 559 q 80 564 89 557 q 69 582 71 571 q 74 601 67 593 l 235 825 l 246 840 q 268 853 254 851 q 294 847 282 856 q 303 838 300 844 l 443 615 q 451 574 456 596 q 426 540 446 551 q 385 533 407 528 q 351 557 364 538 l 239 736 l 118 571 q 100 559 111 561 m 593 236 q 613 224 606 235 q 615 200 619 213 q 603 167 614 197 q 588 123 593 138 q 569 83 582 108 q 544 40 557 58 q 463 -22 511 -7 q 372 -17 415 -37 q 307 50 329 3 q 206 -18 263 -3 q 85 -17 142 -36 q -3 49 29 3 q -40 151 -35 94 q -29 267 -46 207 q 22 378 -12 328 q 112 460 56 428 q 233 492 168 492 l 235 492 q 304 474 274 490 q 354 429 335 457 q 381 365 374 401 q 415 357 400 371 q 426 324 431 343 q 423 306 426 321 q 416 277 419 292 q 408 231 413 263 q 400 161 403 199 q 393 62 389 93 q 432 26 397 31 l 431 26 q 499 58 469 26 q 542 128 528 89 q 563 213 556 168 q 573 231 564 224 q 593 236 582 238 m 307 372 q 276 427 308 408 q 188 426 243 446 q 108 358 138 406 q 73 257 79 310 q 69 161 67 204 q 81 93 72 118 q 112 47 90 63 q 167 29 133 31 q 292 103 243 31 q 301 225 283 157 q 272 247 283 231 q 263 283 261 263 q 285 326 264 304 q 307 372 306 349 z "},"":{"ha":583,"x_min":-47,"x_max":621,"o":"m 26 556 q 5 565 14 556 q -3 588 -4 574 q -1 599 -3 590 q 8 662 4 638 q 24 723 13 686 q 53 787 35 760 q 97 831 71 814 q 189 846 139 857 l 189 844 l 190 844 q 244 811 219 838 q 279 758 268 785 q 303 698 290 732 q 321 654 315 664 q 346 633 329 638 q 376 631 363 628 q 397 639 390 635 q 440 709 425 660 q 450 810 456 758 q 456 830 449 821 q 475 840 464 839 q 485 839 481 840 q 494 834 490 838 q 501 826 499 831 q 504 815 504 821 q 501 778 504 813 q 472 645 493 701 q 401 561 450 589 q 342 543 378 547 l 340 543 l 339 543 q 294 551 315 543 q 260 567 274 558 q 233 594 246 576 q 213 624 219 613 q 198 660 206 636 q 188 692 190 683 q 181 726 186 701 q 175 750 175 750 q 128 779 165 789 q 72 716 94 771 q 51 588 49 661 q 45 565 53 574 q 26 556 38 557 m 593 236 q 613 224 606 235 q 615 200 619 213 q 603 167 614 197 q 588 123 593 138 q 569 83 582 108 q 544 40 557 58 q 463 -22 511 -7 q 372 -17 415 -37 q 307 50 329 3 q 206 -18 263 -3 q 85 -17 142 -36 q -3 49 29 3 q -40 151 -35 94 q -29 267 -46 207 q 22 378 -12 328 q 112 460 56 428 q 233 492 168 492 l 235 492 q 304 474 274 490 q 354 429 335 457 q 381 365 374 401 q 415 357 400 371 q 426 324 431 343 q 424 310 426 319 q 419 290 421 301 q 413 261 417 278 q 406 218 410 244 q 400 161 403 192 q 393 62 389 93 q 432 26 397 31 l 431 26 q 499 58 469 26 q 542 128 528 89 q 563 213 556 168 q 573 231 564 224 q 593 236 582 238 m 307 372 q 276 427 308 408 q 188 426 243 446 q 108 358 138 406 q 73 257 79 310 q 69 161 67 204 q 81 93 72 118 q 167 29 100 32 q 292 103 243 31 q 301 225 283 157 q 272 247 283 231 q 263 283 261 263 q 285 326 264 304 q 307 372 306 349 z "},"":{"ha":583,"x_min":-47,"x_max":621,"o":"m 219 635 q 209 624 219 635 q 169 614 199 614 q 120 635 140 614 q 100 684 100 656 q 120 733 100 713 q 169 754 140 754 q 219 733 199 754 q 240 684 240 713 q 219 635 240 656 m 400 635 q 390 624 400 635 q 351 614 379 614 q 301 635 322 614 q 281 685 281 656 q 290 719 281 703 q 316 744 300 735 q 350 754 332 754 q 400 733 379 754 q 421 684 421 713 q 400 635 421 656 m 593 236 q 613 224 606 235 q 615 200 619 213 q 603 167 614 197 q 588 123 593 138 q 569 83 582 108 q 544 40 557 58 q 463 -22 511 -7 q 372 -17 415 -37 q 307 50 329 3 q 206 -18 263 -3 q 85 -17 142 -36 q -3 49 29 3 q -40 151 -35 94 q -29 267 -46 207 q 22 378 -12 328 q 112 460 56 428 q 233 492 168 492 l 235 492 q 304 474 274 490 q 354 429 335 457 q 381 365 374 401 q 415 357 400 371 q 426 324 431 343 q 423 306 426 321 q 416 277 419 292 q 408 231 413 263 q 400 161 403 199 q 393 62 389 93 q 432 26 397 31 l 431 26 q 499 58 469 26 q 542 128 528 89 q 563 213 556 168 q 573 231 564 224 q 593 236 582 238 m 307 372 q 276 427 308 408 q 188 426 243 446 q 108 358 138 406 q 73 257 79 310 q 69 161 67 204 q 81 93 72 118 q 167 29 100 32 q 292 103 243 31 q 301 225 283 157 q 272 247 283 231 q 263 283 261 263 q 285 326 264 304 q 307 372 306 349 z "},"":{"ha":583,"x_min":-47,"x_max":621,"o":"m 333 603 q 313 583 333 603 q 237 563 293 563 q 140 603 181 563 q 100 699 100 643 q 110 753 100 728 q 140 797 121 778 q 183 826 158 815 q 236 836 208 836 q 333 796 293 836 q 374 699 374 756 q 333 603 374 643 m 295 758 q 283 770 295 758 q 237 782 271 782 q 178 758 203 782 q 154 699 154 733 q 178 641 154 665 q 237 617 203 617 q 295 641 271 617 q 319 699 319 665 q 295 758 319 733 m 593 236 q 613 224 606 235 q 615 200 619 213 q 603 167 614 197 q 588 123 593 138 q 569 83 582 108 q 544 40 557 58 q 463 -22 511 -7 q 372 -17 415 -37 q 307 50 329 3 q 206 -18 263 -3 q 85 -17 142 -36 q -3 49 29 3 q -40 151 -35 94 q -29 267 -46 207 q 22 378 -12 328 q 112 460 56 428 q 233 492 168 492 l 235 492 q 332 455 293 489 q 381 365 371 421 q 415 357 400 371 q 426 324 431 343 q 423 306 426 321 q 416 277 419 292 q 408 231 413 263 q 400 161 403 199 q 393 62 389 93 q 432 26 397 31 l 431 26 q 499 58 469 26 q 542 128 528 89 q 563 213 556 168 q 573 231 564 224 q 593 236 582 238 m 307 372 q 276 427 308 408 q 188 426 243 446 q 108 358 138 406 q 73 257 79 310 q 69 161 67 204 q 81 93 72 118 q 167 29 100 32 q 292 103 243 31 q 301 225 283 157 q 272 247 283 231 q 263 283 261 263 q 285 326 264 304 q 307 372 306 349 z "},"":{"ha":783,"x_min":-47,"x_max":821,"o":"m 794 238 q 813 224 807 235 q 815 201 819 214 q 671 14 772 74 q 443 -10 569 -46 q 331 90 367 15 q 206 -18 283 6 q 85 -17 144 -37 q -3 49 29 3 q -40 151 -35 94 q -29 267 -46 207 q 22 378 -12 328 q 112 460 56 428 q 233 492 168 492 l 235 492 q 319 465 283 490 q 372 396 356 439 q 519 490 431 472 q 607 485 565 499 q 672 435 649 472 q 695 348 699 396 q 671 257 692 300 q 609 182 650 214 q 519 146 568 150 q 414 182 454 139 q 425 106 413 139 q 469 56 438 72 q 651 58 558 6 q 763 215 743 110 q 774 234 765 228 q 794 238 783 240 m 507 419 q 447 338 472 394 q 467 328 458 335 q 481 313 476 322 q 488 292 486 303 q 486 269 490 282 q 483 240 481 247 q 512 222 489 225 q 567 233 535 218 q 621 282 599 247 q 625 288 625 288 q 647 351 644 318 q 632 410 650 385 q 578 439 614 435 q 507 419 542 443 m 307 372 q 276 427 308 408 q 188 426 243 446 q 108 358 138 406 q 73 257 79 310 q 69 161 67 204 q 81 93 72 118 q 167 29 100 32 q 224 52 199 33 q 265 94 250 71 q 288 145 279 118 q 300 192 297 172 q 301 225 303 213 q 272 247 283 231 q 263 283 261 263 q 285 326 264 304 q 307 372 306 349 z "},"":{"ha":449,"x_min":-47,"x_max":485,"o":"m 440 234 q 445 237 440 234 q 461 238 450 240 q 478 225 472 235 q 482 204 485 215 q 468 169 479 193 q 359 31 428 82 q 214 -26 290 -19 q 231 -44 215 -35 q 233 -47 232 -46 q 278 -118 278 -76 q 278 -128 278 -121 l 278 -129 q 232 -203 271 -176 q 146 -226 193 -231 q 74 -183 99 -221 q 53 -125 56 -156 q 68 -67 50 -94 q 104 -53 85 -46 q 128 -82 124 -61 q 124 -118 133 -103 q 118 -171 100 -144 q 185 -189 140 -201 q 233 -135 229 -176 q 224 -108 233 -117 q 201 -97 222 -107 q 163 -70 179 -87 q 146 -24 147 -53 q 24 46 72 -8 q -42 215 -39 115 q 8 395 -46 315 q 150 489 61 475 l 151 489 q 306 450 249 501 q 332 420 321 436 q 349 388 343 404 q 358 356 354 371 q 362 325 361 340 q 363 299 363 310 q 362 278 363 289 q 361 267 361 268 q 344 226 361 243 q 304 210 328 210 q 252 244 267 210 q 263 306 238 278 q 283 352 281 325 q 271 400 285 379 q 230 431 257 421 q 164 428 203 442 q 94 356 118 413 q 67 236 71 300 q 79 128 64 174 q 123 62 94 83 q 187 32 151 40 q 260 36 222 24 q 333 71 299 49 q 392 132 367 93 q 428 217 418 171 q 440 234 431 228 z "},"":{"ha":435,"x_min":-47,"x_max":472,"o":"m 264 568 l 68 792 q 62 811 61 800 q 71 830 63 822 q 90 837 79 838 q 110 828 101 836 l 306 604 q 312 585 313 596 q 303 565 311 574 q 285 558 296 558 q 264 568 272 558 m 446 238 q 465 224 458 235 q 467 201 471 214 q 322 14 424 74 q 94 -10 221 -46 q 8 48 42 7 q -35 140 -25 89 q -37 248 -46 190 q -4 355 -29 306 q 67 442 21 404 q 169 490 113 479 q 258 485 217 499 q 324 435 300 472 q 346 348 350 396 q 322 257 342 300 q 260 182 301 214 q 171 146 219 150 q 65 182 106 139 q 119 56 64 86 q 302 58 210 6 q 414 215 394 110 q 426 234 417 228 q 446 238 435 240 m 158 419 q 99 338 124 394 q 133 313 121 332 q 138 270 144 293 q 135 240 132 247 q 163 222 140 225 q 218 233 186 218 q 272 282 250 249 q 276 288 276 288 q 299 351 296 318 q 283 410 301 385 q 229 439 265 435 q 158 419 193 443 z "},"":{"ha":435,"x_min":-47,"x_max":472,"o":"m 124 565 q 115 585 115 574 q 121 604 114 596 l 317 828 q 335 837 324 836 q 356 830 347 838 q 365 811 364 822 q 358 792 365 800 l 161 568 q 142 558 154 558 q 124 565 131 558 m 446 238 q 465 224 458 235 q 467 201 471 214 q 322 14 424 74 q 94 -10 221 -46 q 8 48 42 7 q -35 140 -25 89 q -37 248 -46 190 q -4 355 -29 306 q 67 442 21 404 q 169 490 113 479 q 258 485 217 499 q 324 435 300 472 q 346 348 350 396 q 322 257 342 300 q 260 182 301 214 q 171 146 219 150 q 65 182 106 139 q 119 56 64 86 q 302 58 210 6 q 414 215 394 110 q 426 234 417 228 q 446 238 435 240 m 158 419 q 99 338 124 394 q 133 313 121 332 q 138 270 144 293 q 135 240 132 247 q 163 222 140 225 q 218 233 186 218 q 272 282 250 249 q 276 288 276 288 q 295 336 290 311 q 296 383 300 361 q 274 421 292 406 q 229 439 257 436 q 158 419 193 443 z "},"":{"ha":435,"x_min":-47,"x_max":472,"o":"m 60 559 q 54 558 60 559 q 40 564 49 557 q 29 582 31 571 q 33 601 28 593 l 194 825 l 206 840 q 228 853 214 851 q 254 847 242 856 q 263 838 260 844 l 404 615 q 410 574 415 596 q 386 540 406 551 q 345 533 367 528 q 311 557 324 538 l 199 736 l 78 571 q 60 559 71 561 m 446 238 q 465 224 458 235 q 467 201 471 214 q 322 14 424 74 q 94 -10 221 -46 q 8 48 42 7 q -35 140 -25 89 q -37 248 -46 190 q -4 355 -29 306 q 67 442 21 404 q 171 490 113 479 q 258 485 217 499 q 324 435 300 472 q 346 348 350 396 q 322 257 342 300 q 260 182 301 214 q 171 146 219 150 q 65 182 106 139 q 119 56 64 86 q 302 58 210 6 q 414 215 394 110 q 426 234 417 228 q 446 238 435 240 m 158 419 q 99 338 124 394 q 133 313 121 332 q 138 270 144 293 q 135 240 132 247 q 163 222 140 225 q 218 233 186 218 q 272 282 250 247 q 276 288 276 288 q 299 351 296 318 q 283 410 301 385 q 229 439 265 435 q 158 419 193 443 z "},"":{"ha":435,"x_min":-47,"x_max":472,"o":"m 122 614 q 74 635 94 614 q 53 684 53 656 q 74 733 53 713 q 123 754 94 754 q 172 733 151 754 q 193 685 193 713 q 183 649 193 665 q 158 624 174 633 q 122 614 142 614 m 304 614 q 269 624 285 614 q 243 649 253 633 q 233 685 233 665 q 254 733 233 713 q 303 754 275 754 q 353 733 332 754 q 374 684 374 713 q 353 635 374 656 q 304 614 332 614 m 446 238 q 465 224 458 235 q 467 201 471 214 q 322 14 424 74 q 94 -10 221 -46 q 8 48 42 7 q -35 140 -25 89 q -37 248 -46 190 q -4 355 -29 306 q 67 442 21 404 q 171 490 113 479 q 258 485 217 499 q 324 435 300 472 q 346 348 350 396 q 322 257 342 300 q 260 182 301 214 q 171 146 219 150 q 65 182 106 139 q 119 56 64 86 q 302 58 210 6 q 414 215 394 110 q 418 226 415 221 q 426 233 421 231 q 435 238 431 236 q 446 238 440 239 m 158 419 q 99 338 124 394 q 133 313 121 332 q 138 270 144 293 q 135 240 132 247 q 163 222 140 225 q 218 233 186 218 q 272 282 250 249 q 276 288 276 288 q 299 351 296 318 q 283 410 301 385 q 229 439 265 435 q 158 419 193 443 z "},"":{"ha":350,"x_min":-119,"x_max":388,"o":"m 106 558 q 85 568 93 558 l -111 792 q -117 811 -118 800 q -108 830 -117 822 q -89 837 -100 838 q -71 828 -78 836 l 125 604 q 133 585 133 596 q 124 565 132 574 q 106 558 115 558 m 361 239 q 381 226 374 236 q 383 203 388 215 q 274 26 339 76 q 136 -17 208 -24 q 25 44 68 -10 q -31 169 -18 97 q -40 313 -43 242 q -18 435 -36 385 q 12 467 -10 458 q 56 467 33 476 q 83 442 74 460 q 86 404 92 424 q 86 400 86 401 q 83 383 86 400 q 78 340 81 367 q 73 281 75 314 q 72 214 71 249 q 78 149 74 179 q 96 94 83 118 q 128 60 108 69 q 222 58 179 38 q 294 122 265 79 q 331 215 322 165 q 341 233 332 226 q 361 239 350 240 z "},"":{"ha":350,"x_min":-44,"x_max":388,"o":"m 25 565 q 16 585 17 574 q 22 604 15 596 l 219 828 q 238 837 226 836 q 257 830 249 838 q 266 811 265 822 q 260 792 267 800 l 64 568 q 43 558 56 558 q 25 565 33 558 m 361 239 q 380 226 374 236 q 382 203 386 215 q 274 26 339 76 q 135 -17 208 -24 q 25 44 68 -10 q -31 169 -18 97 q -40 313 -43 242 q -18 435 -36 385 q 12 467 -10 458 q 54 467 33 476 q 82 442 74 460 q 86 404 90 424 q 85 400 85 401 q 83 383 85 400 q 78 340 81 367 q 73 281 75 314 q 72 214 71 249 q 78 149 74 179 q 96 94 83 118 q 128 60 108 69 q 222 58 179 38 q 293 122 264 79 q 329 215 322 165 q 340 233 331 226 q 361 239 350 240 z "},"":{"ha":346,"x_min":-81,"x_max":383,"o":"m -28 571 q -46 559 -35 561 q -66 564 -57 557 q -77 582 -75 571 q -72 601 -79 593 l 89 825 l 99 840 q 122 853 107 851 q 147 847 136 856 q 157 838 153 844 l 297 615 q 304 574 310 596 q 280 540 299 551 q 239 533 261 528 q 206 557 217 538 l 92 736 l -28 571 m 357 239 q 376 226 369 236 q 378 203 382 215 q 269 26 335 76 q 131 -17 204 -24 q 21 44 64 -10 q -35 169 -22 97 q -44 313 -47 242 q -22 435 -40 385 q 8 467 -14 458 q 50 467 29 476 q 78 442 69 460 q 82 404 86 424 q 81 400 81 401 q 78 383 81 400 q 74 340 76 367 q 69 281 71 314 q 68 214 67 249 q 74 149 69 179 q 92 94 79 118 q 124 60 104 69 q 253 81 194 26 q 325 215 313 136 q 336 233 326 226 q 357 239 346 240 z "},"":{"ha":349,"x_min":-114,"x_max":385,"o":"m 6 733 q 16 723 6 733 q 26 684 26 713 q 6 635 26 656 q -44 614 -15 614 q -94 635 -74 614 q -114 684 -114 656 q -94 733 -114 713 q -44 754 -74 754 q 6 733 -15 754 m 186 635 q 176 624 186 635 q 137 614 165 614 q 88 635 108 614 q 67 684 67 656 q 88 733 67 713 q 137 754 108 754 q 186 733 165 754 q 207 684 207 713 q 186 635 207 656 m 358 239 q 378 226 371 236 q 381 203 385 215 q 271 26 336 76 q 133 -17 206 -24 q 24 44 67 -10 q -33 169 -19 97 q -42 313 -46 242 q -21 435 -39 385 q 9 467 -12 458 q 53 467 31 476 q 80 442 71 460 q 85 404 89 424 q 83 400 83 401 q 81 383 83 400 q 76 340 79 367 q 71 281 74 314 q 70 214 68 249 q 77 149 72 179 q 94 94 82 118 q 125 60 107 69 q 256 81 196 26 q 328 215 315 136 q 338 233 329 226 q 358 239 347 240 z "},"":{"ha":617,"x_min":-42,"x_max":653,"o":"m 13 582 q -8 591 0 582 q -15 613 -17 600 q -14 624 -15 617 q -4 688 -8 664 q 10 749 0 711 q 40 813 21 786 q 85 857 58 839 q 175 871 125 882 l 176 871 q 231 838 207 864 q 266 785 254 811 q 290 724 278 758 q 308 679 303 689 q 333 658 317 663 q 363 657 350 654 q 385 665 376 660 q 427 735 413 686 q 438 835 442 783 q 443 856 436 847 q 462 865 450 864 q 482 860 474 867 q 492 840 490 853 q 489 804 492 839 q 459 672 481 728 q 389 588 438 615 q 328 569 365 574 l 326 569 q 282 576 303 569 q 247 592 261 583 q 220 620 233 601 q 200 650 207 639 q 185 685 193 661 q 175 718 178 710 q 167 751 172 726 q 163 776 163 775 q 114 804 153 815 q 59 742 82 796 q 39 614 36 688 q 31 592 39 600 q 13 582 24 583 m 608 233 q 612 237 608 233 q 628 238 617 240 q 646 226 639 236 q 650 206 653 217 q 642 181 650 203 q 622 126 635 158 q 600 72 610 93 q 485 -31 554 -24 q 422 -17 446 -31 q 376 42 393 1 q 356 121 360 83 q 350 220 353 158 q 344 307 347 282 q 279 421 333 406 q 272 422 278 421 l 274 422 q 206 414 236 428 q 68 21 68 354 q 10 -50 68 -50 q -26 -34 -11 -50 q -42 4 -42 -18 l -42 467 q -26 505 -42 489 q 13 521 -10 521 q 51 505 35 521 q 67 467 67 489 l 67 349 q 275 511 143 507 q 356 494 321 511 q 414 445 392 478 q 446 367 436 413 q 453 274 456 321 q 447 184 450 228 q 442 107 443 140 q 451 52 440 74 q 488 29 461 31 q 510 35 496 26 q 563 106 539 53 q 596 215 586 158 q 608 233 599 226 z "},"":{"ha":493,"x_min":-49,"x_max":531,"o":"m 232 568 l 36 792 q 30 811 29 800 q 39 830 31 822 q 58 837 47 838 q 76 828 69 836 l 274 604 q 280 585 281 596 q 271 565 279 574 q 253 558 263 558 q 232 568 240 558 m 506 238 q 523 224 517 235 q 525 201 529 214 q 474 121 507 151 q 315 50 415 65 q 210 -26 275 -7 q 81 -16 146 -46 q -19 93 15 14 q -40 256 -49 161 q 6 403 -32 351 q 249 483 101 536 q 337 415 306 464 q 371 306 368 365 q 367 195 374 247 q 344 104 360 143 q 472 215 454 131 q 485 234 475 228 q 506 238 494 240 m 167 29 q 235 46 207 29 q 175 54 204 47 q 63 103 111 65 q 167 29 93 31 m 285 97 q 319 188 308 135 q 326 285 329 240 q 313 357 324 329 q 232 431 289 417 q 149 415 188 443 q 92 341 111 386 q 75 253 74 296 q 125 143 78 192 q 285 97 181 93 z "},"":{"ha":493,"x_min":-49,"x_max":531,"o":"m 106 565 q 97 585 97 574 q 104 604 96 596 l 300 828 q 318 837 307 836 q 338 830 329 838 q 348 811 347 822 q 340 792 349 800 l 144 568 q 124 558 136 558 q 106 565 114 558 m 506 238 q 523 224 517 235 q 525 201 529 214 q 474 121 507 151 q 315 50 415 65 q 210 -26 275 -7 q 81 -16 146 -46 q -19 93 15 14 q -40 256 -49 161 q 6 403 -32 351 q 249 483 101 536 q 337 415 306 464 q 371 306 368 365 q 367 195 374 247 q 344 104 360 143 q 472 215 454 131 q 485 234 475 228 q 506 238 494 240 m 167 29 q 235 46 207 29 q 175 54 204 47 q 63 103 111 65 q 167 29 93 31 m 285 97 q 319 188 308 135 q 326 285 329 240 q 313 357 324 329 q 232 431 289 417 q 149 415 188 443 q 92 341 111 386 q 75 253 74 296 q 125 143 78 192 q 285 97 181 93 z "},"":{"ha":493,"x_min":-49,"x_max":531,"o":"m 50 559 q 44 558 50 559 q 30 564 39 557 q 19 582 21 571 q 24 601 18 593 l 185 825 l 196 840 q 218 853 204 851 q 244 847 232 856 q 253 838 250 844 l 393 615 q 401 574 406 596 q 376 540 396 551 q 335 533 357 528 q 301 557 314 538 l 189 736 l 68 571 q 50 559 61 561 m 506 238 q 523 224 517 235 q 525 201 529 214 q 474 121 507 151 q 315 50 415 65 q 210 -26 275 -7 q 81 -16 146 -46 q -19 93 15 14 q -40 256 -49 161 q 6 403 -32 351 q 249 483 101 536 q 337 415 306 464 q 371 306 368 365 q 367 195 374 247 q 344 104 360 143 q 472 215 454 131 q 485 234 475 228 q 506 238 494 240 m 167 29 q 235 46 207 29 q 175 54 204 47 q 63 103 111 65 q 167 29 93 31 m 285 97 q 319 188 308 135 q 326 285 329 240 q 313 357 324 329 q 232 431 289 417 q 167 426 199 440 q 116 383 136 411 q 85 319 96 354 q 75 253 74 285 q 125 143 78 192 q 285 97 181 93 z "},"":{"ha":493,"x_min":-49,"x_max":531,"o":"m -12 556 q -28 560 -21 556 q -39 572 -35 564 q -42 588 -43 579 q -40 599 -40 590 q -31 662 -35 638 q -15 723 -26 686 q 14 787 -4 760 q 58 831 32 814 q 150 846 100 857 l 150 844 l 151 844 q 205 811 181 838 q 240 758 229 785 q 264 698 251 732 q 282 654 276 664 q 307 633 290 638 q 338 631 324 628 q 358 639 351 635 q 402 709 388 660 q 411 810 417 758 q 417 830 410 821 q 436 840 425 839 q 456 833 447 840 q 465 815 465 826 q 463 778 467 813 q 433 645 454 701 q 364 561 411 589 q 303 543 339 547 l 301 543 l 300 543 q 256 551 276 543 q 222 567 236 558 q 194 594 207 576 q 174 624 181 613 q 159 660 167 636 q 149 692 151 683 q 142 726 147 701 q 136 750 136 750 q 89 779 128 789 q 33 716 56 771 q 13 588 10 661 q 6 565 14 574 q -12 556 -1 557 m 506 238 q 523 224 517 235 q 525 201 529 214 q 474 121 507 151 q 315 50 415 65 q 210 -26 275 -7 q 81 -16 146 -46 q -19 92 15 14 q -40 256 -49 161 q 6 403 -32 351 q 249 483 101 536 q 337 415 306 464 q 371 306 368 365 q 367 195 374 247 q 344 104 360 143 q 472 215 454 131 q 485 234 475 228 q 506 238 494 240 m 167 29 q 235 46 207 29 q 175 54 204 47 q 63 103 111 65 q 167 29 93 31 m 285 97 q 319 188 308 135 q 326 285 329 240 q 313 357 324 329 q 232 431 289 417 q 149 415 188 443 q 92 341 111 386 q 75 253 74 296 q 125 143 78 192 q 285 97 181 93 z "},"":{"ha":493,"x_min":-49,"x_max":531,"o":"m 85 614 q 35 635 56 614 q 15 684 15 656 q 35 733 15 713 q 85 754 56 754 q 134 733 114 754 q 154 685 154 713 q 145 649 154 665 q 120 624 136 633 q 85 614 104 614 m 265 614 q 231 624 247 614 q 205 649 214 633 q 196 685 196 665 q 216 733 196 713 q 265 754 236 754 q 301 744 285 754 q 326 719 317 735 q 336 685 336 703 q 315 635 336 656 q 265 614 294 614 m 506 238 q 523 224 517 235 q 525 201 529 214 q 474 121 507 151 q 315 50 415 65 q 210 -26 275 -7 q 81 -16 146 -46 q -19 93 15 14 q -40 256 -49 161 q 6 403 -32 351 q 249 483 101 536 q 337 415 306 464 q 371 306 368 365 q 367 195 374 247 q 344 104 360 143 q 472 215 454 131 q 485 234 475 228 q 506 238 494 240 m 167 29 q 235 46 207 29 q 175 54 204 47 q 63 103 111 65 q 167 29 93 31 m 285 97 q 319 188 308 135 q 326 285 329 240 q 313 357 324 329 q 232 431 289 417 q 149 415 188 443 q 92 341 111 386 q 75 253 74 296 q 125 143 78 192 q 285 97 181 93 z "},"":{"ha":493,"x_min":-49,"x_max":531,"o":"m 506 238 q 523 224 517 235 q 525 201 529 214 q 474 121 507 151 q 315 50 415 65 q 216 -24 278 -3 q 96 -22 154 -44 l 49 -99 q 28 -108 40 -108 q 10 -101 17 -108 q 1 -83 1 -94 q 7 -62 0 -71 l 49 4 q -19 93 6 36 q -40 256 -49 161 q 6 403 -32 351 q 249 483 101 536 q 319 438 290 469 l 369 518 q 388 527 376 526 q 408 521 399 528 q 417 502 417 514 q 410 482 418 490 l 350 386 q 372 286 369 343 q 366 184 374 229 q 344 104 358 139 q 472 215 454 131 q 485 234 475 228 q 506 238 494 240 m 86 64 l 96 81 q 63 103 79 89 q 86 64 72 81 m 125 143 q 132 138 128 140 l 292 393 q 232 431 268 422 q 167 426 199 440 q 116 383 136 411 q 85 319 96 354 q 75 253 74 285 q 125 143 78 192 m 167 29 q 235 46 207 29 q 175 54 204 47 q 147 60 160 57 l 131 35 q 167 29 149 29 m 285 97 q 324 221 315 146 q 319 336 333 296 l 179 111 q 285 97 225 94 z "},"":{"ha":590,"x_min":-46,"x_max":628,"o":"m 232 568 l 36 792 q 30 811 29 800 q 39 830 31 822 q 58 837 47 838 q 78 828 69 836 l 274 604 q 280 585 281 596 q 271 565 279 574 q 253 558 263 558 q 232 568 240 558 m 600 239 q 621 226 614 238 q 624 203 628 214 q 609 160 618 190 q 593 110 600 131 q 573 65 586 90 q 544 21 560 39 q 461 -35 511 -19 q 360 -27 411 -51 q 285 65 308 -3 q 157 -31 238 -15 q 153 -31 154 -31 l 151 -31 q 52 -6 93 -37 q -9 81 11 26 q -37 205 -29 135 q -40 344 -44 275 q -24 476 -36 413 q -1 511 -19 499 q 40 519 18 524 q 72 499 60 515 q 83 464 85 483 q 81 426 83 460 q 79 376 79 392 q 78 322 79 360 q 78 262 76 285 q 81 205 79 239 q 88 149 82 171 q 100 105 93 128 q 119 68 107 82 q 144 50 131 54 q 151 47 147 49 l 150 47 q 161 46 158 46 q 228 73 196 40 q 268 144 261 106 q 281 288 271 168 q 306 457 290 408 q 335 490 314 481 q 376 493 356 500 q 406 469 396 488 q 413 432 417 451 q 410 39 344 75 q 440 32 421 32 q 554 144 518 26 q 569 215 565 182 q 580 233 571 226 q 600 239 589 240 z "},"":{"ha":590,"x_min":-46,"x_max":626,"o":"m 143 565 q 134 585 135 574 q 140 604 133 596 l 336 828 q 356 837 344 836 q 375 830 367 838 q 384 811 383 822 q 378 792 385 800 l 182 568 q 161 558 174 558 q 143 565 150 558 m 600 239 q 616 232 610 238 q 624 219 622 226 q 624 203 625 211 q 609 160 618 190 q 593 110 600 131 q 573 65 586 90 q 544 21 560 39 q 461 -35 511 -19 q 360 -27 411 -51 q 285 65 308 -3 q 157 -31 238 -15 q 153 -31 154 -31 l 151 -31 q 52 -6 93 -37 q -9 81 11 26 q -37 205 -29 135 q -40 344 -44 275 q -24 476 -36 413 q -1 511 -19 499 q 40 519 18 524 q 72 499 60 515 q 83 464 85 483 q 81 426 83 460 q 79 376 79 392 q 78 322 79 360 q 78 262 76 285 q 81 205 79 239 q 88 149 82 171 q 100 105 93 128 q 119 68 107 82 q 144 50 131 54 q 151 47 147 49 l 150 47 q 161 46 158 46 q 228 73 196 40 q 268 144 261 106 q 281 288 271 168 q 306 457 290 408 q 335 490 314 481 q 376 493 356 500 q 406 469 396 488 q 413 432 417 451 q 402 376 404 390 q 391 307 400 363 q 380 219 382 251 q 377 143 378 186 q 385 74 376 100 q 410 39 393 47 q 440 32 421 32 q 554 144 518 26 q 569 215 565 182 q 580 233 571 226 q 600 239 589 240 z "},"":{"ha":590,"x_min":-46,"x_max":628,"o":"m 40 559 q 35 558 40 559 q 20 564 29 557 q 10 582 11 571 q 14 601 8 593 l 175 825 l 186 840 q 209 853 194 851 q 235 847 224 856 q 243 838 240 844 l 385 615 q 391 574 396 596 q 367 540 386 551 q 326 533 349 528 q 292 557 304 538 l 179 736 l 58 571 q 40 559 51 561 m 600 239 q 621 226 614 238 q 624 203 628 214 q 609 160 618 190 q 593 110 600 131 q 573 65 586 90 q 544 21 560 39 q 461 -35 511 -19 q 360 -27 411 -51 q 285 65 308 -3 q 157 -31 238 -15 q 153 -31 154 -31 l 151 -31 q 52 -6 93 -37 q -9 81 11 26 q -37 205 -29 135 q -40 344 -44 275 q -24 476 -36 413 q -1 511 -19 499 q 40 519 18 524 q 72 499 60 515 q 83 464 85 483 q 82 438 83 456 q 78 331 79 374 q 79 217 76 288 q 99 103 82 146 q 144 50 115 60 q 151 47 147 49 l 150 47 q 161 46 158 46 q 228 73 196 40 q 268 144 261 106 q 281 288 271 168 q 306 457 290 408 q 335 490 314 481 q 376 493 356 500 q 406 469 396 488 q 413 432 417 451 q 402 376 404 390 q 391 307 400 363 q 380 219 382 251 q 377 143 378 186 q 385 74 376 100 q 410 39 393 47 q 440 32 421 32 q 554 144 518 26 q 569 215 565 182 q 580 233 571 226 q 600 239 589 240 z "},"":{"ha":590,"x_min":-46,"x_max":626,"o":"m 165 635 q 155 624 165 635 q 115 614 144 614 q 66 635 86 614 q 46 684 46 656 q 66 733 46 713 q 115 754 86 754 q 165 733 144 754 q 185 684 185 713 q 165 635 185 656 m 345 635 q 335 624 345 635 q 296 614 325 614 q 247 635 267 614 q 226 684 226 656 q 247 733 226 713 q 296 754 267 754 q 345 733 325 754 q 365 684 365 713 q 345 635 365 656 m 600 239 q 616 232 610 238 q 624 219 622 226 q 624 203 625 211 q 609 160 618 190 q 593 110 600 131 q 573 65 586 90 q 544 21 560 39 q 461 -35 511 -19 q 360 -27 411 -51 q 285 65 308 -3 q 157 -31 238 -15 q 153 -31 154 -31 l 151 -31 q 52 -6 93 -37 q -9 81 11 26 q -37 205 -29 135 q -40 344 -44 275 q -24 476 -36 413 q -1 511 -19 499 q 40 519 18 524 q 72 499 60 515 q 83 464 85 483 q 82 438 83 456 q 78 331 79 374 q 79 217 76 288 q 99 103 82 146 q 144 50 115 60 q 151 47 147 49 l 150 47 q 161 46 158 46 q 228 73 196 40 q 268 144 261 106 q 278 246 274 181 q 288 365 282 311 q 306 457 294 419 q 335 490 314 481 q 376 493 356 500 q 398 479 389 489 q 411 457 407 469 q 413 432 415 444 q 410 39 344 75 q 440 32 421 32 q 554 144 518 26 q 569 215 565 182 q 580 233 571 226 q 600 239 589 240 z "},"":{"ha":640,"x_min":-49,"x_max":676,"o":"m 181 565 q 172 585 172 574 q 178 604 171 596 l 374 828 q 392 837 381 836 q 413 830 404 838 q 422 811 421 822 q 415 792 422 800 l 218 568 q 199 558 211 558 q 181 565 188 558 m 632 233 q 637 236 632 233 q 653 237 642 239 q 670 225 664 235 q 674 204 676 215 q 674 203 674 203 q 662 170 668 185 q 646 140 656 156 q 624 114 636 126 q 600 92 613 101 q 482 25 561 58 q 479 -102 482 -42 q 463 -237 476 -162 q 428 -367 450 -312 q 367 -461 407 -421 q 274 -508 328 -501 l 264 -508 q 173 -480 210 -510 q 123 -401 136 -450 q 113 -296 110 -353 q 138 -186 117 -239 q 226 -60 169 -110 q 371 29 283 -11 q 366 83 369 44 q 360 169 363 122 q 208 3 289 29 q 193 -1 201 1 q 72 10 124 -17 q -6 94 21 36 q -40 234 -33 151 q -28 415 -47 317 q -14 475 -22 447 q 12 508 -8 497 q 53 514 32 519 q 85 491 74 508 q 93 454 96 474 q 90 438 92 449 q 84 388 86 406 q 78 333 82 369 q 74 273 75 297 q 74 216 74 249 q 80 161 75 183 q 93 116 85 139 q 115 80 101 93 q 149 61 129 67 q 189 58 165 57 l 188 58 q 258 108 226 64 q 306 209 290 153 q 330 305 322 265 q 338 360 338 344 q 356 394 339 382 q 394 401 374 406 q 422 375 414 396 q 463 233 446 321 q 481 76 479 146 q 574 135 539 104 q 621 215 610 167 q 632 233 622 226 m 243 -439 q 310 -412 282 -442 q 350 -335 338 -383 q 370 -230 363 -287 q 376 -119 378 -172 q 375 -22 375 -65 q 211 -156 258 -78 q 172 -272 181 -206 q 183 -387 164 -337 q 243 -439 201 -436 z "},"":{"ha":640,"x_min":-49,"x_max":676,"o":"m 160 635 q 149 624 160 635 q 110 614 139 614 q 61 635 82 614 q 40 684 40 656 q 61 733 40 713 q 110 754 82 754 q 160 733 139 754 q 181 684 181 713 q 160 635 181 656 m 341 635 q 331 624 341 635 q 292 614 321 614 q 242 635 263 614 q 221 684 221 656 q 242 733 221 713 q 292 754 263 754 q 341 733 321 754 q 361 684 361 713 q 341 635 361 656 m 632 233 q 637 236 632 233 q 653 237 642 239 q 670 225 664 235 q 674 204 676 215 q 674 203 674 203 q 662 170 668 185 q 646 140 656 156 q 624 114 636 126 q 600 92 613 101 q 482 25 561 58 q 479 -102 482 -42 q 463 -237 476 -162 q 428 -367 450 -312 q 367 -461 407 -421 q 274 -508 328 -501 l 264 -508 q 173 -480 210 -510 q 123 -401 136 -450 q 113 -296 110 -353 q 138 -186 117 -239 q 226 -60 169 -110 q 371 29 283 -11 q 368 62 369 46 q 365 89 367 78 q 363 121 364 100 q 360 169 361 142 q 208 3 289 29 q 193 -1 201 1 q 72 10 124 -17 q -6 94 21 36 q -40 234 -33 151 q -28 415 -47 317 q -14 475 -22 447 q 12 508 -8 497 q 53 514 32 519 q 85 491 74 508 q 93 454 96 474 q 90 438 92 449 q 84 388 86 406 q 78 333 82 369 q 74 273 75 297 q 74 216 74 249 q 80 161 75 183 q 93 116 85 139 q 115 80 101 93 q 149 61 129 67 q 189 58 165 57 l 188 58 q 258 108 226 64 q 306 209 290 153 q 330 305 322 265 q 338 360 338 344 q 349 388 339 376 q 374 401 360 399 q 401 397 388 404 q 422 375 415 390 q 463 233 446 321 q 481 76 479 146 q 574 135 539 104 q 621 215 610 167 q 632 233 622 226 m 243 -439 q 310 -412 282 -442 q 350 -335 338 -383 q 370 -230 363 -287 q 376 -119 378 -172 q 375 -22 375 -65 q 211 -156 258 -78 q 172 -272 181 -206 q 183 -387 164 -337 q 243 -439 201 -436 z "},"":{"ha":165,"x_min":54,"x_max":111,"o":"m 110 492 l 110 26 q 102 7 110 15 q 83 -1 94 -1 q 64 7 72 -1 q 56 26 56 15 l 56 492 q 63 511 56 503 q 83 519 71 519 q 102 511 94 519 q 110 492 110 503 z "},"":{"ha":1744,"x_min":68,"x_max":1782,"o":"m 1757 236 q 1774 224 1768 235 q 1778 203 1781 214 q 1390 -219 1668 -183 q 1199 -185 1286 -233 q 1042 19 1083 -121 q 740 -204 947 -165 q 575 -197 650 -221 q 448 -117 500 -174 q 363 17 396 -61 q 318 192 329 96 q 138 357 204 249 q 69 607 71 465 q 69 626 69 610 q 77 653 69 640 q 98 672 85 665 q 125 679 111 679 q 163 663 147 679 q 179 624 179 646 q 178 606 179 622 q 176 575 176 589 q 177 537 175 561 q 184 491 179 513 q 199 441 189 469 q 226 386 210 413 q 313 289 260 331 q 342 526 313 406 q 428 740 371 647 q 569 903 492 844 q 720 969 647 961 q 860 951 793 976 q 975 869 926 925 q 996 897 981 886 q 1029 906 1011 907 q 1067 888 1051 906 q 1081 849 1082 871 q 1078 832 1081 843 q 1079 772 1071 806 q 1110 707 1088 739 q 1176 654 1132 675 q 1275 636 1219 633 q 1243 749 1249 689 q 1258 863 1238 808 q 1325 950 1279 918 q 1500 961 1410 1008 q 1590 844 1574 922 q 1503 658 1613 740 q 1393 600 1458 625 q 1421 556 1406 576 q 1442 526 1436 536 q 1444 503 1447 515 q 1433 486 1443 493 q 1407 482 1424 479 l 1376 488 q 1189 396 1256 493 q 1160 340 1172 371 q 1137 249 1144 300 q 1133 140 1129 197 q 1153 31 1138 82 q 1206 -64 1169 -21 q 1294 -126 1243 -107 q 1372 -140 1332 -139 q 1604 -36 1515 -133 q 1725 215 1693 61 q 1737 233 1728 226 q 1757 236 1746 239 m 510 697 q 444 471 465 596 q 432 228 424 346 q 576 210 500 206 q 719 243 651 215 q 847 317 786 271 q 945 422 907 363 q 1001 552 983 482 q 1000 699 1018 622 q 956 806 988 758 q 881 881 924 854 q 788 913 839 908 q 688 899 738 918 q 592 828 639 879 q 510 697 544 776 m 924 -51 q 1009 110 985 15 q 1024 281 1033 206 q 983 386 1014 356 q 747 190 897 260 q 440 150 597 119 q 490 -3 456 60 q 567 -99 524 -67 q 660 -142 610 -131 q 758 -144 710 -154 q 849 -111 806 -135 q 924 -51 892 -87 m 1401 896 q 1357 832 1368 876 q 1351 745 1346 788 q 1372 656 1357 703 q 1538 794 1521 706 q 1500 888 1549 853 q 1403 896 1453 924 l 1401 896 m 1060 465 q 1093 396 1079 446 q 1347 542 1185 536 q 1315 576 1329 560 q 1063 636 1164 546 q 1033 479 1064 558 q 1060 465 1049 476 z "},"":{"ha":801,"x_min":-49,"x_max":838,"o":"m 813 238 q 826 231 821 236 q 834 218 832 225 q 833 201 836 211 q 689 14 790 74 q 461 -10 588 -46 q 344 101 378 17 q 315 50 332 74 q 210 -26 275 -7 q 81 -16 146 -46 q -19 93 15 14 q -40 256 -49 161 q 6 403 -32 351 q 249 483 101 536 q 363 353 336 453 q 538 490 422 468 q 594 492 567 494 q 649 475 622 490 q 690 435 675 460 q 713 348 717 396 q 689 257 710 300 q 627 182 668 214 q 538 146 586 150 q 432 182 472 139 q 488 56 431 86 q 612 35 551 24 q 720 97 672 47 q 781 215 768 147 q 793 234 783 228 q 813 238 803 240 m 526 419 q 465 338 490 394 q 499 313 488 332 q 505 270 511 293 q 501 240 499 247 q 515 226 504 232 q 540 222 525 221 q 572 227 556 222 q 607 247 589 232 q 640 282 625 261 q 643 288 643 288 q 665 351 663 318 q 650 410 668 385 q 596 439 632 435 q 526 419 560 443 m 167 29 q 235 46 207 29 q 175 54 204 47 q 63 103 111 65 q 167 29 93 31 m 285 97 q 319 188 308 135 q 326 285 329 240 q 313 357 324 329 q 232 431 289 417 q 149 415 188 443 q 92 341 111 386 q 75 253 74 296 q 125 143 78 192 q 285 97 181 93 z "},"":{"ha":961,"x_min":56,"x_max":843,"o":"m 601 1029 l 461 1251 q 455 1293 450 1271 q 478 1327 460 1315 q 519 1334 497 1339 q 554 1310 542 1329 l 667 1131 l 788 1297 q 804 1308 793 1306 q 825 1303 815 1310 q 836 1285 835 1296 q 831 1265 838 1274 l 669 1042 l 660 1026 q 637 1013 651 1015 q 611 1019 622 1011 q 601 1029 606 1022 m 397 647 q 460 597 415 624 q 553 547 504 569 q 657 486 603 524 q 753 408 711 449 q 818 302 794 367 q 835 160 842 238 q 784 2 825 72 q 683 -110 743 -68 q 552 -176 624 -153 q 410 -200 481 -200 q 276 -178 340 -200 q 168 -117 211 -157 q 74 74 90 -42 q 115 317 57 190 q 148 344 126 336 q 189 340 169 351 q 217 305 211 329 q 210 260 224 281 q 154 103 157 189 q 195 -49 151 17 q 313 -137 239 -115 q 389 -147 347 -147 q 510 -125 454 -146 q 603 -72 567 -104 q 668 1 639 -40 q 709 84 697 42 q 727 167 721 126 q 725 239 733 207 q 685 331 718 286 q 605 410 651 375 q 510 476 558 444 q 417 541 463 507 q 350 606 371 575 q 329 644 335 626 q 363 810 306 721 q 511 943 421 900 q 595 967 554 964 q 667 957 636 969 q 723 919 699 944 q 759 860 747 893 q 771 787 771 828 q 757 704 771 746 q 743 671 756 700 q 710 639 732 647 q 668 639 688 631 q 635 686 638 653 q 660 738 632 719 q 686 771 675 747 q 694 858 708 815 q 638 914 679 900 q 531 901 596 928 q 406 780 453 864 q 397 647 360 696 z "},"":{"ha":543,"x_min":-56,"x_max":579,"o":"m 210 557 l 69 781 q 63 821 58 799 q 87 855 68 843 q 128 862 106 867 q 163 838 150 857 l 275 658 l 396 825 q 413 836 401 835 q 433 831 424 838 q 444 814 443 825 q 439 793 446 803 l 279 571 l 268 556 q 245 541 260 543 q 219 547 231 539 q 210 557 214 551 m 556 236 q 569 230 564 235 q 576 218 574 225 q 578 204 579 211 q 575 197 576 203 q 547 130 565 161 q 512 78 529 99 q 463 32 494 57 q 411 -6 431 7 q 350 -44 392 -18 q 353 -172 374 -115 q 283 -260 333 -229 q 181 -278 232 -292 q 129 -228 139 -267 q 154 -140 119 -189 q 253 -51 183 -100 q 167 -11 233 -37 q 63 38 101 15 q 51 46 56 43 q -34 166 -12 83 q -18 340 -56 249 q 98 465 19 424 q 258 493 176 506 q 390 424 340 481 q 449 265 439 371 q 436 224 451 242 q 397 203 421 206 q 346 227 365 200 q 340 283 326 254 q 350 355 356 322 q 317 408 344 388 q 256 438 289 429 q 181 434 222 446 q 106 392 139 422 q 56 251 51 332 q 108 139 60 169 q 180 99 132 122 q 266 51 228 75 q 328 -4 304 26 q 464 97 419 51 q 524 215 508 142 q 535 233 526 226 q 556 236 544 239 m 199 -228 q 275 -190 242 -235 q 282 -87 308 -146 q 185 -183 207 -142 q 178 -211 176 -200 q 199 -228 179 -225 z "},"":{"ha":871,"x_min":68,"x_max":774,"o":"m 389 995 q 376 982 389 995 q 326 969 363 969 q 263 995 289 969 q 236 1058 236 1021 q 263 1122 236 1096 q 326 1147 289 1147 q 389 1122 363 1147 q 415 1058 415 1096 q 389 995 415 1021 m 619 995 q 606 982 619 995 q 556 969 593 969 q 493 995 519 969 q 467 1058 467 1021 q 493 1122 467 1096 q 556 1147 519 1147 q 619 1122 593 1147 q 646 1058 646 1096 q 619 995 646 1021 m 740 631 q 750 204 772 374 q 705 22 739 106 q 607 -127 671 -62 q 461 -203 543 -192 q 251 -169 332 -219 q 146 122 125 -90 q 167 161 149 147 q 207 174 185 175 q 249 147 235 171 q 251 96 263 122 q 232 -14 228 39 q 378 -151 240 -135 q 450 -150 407 -154 q 536 -107 501 -143 q 603 28 574 -68 q 647 239 632 125 q 668 442 661 353 q 675 592 675 532 q 644 491 660 536 q 603 395 629 446 q 549 309 578 344 q 479 246 521 274 q 389 210 438 218 q 382 209 386 210 q 374 207 378 208 q 167 286 236 190 q 110 431 124 346 q 104 594 96 515 q 124 744 113 672 q 135 862 135 815 q 111 914 135 908 q 100 915 106 915 q 78 922 86 914 q 69 940 69 931 q 78 962 69 953 q 100 969 88 971 q 167 942 146 964 q 200 865 193 914 q 206 704 207 815 q 213 508 206 593 q 219 432 215 461 q 234 370 224 403 q 261 319 244 338 q 306 288 278 300 q 371 275 333 275 l 369 274 l 363 274 q 382 275 364 274 q 458 301 424 279 q 519 359 493 322 q 565 433 546 396 q 601 524 585 471 q 625 610 617 576 q 644 694 633 644 q 657 756 654 743 q 677 782 663 775 q 704 784 692 789 q 718 768 717 779 q 740 631 738 650 z "},"":{"ha":563,"x_min":-44,"x_max":599,"o":"m 235 557 l 94 781 q 87 821 82 799 q 111 855 92 843 q 152 862 131 867 q 186 838 174 857 l 299 658 l 419 825 q 438 836 426 835 q 458 831 449 838 q 469 814 467 825 q 464 793 471 803 l 303 571 l 292 556 q 269 541 283 543 q 243 547 256 539 q 235 557 238 551 m 575 236 q 592 225 586 235 q 596 204 597 215 q 572 149 589 174 q 524 101 554 124 q 477 69 494 79 q 425 40 460 58 q 454 -75 461 -8 q 453 -82 454 -78 q 446 -118 451 -99 q 346 -258 418 -214 q 265 -283 304 -282 q 201 -265 226 -283 q 163 -215 175 -247 q 160 -144 151 -182 q 294 17 179 -61 q 233 36 246 28 q 204 93 200 57 q 221 132 206 104 q 258 235 244 171 q 265 276 263 253 q 268 376 276 333 q 225 433 260 418 q 190 440 206 440 l 176 442 l 172 442 q 183 440 183 440 q 91 412 128 439 q 43 348 54 385 q 37 272 32 311 q 61 207 42 233 q 82 188 72 193 q 111 153 104 178 q 104 108 118 129 q 60 83 89 83 q 15 103 31 82 q 9 110 11 107 q 6 113 7 113 q 4 116 6 114 q 0 122 3 118 q -40 248 -37 178 q -15 376 -43 318 q 76 468 13 433 q 222 493 139 503 q 340 420 300 482 q 374 273 379 358 q 324 106 369 188 q 390 74 364 92 q 432 97 418 89 q 469 121 446 106 q 503 149 492 136 q 526 178 515 161 q 542 215 538 196 q 549 229 544 224 q 561 237 554 235 q 575 236 568 239 m 371 -151 q 383 -65 388 -117 q 349 -1 379 -21 q 218 -119 254 -58 q 204 -192 196 -158 q 246 -233 213 -226 q 290 -228 265 -237 q 338 -199 315 -219 q 371 -151 360 -179 z "},"":{"ha":542,"x_min":56,"x_max":486,"o":"m 458 311 q 478 303 469 311 q 486 285 486 296 q 484 274 486 279 q 478 265 482 269 q 469 259 474 261 q 458 257 464 257 l 83 257 q 63 265 71 257 q 56 285 56 274 q 63 303 56 296 q 83 311 71 311 l 458 311 z "},"":{"ha":831,"x_min":54,"x_max":775,"o":"m 747 311 q 767 303 758 311 q 775 285 775 296 q 772 271 775 278 q 762 260 768 264 q 747 257 756 257 l 83 257 q 63 265 71 257 q 56 285 56 274 q 63 303 56 296 q 83 311 71 311 l 747 311 z "},"":{"ha":257,"x_min":56,"x_max":211,"o":"m 158 964 q 194 960 178 978 q 194 924 210 942 q 164 728 135 856 q 145 672 172 692 q 87 665 118 653 q 56 715 56 678 q 84 875 58 819 q 158 964 110 931 z "},"":{"ha":257,"x_min":47,"x_max":206,"o":"m 200 964 q 197 876 206 939 q 153 758 188 814 q 67 703 100 682 q 58 736 49 714 q 63 743 60 740 q 98 810 89 774 q 103 878 107 847 q 94 935 99 908 q 99 980 90 961 q 133 1004 107 999 q 163 1003 149 1008 q 186 988 176 999 q 200 964 196 978 z "},"":{"ha":257,"x_min":47,"x_max":201,"o":"m 93 -6 q 125 57 82 40 q 189 43 165 71 q 201 7 201 29 q 132 -212 201 -139 q 61 -237 83 -265 q 63 -201 49 -219 q 93 -6 122 -133 z "},"":{"ha":363,"x_min":54,"x_max":315,"o":"m 193 922 q 163 731 135 856 q 133 667 174 683 q 69 678 94 650 q 56 715 56 692 q 149 957 60 888 q 183 968 167 972 q 200 950 199 964 q 193 922 201 936 m 293 915 q 274 855 276 893 q 283 803 272 817 q 293 752 300 776 q 264 718 286 728 q 189 749 213 693 q 200 889 164 811 q 265 965 224 936 q 285 970 274 972 q 303 960 296 968 q 293 915 314 943 z "},"":{"ha":363,"x_min":50,"x_max":308,"o":"m 240 1006 q 288 995 267 1013 q 307 953 308 978 q 204 704 308 778 q 169 708 185 690 q 169 746 153 726 q 204 813 196 776 q 208 880 213 850 q 201 936 204 910 q 205 981 197 963 q 240 1006 213 1000 m 178 903 q 136 736 194 807 q 69 701 99 689 q 60 710 64 704 q 61 738 51 722 q 82 780 71 754 q 88 838 93 806 q 78 868 83 857 q 90 946 51 917 q 154 947 122 969 q 178 903 174 933 z "},"":{"ha":363,"x_min":53,"x_max":308,"o":"m 199 -7 q 229 58 188 40 q 293 46 268 74 q 307 8 307 31 q 207 -239 307 -164 q 167 -236 183 -254 q 169 -199 151 -218 q 199 -7 228 -131 m 172 -19 q 182 -75 181 -39 q 163 -160 183 -111 q 97 -242 143 -210 q 73 -246 86 -250 q 56 -228 60 -242 q 68 -192 53 -214 q 88 -138 85 -172 q 76 -76 90 -104 q 76 -12 58 -39 q 126 13 94 14 q 172 -19 157 11 z "},"":{"ha":268,"x_min":56,"x_max":214,"o":"m 78 358 q 90 369 78 358 q 134 381 101 381 q 190 358 167 381 q 213 302 213 335 q 190 247 213 269 q 134 224 167 224 q 78 247 101 224 q 56 302 56 269 q 78 358 56 335 z "},"":{"ha":397,"x_min":1,"x_max":396,"o":"m 68 50 q 107 11 100 43 q 97 -32 113 -12 q 57 -51 81 -51 q 46 -50 51 -51 q 7 -11 14 -43 q 17 32 1 13 q 57 51 32 51 q 68 50 63 51 m 210 50 q 249 11 242 43 q 239 -32 254 -12 q 199 -51 224 -51 q 188 -50 193 -51 q 149 -11 156 -43 q 158 32 143 13 q 199 51 174 51 q 210 50 204 51 m 390 11 q 381 -32 396 -12 q 340 -51 365 -51 q 329 -50 335 -51 q 290 -11 297 -43 q 300 32 285 13 q 340 51 315 51 q 351 50 346 51 q 390 11 383 43 z "},"":{"ha":1088,"x_min":61,"x_max":1024,"o":"m 556 332 q 633 265 608 310 q 653 176 658 221 q 615 92 649 131 q 528 44 582 54 q 428 64 475 35 q 371 126 389 88 q 358 203 353 164 q 382 275 363 242 q 441 326 401 308 q 531 339 481 344 q 556 332 540 338 m 532 128 q 565 137 550 128 q 590 161 581 146 q 599 194 599 176 q 579 242 599 222 q 532 261 560 261 q 485 242 504 261 q 465 194 465 222 q 485 147 465 167 q 532 128 504 128 m 921 332 q 999 265 974 310 q 1018 176 1024 221 q 980 92 1013 131 q 893 44 947 54 q 792 64 840 35 q 729 144 744 93 q 729 241 714 196 q 789 316 744 286 q 894 339 833 346 q 921 332 906 338 m 849 147 q 858 138 849 147 q 896 128 868 128 q 944 147 924 128 q 964 194 964 167 q 944 242 964 222 q 896 261 924 261 q 849 242 868 261 q 829 194 829 222 q 849 147 829 167 m 570 974 q 575 976 570 974 q 591 973 581 978 q 606 958 601 968 q 606 938 610 947 l 193 -11 q 168 -26 186 -26 q 157 -25 163 -26 q 143 -10 147 -21 q 143 11 139 1 l 556 958 q 570 974 560 969 m 242 608 q 217 606 225 606 q 140 628 176 606 q 78 708 93 657 q 77 804 63 758 q 137 880 92 850 q 243 901 182 910 q 268 894 254 900 q 336 845 311 878 q 365 776 361 813 q 357 703 368 739 q 315 642 346 668 q 242 608 283 615 m 178 757 q 183 732 178 744 q 197 710 188 719 q 218 696 206 701 q 244 690 231 690 q 292 710 272 690 q 311 757 311 729 q 292 805 311 785 q 244 825 272 825 q 197 805 217 825 q 178 757 178 785 z "},"":{"ha":489,"x_min":68,"x_max":421,"o":"m 404 39 q 420 -1 421 22 q 403 -39 419 -24 q 365 -54 388 -54 q 326 -37 342 -54 l 78 217 q 69 237 69 225 q 78 257 69 249 q 79 258 79 258 l 99 275 l 340 486 q 360 492 349 493 q 378 483 371 492 q 385 464 386 475 q 376 444 385 453 l 176 271 l 404 39 z "},"":{"ha":489,"x_min":68,"x_max":421,"o":"m 410 258 q 420 238 419 250 q 413 218 421 226 q 411 217 413 217 l 163 -37 q 124 -54 147 -54 q 85 -39 101 -54 q 69 -1 69 -24 q 85 39 69 22 l 313 271 l 113 444 q 103 464 104 453 q 110 483 103 475 q 129 492 118 492 q 149 486 140 493 l 390 275 l 410 258 z "},"":{"ha":932,"x_min":65,"x_max":800,"o":"m 682 283 q 717 349 674 335 q 779 332 756 361 q 790 288 794 314 q 740 138 774 203 q 661 34 706 72 q 564 -22 617 -4 q 459 -35 511 -40 q 357 -3 407 -29 q 267 68 307 24 q 199 180 226 113 q 164 329 171 247 l 96 329 q 72 342 79 329 q 72 369 65 356 q 96 383 79 383 l 161 383 q 161 447 160 413 l 96 447 q 72 461 79 447 q 72 488 65 475 q 96 501 79 501 l 165 501 q 321 886 186 747 q 550 978 429 994 q 749 801 679 958 q 793 650 778 736 q 774 593 799 613 q 719 583 749 574 q 685 626 690 593 q 685 631 685 626 q 688 656 686 643 q 689 698 689 668 q 685 752 689 728 q 672 808 682 776 q 645 861 661 839 q 601 900 629 883 q 535 921 572 917 q 444 899 485 925 q 376 831 403 874 q 330 728 350 788 q 299 614 310 668 q 282 501 289 560 l 368 501 q 392 488 385 501 q 392 461 399 475 q 368 447 385 447 l 276 447 q 274 383 275 415 l 368 383 q 392 369 385 383 q 392 342 399 356 q 368 329 385 329 l 272 329 q 397 40 279 107 q 572 44 482 -7 q 681 193 660 93 q 682 283 689 238 z "},"":{"ha":1501,"x_min":63,"x_max":1460,"o":"m 463 -299 l 464 -299 q 463 -299 464 -299 m 1458 -140 q 1456 -156 1460 -149 q 1445 -168 1453 -164 q 1429 -172 1438 -172 q 1381 -167 1399 -169 q 1341 -153 1364 -164 q 1299 -122 1318 -142 q 1217 69 1232 -54 q 1213 390 1201 193 q 949 396 1071 354 q 938 258 942 303 q 915 135 933 214 q 865 -19 897 57 q 710 -261 806 -165 q 479 -374 614 -357 q 457 -375 465 -375 q 306 -342 379 -379 q 178 -235 232 -304 q 93 -79 124 -167 q 70 116 63 8 q 128 328 78 224 q 179 413 150 375 q 240 475 208 450 q 303 519 271 500 q 369 547 336 538 q 433 560 403 556 q 490 565 463 565 q 539 563 518 565 q 575 557 560 561 q 647 528 614 547 q 790 361 750 472 q 817 118 831 250 l 815 104 q 795 64 814 79 q 751 51 776 49 q 711 72 726 53 q 699 114 696 90 q 707 143 699 122 q 728 272 731 200 q 694 399 726 343 q 595 490 658 463 q 470 512 532 518 q 356 476 408 506 q 236 350 275 433 q 182 154 197 267 q 253 -168 157 -21 q 255 -172 253 -169 q 258 -178 257 -175 q 315 -237 285 -212 q 369 -274 346 -262 q 416 -292 393 -286 q 449 -298 439 -297 q 464 -299 460 -299 q 769 -94 647 -297 q 836 39 810 -29 q 876 178 863 107 q 896 297 890 250 q 907 414 901 343 q 810 486 850 442 q 751 578 769 531 q 726 682 733 625 q 731 713 725 699 q 749 736 738 728 q 776 746 761 744 q 825 726 806 750 q 836 672 844 703 q 839 562 817 617 q 911 472 861 507 q 914 519 911 488 q 918 591 917 567 q 924 660 919 615 q 934 730 929 704 q 947 793 939 756 q 966 853 956 831 q 992 904 976 876 q 1028 949 1008 932 q 1074 980 1047 965 q 1131 1001 1100 994 q 1218 998 1179 1011 q 1281 955 1257 985 q 1322 880 1306 925 q 1344 786 1338 835 q 1351 682 1350 738 q 1336 377 1353 574 q 1322 85 1319 181 q 1323 40 1322 56 q 1326 -3 1324 25 q 1335 -49 1329 -32 q 1351 -84 1342 -65 q 1377 -111 1361 -103 q 1415 -118 1393 -119 q 1424 -118 1419 -118 q 1458 -140 1453 -114 m 1215 447 q 1219 517 1215 460 q 1226 608 1224 574 q 1229 692 1228 642 q 1230 783 1231 743 q 1225 853 1229 824 q 1203 916 1218 894 q 1156 939 1189 938 q 1108 933 1131 940 q 1069 910 1086 926 q 1037 878 1051 894 q 1011 833 1022 861 q 992 781 1000 804 q 978 721 985 758 q 968 659 972 683 q 961 594 964 635 q 956 531 958 553 q 953 468 954 508 q 951 449 951 456 q 1203 443 1071 392 q 1215 447 1213 447 z "},"":{"ha":1389,"x_min":-14,"x_max":1288,"o":"m 1158 431 q 1258 272 1231 363 q 1273 90 1286 182 q 1207 -93 1260 -3 q 1074 -253 1154 -183 q 881 -366 994 -322 q 639 -412 767 -410 l 625 -412 q 415 -390 510 -411 q 242 -322 321 -368 q 109 -199 164 -276 q 26 -17 54 -122 q 46 264 -12 128 q 135 394 79 340 q 253 473 190 449 q 381 494 315 497 q 499 463 446 492 q 587 371 551 433 q 625 222 622 308 q 613 99 628 161 q 586 63 606 74 q 544 57 567 51 q 508 89 518 64 q 511 138 497 114 q 539 225 533 176 q 533 318 544 274 q 456 418 514 388 q 334 440 399 449 q 217 399 269 432 q 90 250 135 347 q 60 46 44 153 q 134 -143 75 -54 q 283 -278 193 -232 q 437 -325 349 -311 q 601 -335 525 -339 q 736 -317 676 -332 q 877 -263 810 -299 q 996 -181 944 -228 q 1088 -79 1047 -135 q 1148 35 1128 -24 q 1173 152 1168 93 q 1158 264 1178 211 q 840 454 1076 483 q 799 439 821 446 q 799 247 801 333 q 796 188 797 207 q 786 133 794 168 q 764 68 778 99 q 636 -53 718 -31 q 586 -61 619 -58 q 565 -56 574 -64 q 554 -37 556 -49 q 563 -14 553 -24 q 588 -7 574 -4 q 644 4 617 -12 q 681 60 671 21 q 688 158 686 92 q 683 302 689 225 q 681 467 678 379 q 695 631 685 556 q 739 769 706 707 q 825 860 772 832 q 851 871 826 860 q 873 872 863 876 q 889 858 883 868 q 888 834 894 846 q 868 819 882 822 q 813 775 831 813 q 795 683 796 738 q 794 560 794 628 q 796 533 796 542 q 904 629 863 581 q 961 715 946 678 q 979 793 976 751 l 981 793 q 945 897 985 858 q 847 943 906 936 q 724 931 788 950 q 621 872 660 913 q 574 783 582 832 q 579 715 567 744 q 604 678 592 686 q 628 634 626 660 q 613 594 629 608 q 567 578 594 575 q 526 604 540 581 q 515 619 517 619 q 486 728 486 669 q 513 841 486 788 q 599 937 539 894 q 740 993 658 979 q 888 991 818 1007 q 1008 926 958 975 q 1067 803 1057 878 q 1047 652 1076 728 q 947 519 1017 576 q 1158 431 1072 513 z "},"":{"ha":1407,"x_min":-4,"x_max":1444,"o":"m 1419 236 q 1437 224 1431 233 q 1440 203 1443 214 q 1409 105 1425 149 q 1371 17 1393 61 q 1322 -61 1349 -26 q 1263 -125 1296 -96 q 1186 -174 1229 -154 q 1093 -203 1143 -193 q 800 -137 915 -237 q 649 156 685 -36 q 578 146 618 150 q 349 150 451 132 q 181 210 247 168 q 71 309 115 251 q 11 433 26 367 q 2 568 -4 500 q 36 697 8 636 q 247 901 101 844 q 493 903 381 954 q 617 722 607 851 q 608 628 619 678 q 583 590 603 601 q 542 582 564 578 q 503 615 514 589 q 507 665 492 640 q 508 668 507 665 q 510 671 510 671 q 531 753 535 711 q 498 824 526 794 q 419 867 469 854 q 299 864 368 881 q 119 747 189 839 q 52 590 67 676 q 67 426 38 504 q 168 287 96 349 q 358 203 240 225 q 640 207 476 182 q 681 635 613 431 q 915 942 754 858 q 1146 960 1039 1006 q 1256 815 1242 919 q 1257 801 1257 808 q 1242 688 1261 753 q 1179 547 1222 622 q 1076 401 1136 471 q 928 272 1017 332 q 740 179 840 211 q 778 29 751 94 q 874 -99 813 -54 q 972 -142 914 -131 q 1092 -144 1031 -153 q 1215 -92 1154 -135 q 1315 21 1276 -50 q 1388 215 1360 99 q 1399 233 1390 226 q 1419 236 1408 239 m 822 694 q 736 232 724 492 q 965 363 861 274 q 1127 551 1068 451 q 1203 746 1186 650 q 1197 838 1213 797 q 1142 897 1181 878 q 1051 910 1104 917 l 1050 910 l 1046 908 q 822 694 914 885 z "},"":{"ha":1485,"x_min":61,"x_max":1400,"o":"m 589 -42 q 648 -27 622 -43 q 686 19 674 -11 q 699 108 697 49 q 697 235 701 168 q 693 383 693 303 q 698 535 693 464 q 725 674 703 607 q 786 781 747 740 q 871 835 818 814 q 882 839 879 838 q 903 839 892 843 q 918 824 914 835 q 918 803 922 814 q 903 788 914 792 q 895 786 903 788 q 881 783 888 785 q 863 774 874 781 q 844 758 853 767 q 827 731 835 749 q 815 692 819 714 q 808 504 801 610 q 813 263 814 399 q 789 64 811 126 q 715 -47 763 -7 q 590 -94 671 -83 q 578 -96 578 -96 q 556 -90 565 -97 q 546 -72 547 -83 q 547 -59 544 -65 q 553 -49 549 -53 q 565 -42 558 -44 q 578 -42 571 -40 q 589 -42 582 -42 m 685 925 q 1181 883 988 1039 q 1365 521 1332 763 q 1288 28 1400 269 q 954 -339 1175 -214 q 497 -396 754 -449 q 223 -274 333 -364 q 81 -36 113 -183 q 79 152 61 67 q 148 299 97 238 q 261 393 199 360 q 393 426 324 426 q 518 388 463 425 q 631 100 640 306 q 613 61 631 76 q 574 46 596 46 q 528 72 544 47 q 525 126 513 96 q 540 248 551 190 q 483 339 528 306 q 390 371 444 371 q 283 343 335 371 q 190 263 232 315 q 133 138 147 211 q 136 -24 118 65 q 208 -171 156 -108 q 335 -269 261 -233 q 494 -319 410 -304 q 671 -329 579 -335 q 682 -329 674 -329 q 878 -267 783 -319 q 1046 -135 972 -215 q 1172 50 1119 -56 q 1247 267 1225 156 q 1253 500 1268 379 q 1183 726 1239 621 q 1006 897 1117 856 q 760 892 894 938 q 714 875 742 886 q 616 803 654 850 q 569 710 578 756 q 568 627 560 665 q 601 576 576 589 q 603 575 601 576 q 607 574 603 575 q 635 541 628 563 q 633 499 643 519 q 601 472 622 479 q 558 475 579 465 q 539 490 553 478 q 484 592 494 528 q 494 720 474 656 q 565 842 514 785 q 685 925 615 900 z "},"":{"ha":1496,"x_min":65,"x_max":1414,"o":"m 1394 1004 q 1399 1002 1394 1004 q 1409 990 1404 1000 q 1410 969 1414 979 q 1396 954 1406 958 q 1388 951 1393 953 q 1324 893 1346 940 q 1300 772 1303 846 q 1299 601 1297 699 q 1304 393 1300 503 q 1300 164 1308 283 q 1296 107 1299 133 q 1249 -46 1283 24 q 1193 -121 1224 -93 q 1068 -169 1149 -161 q 1047 -164 1056 -171 q 1038 -146 1039 -157 q 1046 -123 1036 -132 q 1068 -115 1056 -114 q 1114 -111 1092 -119 q 1182 -21 1167 -93 q 1188 260 1196 39 q 1085 268 1140 253 q 991 304 1029 283 q 892 364 953 325 q 884 100 896 219 q 829 -131 872 -19 q 728 -297 790 -226 q 583 -389 667 -367 q 522 -401 563 -396 q 376 -399 444 -411 q 258 -357 308 -387 q 169 -282 208 -326 q 106 -185 129 -237 q 74 -72 83 -132 q 72 47 65 -12 q 100 163 78 106 q 158 267 122 219 q 249 353 194 315 q 372 410 304 390 q 478 422 425 422 q 578 400 531 422 q 660 341 625 378 q 716 244 696 304 q 735 107 736 183 q 735 94 735 96 q 717 55 733 71 q 677 40 700 39 q 639 58 654 40 q 624 97 624 75 q 631 124 624 106 q 638 238 649 185 q 591 321 626 290 q 503 365 556 351 q 386 360 450 378 q 254 296 311 340 q 165 194 197 251 q 122 70 133 136 q 118 -60 110 4 q 157 -183 126 -125 q 235 -281 188 -240 q 356 -341 283 -322 q 515 -346 429 -360 l 525 -344 q 636 -290 588 -332 q 768 33 735 -197 q 778 128 775 85 q 781 211 782 171 q 779 281 781 251 q 774 357 778 310 q 768 438 771 404 q 581 489 656 499 q 524 468 553 485 q 482 463 504 457 q 449 489 460 469 q 446 539 435 514 q 485 571 457 564 q 519 576 514 576 q 765 510 633 590 q 772 742 761 642 q 824 917 782 843 q 950 1004 867 993 q 960 1004 960 1004 q 980 999 971 1006 q 990 981 989 992 q 983 959 992 968 q 958 950 974 950 q 926 946 940 951 q 901 926 911 940 q 885 899 892 913 q 875 860 878 885 q 870 817 872 835 q 869 770 868 800 q 870 724 869 740 q 872 679 871 708 q 874 650 874 660 q 878 583 875 618 q 883 506 881 547 q 889 426 886 465 q 924 401 913 410 q 960 377 936 393 q 998 353 983 361 q 1035 334 1013 346 q 1074 317 1057 322 q 1112 308 1092 313 q 1151 303 1132 303 q 1186 310 1169 304 q 1185 395 1185 367 q 1185 488 1185 424 q 1188 590 1185 551 q 1197 687 1192 629 q 1215 784 1203 744 q 1243 866 1226 824 q 1285 938 1260 908 q 1340 988 1310 968 q 1372 1003 1350 993 q 1394 1004 1383 1008 z "},"":{"ha":1047,"x_min":67,"x_max":1172,"o":"m 1144 -78 q 1172 -128 1172 -96 q 1143 -175 1171 -160 q 1088 -201 1114 -192 q 1040 -215 1063 -211 q 992 -215 1018 -218 q 947 -206 967 -211 q 897 -187 928 -201 q 843 -162 865 -174 q 779 -129 821 -150 q 707 -93 738 -108 q 561 -206 631 -222 q 506 -129 511 -193 q 546 -21 500 -61 q 643 1 586 14 q 690 205 681 99 q 688 414 699 311 q 514 364 607 378 q 335 360 421 350 q 179 415 249 369 q 83 539 110 461 q 70 647 67 593 q 99 746 74 700 q 161 830 125 792 q 246 890 197 868 q 344 919 294 913 q 444 909 393 925 q 539 853 496 893 q 575 813 551 842 q 586 772 589 794 q 565 736 583 750 q 520 725 546 719 q 482 754 494 731 q 428 820 464 797 q 353 844 393 843 q 273 828 314 844 q 199 783 232 813 q 144 709 165 753 q 124 617 124 665 q 209 454 122 511 q 426 402 296 397 q 682 469 557 407 q 674 540 679 488 q 666 618 668 593 q 661 690 664 643 q 661 765 658 736 q 670 828 664 793 q 690 889 676 863 q 725 935 704 915 q 881 958 806 1010 q 960 804 949 911 q 865 538 975 657 q 803 481 838 507 q 733 -42 838 174 q 822 -90 789 -74 q 897 -125 854 -107 q 967 -144 940 -143 q 1022 -135 994 -146 q 1067 -97 1049 -125 q 1102 -71 1079 -76 q 1144 -78 1125 -65 m 783 885 q 765 846 771 868 q 762 785 760 824 q 767 722 764 747 q 781 635 771 696 q 794 544 790 574 q 899 697 876 615 q 907 816 918 753 q 858 906 896 879 q 785 886 821 932 l 783 885 m 583 -112 q 614 -62 597 -96 q 590 -80 599 -65 q 583 -112 582 -94 z "}}}
